<svg width="606" height="367" viewBox="0 0 606 367" fill="none" xmlns="http://www.w3.org/2000/svg">
<path d="M235.473 270.752L303.681 250.548V325.207L235.473 345.411V270.752Z" fill="#602B7A"/>
<path d="M234.992 270.611L303.594 290.932V366.021L234.992 345.701V270.611Z" fill="#F44C75"/>
<path d="M303.593 250.573L371.664 270.737V345.256L303.593 325.092V250.573Z" fill="#F44C75"/>
<path d="M234.992 270.887L215.957 250.566L284.558 230.246L303.594 250.567L234.992 270.887Z" fill="#F44C75"/>
<path d="M371.861 270.766L390.854 250.49L322.405 230.215L303.412 250.49L371.861 270.766Z" fill="#602B7A"/>
<path d="M303.422 290.921L372.034 270.597V345.698L303.422 366.022V290.921Z" fill="#602B7A"/>
<path fill-rule="evenodd" clip-rule="evenodd" d="M291.02 347.036L304.429 351.377L304.192 337.065L290.782 332.723L290.025 287.074L268.606 280.729L234.646 318.933L234.646 329.935L274.511 342.146L274.776 358.085L291.284 362.975L291.02 347.036ZM274.332 299.94L255.154 322.169L274.796 327.988L274.332 299.94Z" fill="white"/>
<path d="M320.174 342.477L329.96 328.988L353.28 351.796L372.957 345.968L340.995 313.509L371.187 270.852L352.448 276.403L320.174 321.297V285.963L303.412 290.928V366.568L320.174 361.603V342.477Z" fill="white"/>
<path d="M583.407 12.053C584.243 11.1101 585.77 11.992 585.371 13.1872L583.214 19.6529C583.068 20.0928 583.198 20.5779 583.545 20.8856L588.645 25.4065C589.588 26.2423 588.706 27.7698 587.511 27.3711L581.046 25.2142C580.606 25.0674 580.121 25.1974 579.813 25.5445L575.292 30.6452C574.456 31.5881 572.929 30.7062 573.327 29.511L575.484 23.0454C575.631 22.6054 575.501 22.1203 575.154 21.8127L570.053 17.2917C569.11 16.456 569.992 14.9284 571.188 15.3272L577.653 17.4841C578.093 17.6308 578.578 17.5008 578.886 17.1538L583.407 12.053Z" fill="#F44C75"/>
<path d="M11.4359 163.333C11.5421 162.077 13.2938 161.871 13.6888 163.068L14.8603 166.616C15.0057 167.057 15.3999 167.368 15.862 167.407L19.5858 167.722C20.8413 167.828 21.0476 169.58 19.8511 169.975L16.3025 171.146C15.862 171.292 15.5509 171.686 15.5118 172.148L15.1969 175.872C15.0907 177.127 13.339 177.334 12.944 176.137L11.7725 172.588C11.6271 172.148 11.2329 171.837 10.7708 171.798L7.04704 171.483C5.79153 171.377 5.58521 169.625 6.78169 169.23L10.3303 168.058C10.7708 167.913 11.0819 167.519 11.121 167.057L11.4359 163.333Z" fill="#F44C75"/>
<path d="M586.297 141.502C586.224 140.244 587.929 139.792 588.489 140.92L590.733 145.439C590.94 145.854 591.374 146.106 591.837 146.08L596.873 145.789C598.131 145.716 598.584 147.421 597.455 147.981L592.937 150.225C592.521 150.431 592.269 150.866 592.296 151.329L592.587 156.365C592.66 157.623 590.955 158.075 590.394 156.947L588.15 152.429C587.944 152.013 587.51 151.761 587.047 151.788L582.01 152.079C580.752 152.151 580.3 150.447 581.428 149.886L585.947 147.642C586.362 147.436 586.614 147.002 586.588 146.539L586.297 141.502Z" fill="#F44C75"/>
<path d="M52.3312 69.516C52.2585 68.2581 53.9634 67.8058 54.5238 68.9343L57.0467 74.0143C57.253 74.4297 57.6873 74.6818 58.1503 74.6551L63.8129 74.3279C65.0707 74.2552 65.5231 75.9601 64.3946 76.5205L59.3145 79.0434C58.8992 79.2497 58.647 79.684 58.6737 80.147L59.0009 85.8096C59.0736 87.0675 57.3687 87.5198 56.8083 86.3913L54.2854 81.3113C54.0791 80.8959 53.6448 80.6437 53.1818 80.6704L47.5193 80.9976C46.2614 81.0703 45.8091 79.3654 46.9375 78.805L52.0176 76.2821C52.433 76.0758 52.6851 75.6415 52.6584 75.1785L52.3312 69.516Z" fill="#F44C75"/>
<path d="M335.727 270.343C335.727 270.343 382.863 194.643 454.967 160.363C525.586 126.791 579.996 147.629 579.996 147.629" stroke="#F44C75" stroke-width="1.15768" stroke-linecap="round" stroke-linejoin="round" stroke-dasharray="9.26 18.52"/>
<path d="M281.315 270.896C281.315 270.896 231.275 207.09 154.728 178.196C79.7589 149.898 21.9957 167.462 21.9957 167.462" stroke="#F44C75" stroke-width="1.15768" stroke-linecap="round" stroke-linejoin="round" stroke-dasharray="9.26 18.52"/>
<path d="M309.1 274.369C309.1 274.369 330.95 137.852 405.105 77.6063C477.731 18.6018 564.946 24.3107 564.946 24.3107" stroke="#F44C75" stroke-width="1.15768" stroke-linecap="round" stroke-linejoin="round" stroke-dasharray="9.26 18.52"/>
<path d="M297.523 277.842C297.523 277.842 273.331 138.301 202.593 84.5101C133.314 31.8275 55.5684 78.3331 55.5684 78.3331" stroke="#F44C75" stroke-width="1.15768" stroke-linecap="round" stroke-linejoin="round" stroke-dasharray="9.26 18.52"/>
<path d="M62.8823 201.592L60.6741 201.158L59.5801 206.719L55.3272 205.883L58.2126 191.216L62.4654 192.053L61.3445 197.75L63.6345 198.201L68.7356 193.286L73.261 194.176L66.7522 200.202L70.7301 208.913L65.714 207.926L62.8823 201.592ZM84.3886 196.139C85.7517 196.407 86.925 196.968 87.9085 197.822C88.9138 198.662 89.6218 199.717 90.0327 200.987C90.4471 202.239 90.506 203.619 90.2092 205.128C89.9124 206.636 89.3334 207.9 88.472 208.92C87.6143 209.922 86.5594 210.63 85.3074 211.044C84.0772 211.444 82.7806 211.51 81.4175 211.242C79.5455 210.874 78.1896 209.993 77.3497 208.601L76.0036 215.444L71.7507 214.607L75.6765 194.652L79.7385 195.451L79.406 197.141C80.7104 196.076 82.3712 195.742 84.3886 196.139ZM81.3679 207.608C82.4584 207.822 83.4204 207.634 84.2541 207.043C85.1095 206.437 85.6587 205.516 85.9018 204.28C86.145 203.044 85.9836 201.993 85.4178 201.127C84.8738 200.246 84.0565 199.698 82.9661 199.484C81.8756 199.269 80.9027 199.465 80.0473 200.07C79.2136 200.661 78.6752 201.575 78.4321 202.811C78.189 204.047 78.3395 205.105 78.8835 205.986C79.4493 206.853 80.2774 207.393 81.3679 207.608ZM107.437 208.573C107.426 208.628 107.324 209.004 107.13 209.702L96.0345 207.52C96.0556 208.468 96.387 209.278 97.0284 209.952C97.6699 210.626 98.5449 211.072 99.6536 211.29C100.417 211.44 101.111 211.463 101.735 211.359C102.382 211.241 103.007 210.987 103.613 210.596L105.393 213.495C103.701 214.804 101.528 215.198 98.8742 214.676C97.2203 214.351 95.8198 213.745 94.6727 212.858C93.5292 211.954 92.7248 210.861 92.2594 209.58C91.794 208.299 91.7043 206.932 91.9904 205.478C92.2728 204.042 92.8629 202.818 93.7606 201.805C94.6801 200.778 95.793 200.063 97.0995 199.659C98.4277 199.24 99.8279 199.176 101.3 199.466C102.736 199.748 103.975 200.313 105.016 201.16C106.058 202.006 106.791 203.076 107.217 204.368C107.664 205.645 107.737 207.047 107.437 208.573ZM100.694 202.688C99.7312 202.499 98.8688 202.612 98.1073 203.029C97.3457 203.445 96.7993 204.112 96.468 205.028L103.692 206.449C103.729 205.494 103.474 204.679 102.927 204.005C102.384 203.313 101.64 202.874 100.694 202.688ZM117.492 202.651C119.763 203.098 121.401 203.986 122.404 205.316C123.411 206.628 123.7 208.375 123.271 210.556L121.624 218.925L117.644 218.142L118.003 216.315C116.935 217.521 115.311 217.91 113.13 217.48C112.003 217.259 111.059 216.875 110.298 216.329C109.556 215.786 109.032 215.136 108.728 214.378C108.425 213.619 108.357 212.813 108.525 211.959C108.793 210.596 109.513 209.624 110.684 209.042C111.874 208.465 113.541 208.387 115.686 208.809L119.066 209.474C119.248 208.547 119.106 207.782 118.639 207.181C118.176 206.561 117.381 206.141 116.254 205.919C115.473 205.765 114.675 205.74 113.862 205.845C113.07 205.934 112.37 206.136 111.76 206.451L110.818 203.179C111.729 202.773 112.769 202.524 113.938 202.433C115.126 202.346 116.31 202.419 117.492 202.651ZM114.756 214.827C115.483 214.97 116.161 214.934 116.789 214.717C117.42 214.483 117.918 214.062 118.283 213.454L118.578 211.954L115.661 211.381C113.916 211.037 112.931 211.438 112.706 212.583C112.599 213.128 112.722 213.606 113.076 214.015C113.451 214.41 114.011 214.681 114.756 214.827ZM139.84 210.898L134.878 209.922L132.679 221.1L128.454 220.268L130.653 209.091L125.691 208.115L126.377 204.626L140.526 207.409L139.84 210.898ZM142.793 207.855L147.019 208.686L145.303 217.41L154.161 210.091L158.06 210.858L155.174 225.525L150.949 224.694L152.665 215.97L143.834 223.294L139.908 222.522L142.793 207.855ZM171.974 220.873C173.586 221.794 174.221 223.127 173.878 224.872C173.617 226.199 172.915 227.127 171.772 227.658C170.63 228.188 169.068 228.258 167.087 227.868L159.263 226.329L162.148 211.662L169.645 213.137C171.481 213.498 172.85 214.117 173.754 214.993C174.661 215.851 174.997 216.88 174.761 218.08C174.618 218.807 174.3 219.414 173.807 219.903C173.337 220.376 172.726 220.7 171.974 220.873ZM164.861 218.454L168.078 219.087C169.568 219.38 170.417 219 170.625 217.946C170.828 216.91 170.185 216.245 168.695 215.952L165.478 215.319L164.861 218.454ZM167.301 224.909C168.864 225.217 169.751 224.834 169.962 223.762C170.073 223.198 169.971 222.754 169.658 222.428C169.348 222.084 168.802 221.835 168.021 221.681L164.368 220.962L163.73 224.206L167.301 224.909ZM179.107 214.999L183.332 215.83L182.206 221.555L188.585 222.81L189.711 217.085L193.964 217.922L191.079 232.588L186.826 231.752L187.904 226.272L181.525 225.017L180.447 230.497L176.221 229.665L179.107 214.999ZM201.977 234.959C200.432 234.655 199.105 234.063 197.994 233.184C196.905 232.29 196.128 231.203 195.662 229.922C195.197 228.641 195.107 227.274 195.393 225.82C195.679 224.366 196.28 223.134 197.196 222.125C198.112 221.116 199.241 220.413 200.584 220.017C201.949 219.606 203.404 219.552 204.948 219.856C206.493 220.16 207.81 220.759 208.899 221.652C209.992 222.528 210.771 223.606 211.236 224.887C211.701 226.168 211.791 227.535 211.505 228.989C211.219 230.443 210.618 231.675 209.702 232.684C208.786 233.693 207.655 234.405 206.309 234.82C204.966 235.216 203.522 235.263 201.977 234.959ZM202.664 231.469C203.754 231.684 204.716 231.496 205.55 230.904C206.405 230.299 206.955 229.378 207.198 228.142C207.441 226.906 207.279 225.855 206.714 224.989C206.17 224.108 205.352 223.56 204.262 223.345C203.171 223.131 202.198 223.326 201.343 223.932C200.491 224.52 199.944 225.431 199.701 226.667C199.458 227.903 199.617 228.963 200.179 229.848C200.745 230.714 201.573 231.255 202.664 231.469ZM219.924 238.489C218.361 238.182 217.015 237.587 215.886 236.704C214.779 235.806 213.983 234.716 213.5 233.431C213.034 232.15 212.945 230.783 213.231 229.329C213.517 227.875 214.118 226.643 215.033 225.634C215.967 224.629 217.115 223.929 218.476 223.536C219.859 223.129 221.332 223.079 222.895 223.386C224.439 223.69 225.72 224.282 226.736 225.161C227.774 226.026 228.439 227.11 228.73 228.414L225.083 229.537C224.584 228.042 223.617 227.153 222.181 226.87C221.072 226.652 220.083 226.835 219.213 227.419C218.343 228.003 217.785 228.922 217.538 230.176C217.291 231.43 217.46 232.492 218.044 233.362C218.628 234.232 219.474 234.776 220.583 234.994C222.037 235.28 223.269 234.824 224.278 233.626L227.223 236.074C226.467 237.134 225.443 237.876 224.151 238.302C222.878 238.731 221.468 238.793 219.924 238.489ZM243.589 231.308L238.627 230.332L236.428 241.51L232.203 240.678L234.402 229.501L229.44 228.525L230.126 225.035L244.275 227.819L243.589 231.308ZM253.553 234.514C255.458 234.908 256.835 235.632 257.685 236.686C258.538 237.723 258.813 239.013 258.509 240.558C258.191 242.176 257.37 243.326 256.046 244.01C254.744 244.679 253.066 244.811 251.012 244.407L243.657 242.932L246.542 228.265L250.768 229.096L249.845 233.785L253.553 234.514ZM251.226 241.306C252.04 241.485 252.701 241.436 253.209 241.158C253.716 240.88 254.042 240.378 254.185 239.651C254.324 238.942 254.208 238.381 253.836 237.968C253.483 237.559 252.89 237.263 252.057 237.08L249.309 236.511L248.472 240.764L251.226 241.306Z" fill="#602B7A"/>
<path d="M318.708 178.209L316.686 179.197L319.174 184.29L315.279 186.192L308.718 172.761L312.613 170.859L315.162 176.076L317.259 175.052L318.355 168.054L322.499 166.029L320.952 174.763L329.384 179.302L324.791 181.546L318.708 178.209ZM337.271 175.697C335.856 176.388 334.441 176.718 333.024 176.689C331.617 176.634 330.34 176.237 329.196 175.498C328.051 174.758 327.154 173.723 326.503 172.391C325.853 171.06 325.588 169.715 325.708 168.358C325.828 167 326.304 165.758 327.134 164.631C327.973 163.479 329.1 162.557 330.515 161.866C331.929 161.175 333.341 160.857 334.748 160.911C336.148 160.949 337.42 161.338 338.565 162.077C339.709 162.817 340.607 163.852 341.257 165.184C341.908 166.515 342.173 167.86 342.053 169.217C341.932 170.575 341.461 171.825 340.639 172.969C339.808 174.096 338.686 175.006 337.271 175.697ZM335.71 172.501C336.709 172.013 337.361 171.282 337.669 170.307C337.984 169.308 337.866 168.242 337.313 167.111C336.76 165.979 335.997 165.239 335.022 164.89C334.056 164.517 333.074 164.574 332.076 165.062C331.077 165.549 330.42 166.293 330.104 167.293C329.78 168.275 329.895 169.333 330.448 170.464C331.001 171.596 331.768 172.345 332.751 172.71C333.725 173.059 334.711 172.989 335.71 172.501ZM360.323 164.188L356.396 156.15L355.67 164.853L354.022 165.658L346.798 160.808L350.737 168.871L347.217 170.591L340.655 157.16L344.725 155.172L352.811 160.838L353.587 150.842L357.232 149.062L363.843 162.469L360.323 164.188ZM380.68 154.244L376.753 146.205L376.027 154.909L374.379 155.714L367.154 150.863L371.094 158.927L367.574 160.646L361.012 147.215L365.082 145.227L373.168 150.894L373.944 140.898L377.589 139.117L384.2 152.524L380.68 154.244ZM394.825 130.697L395.723 147.916C395.863 149.764 395.63 151.229 395.023 152.308C394.434 153.38 393.498 154.228 392.216 154.854C391.517 155.196 390.774 155.425 389.986 155.542C389.198 155.659 388.494 155.632 387.874 155.46L387.943 151.994C388.373 152.114 388.816 152.156 389.272 152.118C389.744 152.073 390.172 151.957 390.555 151.77C391.088 151.51 391.455 151.165 391.658 150.736C391.869 150.324 391.961 149.753 391.935 149.024L391.924 148.875L379.497 138.185L383.516 136.222L391.737 143.493L391.081 132.527L394.825 130.697ZM396.704 129.78L400.574 127.889L403.135 133.132L408.977 130.278L406.415 125.036L410.31 123.133L416.871 136.564L412.977 138.467L410.525 133.449L404.684 136.302L407.135 141.32L403.265 143.211L396.704 129.78ZM414.038 121.312L417.908 119.422L421.81 127.41L424.448 116.226L428.018 114.483L434.579 127.914L430.71 129.804L426.807 121.815L424.194 132.987L420.599 134.743L414.038 121.312ZM441.752 118.102L439.73 119.089L442.218 124.182L438.323 126.085L431.762 112.654L435.657 110.751L438.205 115.969L440.302 114.944L441.398 107.946L445.543 105.922L443.996 114.655L452.428 119.194L447.835 121.438L441.752 118.102ZM452.656 102.2C454.736 101.183 456.578 100.902 458.181 101.356C459.775 101.793 461.061 103.01 462.036 105.008L465.78 112.672L462.135 114.452L461.318 112.78C461.196 114.386 460.136 115.676 458.139 116.652C457.107 117.156 456.123 117.42 455.186 117.445C454.267 117.461 453.457 117.259 452.757 116.838C452.056 116.418 451.515 115.816 451.133 115.034C450.523 113.786 450.51 112.576 451.092 111.405C451.691 110.226 452.973 109.157 454.936 108.198L458.032 106.685C457.617 105.837 457.042 105.314 456.307 105.116C455.563 104.902 454.676 105.047 453.644 105.551C452.928 105.901 452.278 106.363 451.692 106.938C451.116 107.487 450.68 108.071 450.384 108.69L447.657 106.652C448.137 105.778 448.816 104.952 449.693 104.173C450.586 103.386 451.574 102.728 452.656 102.2ZM457.832 113.555C458.498 113.23 459.015 112.792 459.385 112.24C459.746 111.672 459.889 111.035 459.813 110.33L459.142 108.957L456.471 110.262C454.873 111.043 454.33 111.957 454.842 113.006C455.086 113.505 455.473 113.811 456.002 113.923C456.54 114.011 457.15 113.889 457.832 113.555ZM482.731 100.433L485.731 106.575L482.111 108.343L480.672 105.397L469.163 111.019L462.602 97.5881L466.472 95.6978L471.472 105.933L476.889 103.287L471.889 93.0514L475.784 91.149L480.784 101.384L482.731 100.433ZM480.18 89.0013L484.05 87.1111L487.952 95.0998L490.59 83.9159L494.16 82.1719L500.721 95.6029L496.852 97.4932L492.949 89.5045L490.336 100.676L486.741 102.432L480.18 89.0013ZM497.904 80.3431L501.773 78.4528L505.676 86.4415L508.314 75.2576L511.884 73.5137L518.445 86.9447L514.576 88.835L510.673 80.8463L508.06 92.018L504.465 93.7741L497.904 80.3431Z" fill="#602B7A"/>
<path d="M364.764 211.332L362.552 211.748L363.6 217.318L359.341 218.12L356.577 203.429L360.836 202.628L361.91 208.335L364.204 207.903L367.117 201.446L371.649 200.594L367.841 208.604L374.768 215.217L369.744 216.162L364.764 211.332ZM383.328 213.833C381.781 214.124 380.329 214.067 378.971 213.663C377.628 213.237 376.503 212.516 375.595 211.499C374.688 210.482 374.097 209.246 373.823 207.79C373.549 206.333 373.65 204.967 374.126 203.69C374.602 202.413 375.39 201.341 376.49 200.475C377.604 199.586 378.935 198.997 380.482 198.706C382.03 198.414 383.475 198.482 384.818 198.908C386.157 199.315 387.281 200.027 388.188 201.044C389.096 202.061 389.686 203.297 389.96 204.754C390.234 206.21 390.133 207.576 389.657 208.853C389.182 210.13 388.395 211.211 387.299 212.096C386.199 212.963 384.876 213.541 383.328 213.833ZM382.671 210.338C383.763 210.132 384.587 209.6 385.141 208.742C385.711 207.862 385.879 206.803 385.646 205.565C385.413 204.327 384.873 203.411 384.027 202.817C383.194 202.2 382.232 201.995 381.14 202.201C380.048 202.406 379.217 202.949 378.647 203.829C378.074 204.69 377.904 205.74 378.137 206.978C378.37 208.216 378.912 209.141 379.762 209.754C380.609 210.348 381.579 210.543 382.671 210.338ZM408.607 208.85L406.953 200.058L403.944 208.258L402.142 208.597L396.463 202.004L398.122 210.823L394.272 211.547L391.508 196.857L395.959 196.02L402.253 203.628L405.652 194.196L409.639 193.446L412.457 208.126L408.607 208.85ZM419.439 191.376C421.715 190.948 423.565 191.165 424.99 192.028C426.412 192.873 427.328 194.387 427.739 196.571L429.316 204.954L425.33 205.704L424.986 203.875C424.442 205.391 423.077 206.354 420.893 206.765C419.764 206.977 418.745 206.971 417.836 206.747C416.945 206.518 416.218 206.109 415.654 205.517C415.09 204.926 414.728 204.203 414.567 203.347C414.31 201.982 414.618 200.812 415.49 199.837C416.38 198.859 417.9 198.168 420.048 197.764L423.433 197.127C423.259 196.199 422.843 195.542 422.186 195.157C421.526 194.753 420.632 194.657 419.503 194.87C418.72 195.017 417.971 195.29 417.254 195.689C416.552 196.066 415.977 196.513 415.528 197.031L413.439 194.343C414.133 193.628 415.007 193.011 416.059 192.493C417.129 191.971 418.256 191.599 419.439 191.376ZM421.418 203.698C422.147 203.561 422.762 203.275 423.265 202.842C423.764 202.389 424.07 201.814 424.183 201.114L423.901 199.612L420.979 200.162C419.232 200.49 418.466 201.228 418.682 202.375C418.784 202.921 419.076 203.319 419.556 203.567C420.051 203.795 420.672 203.838 421.418 203.698ZM430.253 189.568L434.485 188.772L435.564 194.506L441.953 193.303L440.875 187.569L445.134 186.768L447.898 201.458L443.638 202.26L442.606 196.771L436.216 197.973L437.249 203.462L433.017 204.258L430.253 189.568ZM467.783 194.098L469.037 200.761L465.077 201.506L464.481 198.338L454.16 200.28L454.756 203.447L450.797 204.192L449.543 197.53L450.144 197.417C451.051 197.227 451.578 196.572 451.725 195.451C451.872 194.33 451.808 192.788 451.533 190.823L450.768 185.708L463.574 183.299L465.681 194.494L467.783 194.098ZM455.439 190.399C455.665 191.902 455.777 193.144 455.773 194.124C455.787 195.102 455.604 195.881 455.223 196.461L461.421 195.295L459.972 187.595L455.167 188.499L455.439 190.399ZM468.357 182.399L472.59 181.602L473.669 187.337L480.058 186.134L478.979 180.4L483.239 179.599L486.003 194.289L481.743 195.09L480.71 189.602L474.321 190.804L475.354 196.293L471.121 197.089L468.357 182.399ZM492.982 177.54C495.258 177.111 497.108 177.329 498.533 178.192C499.955 179.036 500.871 180.551 501.282 182.735L502.859 191.118L498.873 191.868L498.528 190.038C497.984 191.554 496.62 192.518 494.436 192.929C493.307 193.141 492.288 193.135 491.379 192.91C490.488 192.682 489.76 192.272 489.197 191.681C488.633 191.09 488.271 190.366 488.11 189.511C487.853 188.145 488.161 186.975 489.033 186.001C489.923 185.023 491.442 184.332 493.59 183.928L496.976 183.291C496.801 182.362 496.386 181.705 495.729 181.32C495.069 180.917 494.174 180.821 493.046 181.033C492.263 181.181 491.513 181.454 490.797 181.852C490.095 182.229 489.519 182.677 489.07 183.195L486.981 180.506C487.676 179.791 488.55 179.175 489.602 178.656C490.672 178.134 491.799 177.762 492.982 177.54ZM494.961 189.861C495.689 189.724 496.305 189.439 496.807 189.005C497.307 188.553 497.613 187.977 497.726 187.277L497.444 185.775L494.522 186.325C492.774 186.654 492.009 187.392 492.224 188.539C492.327 189.085 492.619 189.482 493.099 189.731C493.594 189.958 494.215 190.002 494.961 189.861ZM516.847 173.276L519.611 187.966L515.816 188.68L515.025 184.475L511.885 185.066L509.891 189.795L505.358 190.648L507.812 185.21C506.718 185.001 505.827 184.575 505.14 183.932C504.469 183.266 504.032 182.397 503.83 181.323C503.504 179.593 503.873 178.148 504.936 176.987C506.014 175.804 507.646 175.007 509.83 174.596L516.847 173.276ZM510.564 178.048C509.654 178.22 508.993 178.514 508.582 178.93C508.188 179.344 508.06 179.914 508.197 180.642C508.334 181.371 508.653 181.866 509.155 182.13C509.672 182.372 510.386 182.408 511.296 182.236L514.49 181.635L513.704 177.458L510.564 178.048ZM400.999 220.284C402.364 220.027 403.662 220.113 404.892 220.541C406.137 220.948 407.186 221.664 408.039 222.691C408.889 223.7 409.455 224.96 409.74 226.471C410.024 227.982 409.955 229.371 409.534 230.637C409.109 231.886 408.393 232.935 407.384 233.784C406.39 234.612 405.21 235.154 403.845 235.411C401.97 235.764 400.384 235.45 399.088 234.469L400.377 241.322L396.117 242.124L392.357 222.136L396.425 221.371L396.744 223.064C397.56 221.591 398.978 220.664 400.999 220.284ZM402.45 232.055C403.542 231.849 404.366 231.317 404.921 230.459C405.49 229.579 405.658 228.52 405.426 227.283C405.193 226.045 404.653 225.129 403.806 224.534C402.974 223.918 402.011 223.712 400.919 223.918C399.827 224.123 398.996 224.666 398.427 225.546C397.872 226.404 397.711 227.452 397.944 228.69C398.177 229.928 398.709 230.855 399.541 231.471C400.388 232.066 401.358 232.26 402.45 232.055ZM416.769 217.317C419.044 216.889 420.895 217.106 422.32 217.969C423.741 218.814 424.658 220.328 425.069 222.513L426.646 230.895L422.659 231.645L422.315 229.816C421.771 231.332 420.407 232.295 418.222 232.706C417.094 232.919 416.075 232.912 415.166 232.688C414.275 232.459 413.547 232.05 412.984 231.458C412.42 230.867 412.058 230.144 411.897 229.288C411.64 227.923 411.947 226.753 412.82 225.778C413.71 224.8 415.229 224.109 417.377 223.705L420.763 223.068C420.588 222.14 420.173 221.483 419.516 221.098C418.856 220.694 417.961 220.599 416.833 220.811C416.05 220.958 415.3 221.231 414.584 221.63C413.882 222.007 413.306 222.454 412.857 222.972L410.768 220.284C411.463 219.569 412.336 218.952 413.389 218.434C414.459 217.912 415.586 217.54 416.769 217.317ZM418.748 229.639C419.476 229.502 420.091 229.216 420.594 228.783C421.093 228.331 421.4 227.755 421.513 227.055L421.23 225.553L418.309 226.103C416.561 226.431 415.795 227.169 416.011 228.316C416.114 228.862 416.405 229.26 416.886 229.509C417.381 229.736 418.002 229.779 418.748 229.639ZM436.264 214.921C437.666 214.658 438.95 214.718 440.115 215.102C441.277 215.467 442.238 216.116 442.997 217.047C443.775 217.975 444.292 219.122 444.549 220.487C444.813 221.889 444.702 223.201 444.215 224.423C443.744 225.624 442.955 226.639 441.848 227.47C440.738 228.282 439.409 228.833 437.862 229.124C435.295 229.607 433.121 229.168 431.338 227.807C429.57 226.425 428.386 224.141 427.787 220.955C427.232 218.006 427.428 215.538 428.373 213.551C429.333 211.542 431.091 210.014 433.646 208.968L440.374 206.26L441.636 209.811L435.696 212.201C434.083 212.844 432.939 213.625 432.263 214.543C431.606 215.459 431.337 216.631 431.455 218.06C431.962 217.248 432.627 216.576 433.451 216.045C434.271 215.494 435.209 215.12 436.264 214.921ZM437.268 225.815C438.36 225.61 439.167 225.09 439.689 224.257C440.229 223.42 440.396 222.456 440.191 221.364C439.982 220.253 439.479 219.434 438.682 218.905C437.903 218.373 436.968 218.21 435.876 218.415C434.765 218.624 433.935 219.12 433.385 219.902C432.834 220.684 432.664 221.63 432.873 222.741C433.082 223.851 433.599 224.696 434.424 225.276C435.246 225.837 436.194 226.017 437.268 225.815ZM455.641 225.666C454.093 225.957 452.641 225.901 451.283 225.497C449.94 225.071 448.815 224.349 447.907 223.333C447 222.316 446.409 221.08 446.135 219.623C445.861 218.167 445.962 216.8 446.438 215.523C446.914 214.247 447.702 213.175 448.802 212.308C449.916 211.42 451.247 210.83 452.795 210.539C454.342 210.248 455.787 210.315 457.13 210.741C458.469 211.149 459.593 211.861 460.5 212.878C461.408 213.894 461.999 215.131 462.273 216.587C462.547 218.044 462.446 219.41 461.97 220.687C461.494 221.964 460.707 223.045 459.611 223.93C458.511 224.796 457.188 225.375 455.641 225.666ZM454.983 222.171C456.075 221.966 456.899 221.434 457.453 220.576C458.023 219.696 458.191 218.637 457.958 217.399C457.725 216.161 457.186 215.245 456.339 214.65C455.506 214.034 454.544 213.829 453.452 214.034C452.36 214.24 451.529 214.782 450.96 215.662C450.387 216.524 450.217 217.574 450.449 218.812C450.682 220.05 451.224 220.975 452.074 221.588C452.921 222.182 453.891 222.377 454.983 222.171ZM476.287 209.964L471.317 210.899L473.423 222.094L469.191 222.891L467.085 211.696L462.115 212.631L461.458 209.135L475.629 206.469L476.287 209.964ZM483.565 204.75C485.841 204.322 487.691 204.539 489.116 205.402C490.538 206.246 491.454 207.761 491.865 209.945L493.442 218.328L489.456 219.078L489.112 217.249C488.567 218.765 487.203 219.728 485.019 220.139C483.89 220.351 482.871 220.345 481.962 220.12C481.071 219.892 480.344 219.482 479.78 218.891C479.216 218.3 478.854 217.576 478.693 216.721C478.436 215.356 478.744 214.186 479.616 213.211C480.506 212.233 482.025 211.542 484.173 211.138L487.559 210.501C487.385 209.573 486.969 208.916 486.312 208.53C485.652 208.127 484.758 208.031 483.629 208.244C482.846 208.391 482.097 208.664 481.38 209.063C480.678 209.44 480.103 209.887 479.654 210.405L477.564 207.717C478.259 207.002 479.133 206.385 480.185 205.867C481.255 205.345 482.382 204.973 483.565 204.75ZM485.544 217.072C486.272 216.935 486.888 216.649 487.39 216.215C487.89 215.763 488.196 215.187 488.309 214.488L488.027 212.986L485.105 213.535C483.358 213.864 482.592 214.602 482.808 215.749C482.91 216.295 483.202 216.692 483.682 216.941C484.177 217.169 484.798 217.212 485.544 217.072Z" fill="#602B7A"/>
<path d="M91.3414 101.655L89.189 100.998L87.5333 106.419L83.388 105.153L87.7545 90.8566L91.8998 92.1227L90.2035 97.6763L92.4356 98.3581L98.0115 93.9894L102.422 95.3367L95.3329 100.667L98.4014 109.738L93.5121 108.245L91.3414 101.655ZM113.292 98.4242C114.62 98.83 115.73 99.5079 116.622 100.458C117.536 101.396 118.133 102.517 118.412 103.823C118.696 105.11 118.614 106.49 118.165 107.96C117.716 109.43 117.011 110.629 116.05 111.555C115.095 112.464 113.973 113.061 112.685 113.346C111.421 113.618 110.124 113.551 108.795 113.145C106.971 112.588 105.712 111.574 105.018 110.103L102.981 116.773L98.8358 115.507L104.777 96.0558L108.736 97.2651L108.233 98.9126C109.639 97.9864 111.325 97.8236 113.292 98.4242ZM109.117 109.525C110.18 109.85 111.156 109.76 112.046 109.257C112.958 108.742 113.599 107.882 113.967 106.677C114.335 105.473 114.281 104.411 113.807 103.491C113.355 102.559 112.598 101.931 111.535 101.606C110.473 101.282 109.485 101.377 108.572 101.892C107.682 102.395 107.054 103.249 106.686 104.454C106.318 105.658 106.36 106.727 106.811 107.658C107.285 108.578 108.054 109.2 109.117 109.525ZM123.254 101.699L127.372 102.957L124.775 111.46L134.334 105.084L138.134 106.244L133.768 120.54L129.649 119.282L132.246 110.779L122.714 117.164L118.887 115.995L123.254 101.699ZM153.091 114.531L148.255 113.054L144.927 123.949L140.808 122.691L144.136 111.796L139.3 110.319L140.339 106.918L154.13 111.13L153.091 114.531ZM156.339 111.805L160.458 113.063L157.861 121.566L167.42 115.189L171.22 116.35L166.853 130.646L162.735 129.388L165.332 120.885L155.799 127.27L151.973 126.101L156.339 111.805ZM188.066 121.495L183.699 135.791L179.554 134.525L181.177 129.211C179.789 129.445 178.368 129.34 176.915 128.897C174.984 128.307 173.656 127.426 172.929 126.255C172.225 125.072 172.154 123.559 172.717 121.717L174.089 117.226L178.234 118.492L176.944 122.717C176.678 123.585 176.708 124.282 177.032 124.807C177.373 125.337 177.969 125.732 178.819 125.992C179.9 126.322 180.989 126.403 182.086 126.234L183.92 120.229L188.066 121.495ZM203.744 134.157C203.728 134.21 203.587 134.574 203.323 135.248L192.508 131.945C192.433 132.89 192.68 133.731 193.249 134.466C193.818 135.202 194.643 135.735 195.724 136.065C196.468 136.292 197.156 136.386 197.788 136.347C198.443 136.295 199.091 136.106 199.733 135.779L201.208 138.844C199.391 139.974 197.19 140.144 194.603 139.354C192.991 138.862 191.66 138.116 190.609 137.117C189.564 136.101 188.875 134.932 188.543 133.61C188.21 132.288 188.261 130.919 188.694 129.502C189.121 128.102 189.833 126.945 190.829 126.029C191.849 125.101 193.029 124.502 194.37 124.234C195.734 123.953 197.133 124.032 198.568 124.471C199.968 124.898 201.142 125.586 202.092 126.535C203.042 127.483 203.662 128.622 203.954 129.95C204.268 131.267 204.198 132.669 203.744 134.157ZM197.637 127.614C196.698 127.327 195.829 127.352 195.028 127.689C194.228 128.026 193.617 128.633 193.194 129.511L200.235 131.662C200.37 130.715 200.199 129.878 199.724 129.152C199.254 128.408 198.558 127.896 197.637 127.614ZM211.492 144.512C209.968 144.047 208.69 143.318 207.657 142.324C206.647 141.319 205.968 140.152 205.618 138.825C205.285 137.504 205.336 136.134 205.768 134.717C206.201 133.3 206.925 132.136 207.939 131.226C208.971 130.321 210.183 129.742 211.577 129.49C212.995 129.226 214.465 129.326 215.988 129.791C217.494 130.251 218.708 130.971 219.629 131.949C220.573 132.915 221.124 134.062 221.28 135.388L217.538 136.133C217.194 134.595 216.322 133.612 214.923 133.184C213.842 132.854 212.839 132.935 211.914 133.428C210.989 133.92 210.34 134.777 209.967 135.999C209.594 137.222 209.653 138.295 210.145 139.22C210.637 140.145 211.424 140.773 212.504 141.103C213.921 141.536 215.193 141.208 216.32 140.119L219 142.855C218.14 143.831 217.045 144.466 215.717 144.757C214.406 145.054 212.998 144.972 211.492 144.512ZM228.433 143.528L226.281 142.871L224.625 148.291L220.48 147.025L224.846 132.729L228.992 133.995L227.295 139.549L229.527 140.231L235.103 135.862L239.514 137.209L232.425 142.539L235.493 151.611L230.604 150.118L228.433 143.528ZM243.719 154.356C242.213 153.896 240.953 153.172 239.937 152.184C238.945 151.184 238.283 150.023 237.951 148.701C237.618 147.379 237.669 146.01 238.102 144.593C238.535 143.176 239.258 142.012 240.272 141.101C241.286 140.191 242.481 139.607 243.857 139.349C245.257 139.08 246.709 139.175 248.215 139.635C249.721 140.095 250.97 140.825 251.962 141.825C252.96 142.807 253.625 143.959 253.957 145.281C254.289 146.603 254.239 147.972 253.806 149.389C253.373 150.807 252.65 151.97 251.636 152.881C250.622 153.791 249.424 154.384 248.042 154.659C246.666 154.917 245.225 154.816 243.719 154.356ZM244.758 150.954C245.821 151.279 246.797 151.19 247.687 150.687C248.599 150.172 249.24 149.312 249.607 148.107C249.975 146.902 249.922 145.84 249.448 144.921C248.996 143.989 248.239 143.361 247.176 143.036C246.113 142.711 245.126 142.807 244.213 143.322C243.306 143.819 242.668 144.671 242.3 145.875C241.932 147.08 241.983 148.151 242.452 149.088C242.926 150.008 243.695 150.63 244.758 150.954ZM270.538 154.558C270.522 154.611 270.382 154.975 270.118 155.65L259.303 152.347C259.227 153.292 259.474 154.132 260.043 154.868C260.613 155.603 261.438 156.136 262.518 156.466C263.262 156.694 263.95 156.787 264.582 156.748C265.237 156.696 265.885 156.507 266.528 156.18L268.003 159.245C266.186 160.375 263.984 160.545 261.397 159.755C259.785 159.263 258.454 158.517 257.403 157.519C256.358 156.502 255.669 155.333 255.337 154.011C255.005 152.69 255.055 151.32 255.488 149.903C255.915 148.504 256.627 147.346 257.624 146.43C258.643 145.502 259.823 144.904 261.164 144.635C262.528 144.355 263.927 144.434 265.362 144.872C266.762 145.299 267.936 145.987 268.886 146.936C269.836 147.885 270.457 149.023 270.748 150.352C271.063 151.668 270.993 153.07 270.538 154.558ZM264.431 148.016C263.492 147.729 262.623 147.754 261.823 148.09C261.023 148.427 260.411 149.034 259.988 149.912L267.03 152.063C267.164 151.116 266.993 150.28 266.518 149.554C266.048 148.81 265.352 148.297 264.431 148.016ZM104.386 137.706L106.999 129.15L100.53 135.018L98.7759 134.482L96.8036 126.007L94.182 134.59L90.4353 133.445L94.8018 119.149L99.1331 120.472L101.179 130.132L108.566 123.353L112.446 124.538L108.133 138.851L104.386 137.706ZM122.594 132.635C124.448 133.221 125.73 134.067 126.437 135.174C127.145 136.281 127.266 137.596 126.801 139.12C126.314 140.714 125.398 141.78 124.052 142.318C122.706 142.856 121.041 142.822 119.057 142.216L112.103 140.063L116.47 125.767L120.588 127.025L119.192 131.596L122.594 132.635ZM131.191 130.264L135.31 131.522L130.943 145.818L126.824 144.56L131.191 130.264ZM119.586 139.153C120.378 139.414 121.04 139.433 121.574 139.208C122.107 138.984 122.482 138.517 122.698 137.809C122.909 137.118 122.851 136.548 122.523 136.099C122.213 135.656 121.653 135.301 120.844 135.034L118.381 134.253L117.115 138.398L119.586 139.153ZM161.121 139.406L156.755 153.702L134.939 147.038L139.305 132.742L143.424 134L140.097 144.895L144.853 146.348L148.181 135.453L152.299 136.711L148.972 147.606L153.675 149.042L157.003 138.148L161.121 139.406ZM178.811 144.809L174.444 159.104L170.299 157.838L173.627 146.944L169.109 145.564L168.205 148.048C167.561 149.904 166.908 151.409 166.245 152.562C165.583 153.716 164.825 154.549 163.971 155.063C163.117 155.577 162.123 155.661 160.989 155.314C160.387 155.13 159.702 154.805 158.934 154.338L160.185 151.002C160.458 151.124 160.656 151.204 160.78 151.242C161.4 151.431 161.929 151.35 162.365 150.999C162.825 150.636 163.213 150.125 163.53 149.467C163.853 148.791 164.217 147.885 164.622 146.75L166.587 141.075L178.811 144.809ZM194.495 157.472C194.479 157.525 194.338 157.889 194.074 158.564L183.259 155.26C183.184 156.206 183.43 157.046 184 157.782C184.569 158.517 185.394 159.05 186.475 159.38C187.219 159.607 187.907 159.701 188.539 159.662C189.194 159.61 189.842 159.421 190.484 159.094L191.959 162.159C190.142 163.289 187.94 163.459 185.354 162.669C183.742 162.177 182.411 161.431 181.36 160.432C180.315 159.416 179.626 158.247 179.294 156.925C178.961 155.604 179.012 154.234 179.445 152.817C179.872 151.417 180.584 150.26 181.58 149.344C182.6 148.416 183.78 147.818 185.121 147.549C186.485 147.269 187.884 147.347 189.319 147.786C190.718 148.213 191.893 148.901 192.843 149.85C193.793 150.798 194.413 151.937 194.705 153.265C195.019 154.582 194.949 155.984 194.495 157.472ZM188.388 150.929C187.449 150.643 186.579 150.668 185.779 151.004C184.979 151.341 184.368 151.948 183.945 152.826L190.986 154.977C191.121 154.03 190.95 153.194 190.475 152.467C190.005 151.723 189.309 151.211 188.388 150.929ZM199.872 151.241L203.991 152.499L202.286 158.08L208.504 159.979L210.208 154.399L214.354 155.665L209.987 169.961L205.842 168.694L207.473 163.353L201.255 161.454L199.624 166.795L195.505 165.537L199.872 151.241ZM218.322 156.877L222.441 158.135L219.844 166.638L229.403 160.261L233.203 161.422L228.836 175.718L224.717 174.46L227.314 165.956L217.782 172.341L213.955 171.173L218.322 156.877ZM248.885 174.085C248.869 174.138 248.729 174.502 248.465 175.176L237.65 171.873C237.574 172.818 237.821 173.659 238.39 174.394C238.96 175.13 239.785 175.663 240.865 175.993C241.609 176.22 242.297 176.314 242.929 176.275C243.584 176.223 244.232 176.034 244.875 175.707L246.35 178.772C244.533 179.902 242.331 180.072 239.744 179.282C238.132 178.79 236.801 178.044 235.75 177.045C234.705 176.029 234.016 174.86 233.684 173.538C233.352 172.216 233.402 170.847 233.835 169.43C234.262 168.03 234.974 166.873 235.971 165.957C236.99 165.029 238.17 164.43 239.511 164.162C240.875 163.881 242.274 163.96 243.709 164.398C245.109 164.826 246.283 165.514 247.233 166.463C248.183 167.411 248.804 168.55 249.095 169.878C249.41 171.194 249.34 172.597 248.885 174.085ZM242.778 167.542C241.839 167.255 240.97 167.28 240.17 167.617C239.37 167.954 238.758 168.561 238.335 169.439L245.377 171.59C245.511 170.643 245.34 169.806 244.865 169.08C244.395 168.336 243.699 167.823 242.778 167.542Z" fill="#602B7A"/>
</svg>
