<svg width="238" height="142" viewBox="0 0 238 142" fill="none" xmlns="http://www.w3.org/2000/svg">
<path d="M65.316 55.6998L100.756 104.595C102.29 106.711 100.957 109.692 98.3586 109.962L38.2945 116.207C35.696 116.477 33.7787 113.834 34.8439 111.448L59.4677 56.3079C60.5332 53.9246 63.783 53.5868 65.316 55.6998Z" fill="#602B7A"/>
<path d="M73.214 85.6364C73.8431 85.571 74.3769 86.1022 74.2139 86.7133C73.427 89.6645 70.884 91.969 67.6679 92.3034C64.4518 92.6378 61.4891 90.9057 60.112 88.1795C59.8268 87.615 60.2399 86.9853 60.869 86.9199L73.214 85.6364Z" fill="#F44C75"/>
<path d="M72.3182 80.0699C71.0603 80.278 69.9957 79.3888 69.9403 78.0837C69.885 76.7786 70.8599 75.5518 72.1178 75.3437C73.3757 75.1355 74.4404 76.0248 74.4957 77.3299C74.5511 78.635 73.5762 79.8617 72.3182 80.0699Z" fill="white"/>
<path d="M59.8244 81.6165C58.5665 81.8246 57.5019 80.9353 57.4465 79.6303C57.3911 78.3252 58.3659 77.0986 59.6238 76.8905C60.8817 76.6824 61.9463 77.5716 62.0017 78.8767C62.057 80.1817 61.0822 81.4084 59.8244 81.6165Z" fill="white"/>
<path d="M69.6938 111.646L71.9499 138.638L77.6161 137.964" stroke="#602B7A" stroke-width="4" stroke-linecap="round" stroke-linejoin="round"/>
<path d="M59.6902 111.992L52.1744 138.014L57.7086 139.405" stroke="#602B7A" stroke-width="4" stroke-linecap="round" stroke-linejoin="round"/>
<path d="M50.0825 90.3154L14.4726 109.292M14.4726 109.292L4.89371 108.255M14.4726 109.292L2.16096 101.068M14.4726 109.292L6.70687 113.527" stroke="#602B7A" stroke-width="4" stroke-linecap="round" stroke-linejoin="round"/>
<path d="M86.0884 90.3154L121.698 109.292M121.698 109.292L131.277 108.255M121.698 109.292L134.01 101.068M121.698 109.292L129.464 113.527" stroke="#602B7A" stroke-width="4" stroke-linecap="round" stroke-linejoin="round"/>
<path d="M168.181 106.186L140.561 110.781M140.561 110.781L132.523 109.463M140.561 110.781L130.548 103.27M140.561 110.781L133.81 113.997" stroke="#8BD5FF" stroke-width="4" stroke-linecap="round" stroke-linejoin="round"/>
<path d="M193.761 106.186L224.992 110.781M224.992 110.781L233.03 109.463M224.992 110.781L235.005 103.27M224.992 110.781L231.743 113.997" stroke="#8BD5FF" stroke-width="4" stroke-linecap="round" stroke-linejoin="round"/>
<path d="M186.221 115.665L186.221 138.1L191.214 138.1" stroke="#8BD5FF" stroke-width="4" stroke-linecap="round" stroke-linejoin="round"/>
<path d="M175.632 115.215L176.581 138.095L171.757 138.126" stroke="#8BD5FF" stroke-width="4" stroke-linecap="round" stroke-linejoin="round"/>
<path d="M202.617 52.7921L180.406 38.0297C179.203 37.2297 179.219 35.4565 180.437 34.6786L200.049 22.1509C201.31 21.3459 202.975 22.1582 203.117 23.6469L205.715 50.9369C205.874 52.6127 204.019 53.7239 202.617 52.7921Z" fill="#4BAFE9"/>
<path d="M190.003 43.2525L179.29 37.1507C178.636 36.7782 178.612 35.8441 179.246 35.439L199.713 22.3659C200.571 21.8175 201.604 22.754 201.142 23.6621L191.389 42.8369C191.13 43.3457 190.499 43.535 190.003 43.2525Z" fill="#8BD5FF"/>
<path d="M141.696 69.1151L153.55 45.2253C154.192 43.9307 153.292 42.4032 151.848 42.3384L128.599 41.2954C127.105 41.2284 126.069 42.7647 126.69 44.1248L138.086 69.0575C138.785 70.5885 140.948 70.623 141.696 69.1151Z" fill="#4BAFE9"/>
<path d="M147.344 54.6834L153.571 44.0425C153.951 43.3929 153.505 42.5721 152.753 42.5384L128.492 41.4501C127.474 41.4044 127.048 42.7319 127.902 43.2873L145.936 55.0166C146.414 55.3279 147.056 55.1761 147.344 54.6834Z" fill="#8BD5FF"/>
<circle cx="174.138" cy="68.3608" r="36.1115" transform="rotate(-15 174.138 68.3608)" fill="#8BD5FF"/>
<circle cx="192.686" cy="64.3257" r="7.22229" transform="rotate(-15 192.686 64.3257)" fill="#4BAFE9"/>
<circle cx="156.058" cy="74.1401" r="7.22229" transform="rotate(-15 156.058 74.1401)" fill="#4BAFE9"/>
<path d="M170.434 82.4395C170.434 82.4395 173.984 85.2266 178.344 84.0583C182.705 82.89 184.386 78.7009 184.386 78.7009" stroke="#602B7A" stroke-width="3" stroke-linecap="round" stroke-linejoin="round"/>
<path d="M154.424 68.0352C154.424 68.0352 153.925 64.4302 157.413 63.4956C160.901 62.561 162.272 65.9322 162.272 65.9322" stroke="#602B7A" stroke-width="3" stroke-linecap="round" stroke-linejoin="round"/>
<path d="M183.203 60.3262C183.203 60.3262 182.705 56.7212 186.193 55.7866C189.681 54.852 191.051 58.2232 191.051 58.2232" stroke="#602B7A" stroke-width="3" stroke-linecap="round" stroke-linejoin="round"/>
<rect x="168.61" y="65.1699" width="9.02787" height="10.8334" rx="4.51393" transform="rotate(-15 168.61 65.1699)" fill="#C367D2"/>
<path d="M198.789 62.6912L211.807 55.4646" stroke="#602B7A" stroke-width="3" stroke-linecap="round" stroke-linejoin="round"/>
<path d="M200.83 66.8189L214.261 64.6221" stroke="#602B7A" stroke-width="3" stroke-linecap="round" stroke-linejoin="round"/>
<path d="M149.957 75.7752L135.07 76.0256" stroke="#602B7A" stroke-width="3" stroke-linecap="round" stroke-linejoin="round"/>
<path d="M150.253 80.3697L137.523 85.1826" stroke="#602B7A" stroke-width="3" stroke-linecap="round" stroke-linejoin="round"/>
<circle cx="180.671" cy="112.506" r="16.2502" fill="#8BD5FF"/>
<path d="M72.2983 22.659C72.7636 21.7393 74.1476 22.0397 74.1898 23.0696L74.3591 27.2105C74.3737 27.5665 74.5766 27.8879 74.8917 28.0541L78.5614 29.9898C79.4571 30.4623 79.1637 31.814 78.1527 31.8726L74.0108 32.1127C73.6551 32.1333 73.3372 32.3417 73.1764 32.6596L71.3055 36.3577C70.8402 37.2774 69.4561 36.977 69.414 35.9471L69.2446 31.8062C69.2301 31.4502 69.0272 31.1288 68.712 30.9626L65.0424 29.0269C64.1466 28.5544 64.44 27.2027 65.451 27.1441L69.593 26.904C69.9487 26.8834 70.2665 26.675 70.4274 26.3571L72.2983 22.659Z" fill="#1C90D2"/>
<path d="M112.87 4.9261C113.219 3.95607 114.629 4.08374 114.798 5.10058L116.078 12.8181C116.136 13.1696 116.377 13.4636 116.711 13.5897L123.932 16.3236C124.879 16.6821 124.754 18.0597 123.758 18.2424L116.163 19.6352C115.813 19.6994 115.523 19.9453 115.403 20.2807L112.758 27.6429C112.409 28.613 110.999 28.4853 110.83 27.4684L109.55 19.7509C109.492 19.3994 109.251 19.1055 108.918 18.9793L101.697 16.2455C100.749 15.8869 100.874 14.5093 101.87 14.3267L109.465 12.9339C109.815 12.8696 110.105 12.6237 110.226 12.2884L112.87 4.9261Z" fill="#CEECEF"/>
<path d="M93.3429 44.337C93.5062 43.3193 94.916 43.1842 95.2696 44.1523L95.9355 45.9757C96.0577 46.3104 96.3488 46.5548 96.6996 46.6172L98.6779 46.9692C99.675 47.1466 99.8069 48.5235 98.8617 48.8871L96.9863 49.6084C96.6537 49.7364 96.4144 50.0316 96.3579 50.3834L96.0504 52.3001C95.8871 53.3178 94.4773 53.4529 94.1237 52.4847L93.4578 50.6613C93.3356 50.3266 93.0445 50.0823 92.6937 50.0198L90.7154 49.6678C89.7183 49.4904 89.5864 48.1135 90.5316 47.7499L92.407 47.0286C92.7396 46.9007 92.9789 46.6055 93.0354 46.2537L93.3429 44.337Z" fill="#F55277"/>
</svg>
