<svg width="181" height="160" viewBox="0 0 181 160" fill="none" xmlns="http://www.w3.org/2000/svg">
<path d="M119.504 94.5653L100.877 82.4505M100.877 82.4505L95.8745 76.3313M100.877 82.4505L98.4143 70.5572M100.877 82.4505L93.9 80.4561" stroke="#602B7A" stroke-width="4" stroke-linecap="round" stroke-linejoin="round"/>
<path d="M123.263 123.176C123.263 123.176 111.002 122.221 111.133 128.779C111.263 135.338 115.263 148.265 115.263 148.265L109.591 147.198" stroke="#602B7A" stroke-width="4" stroke-linecap="round" stroke-linejoin="round"/>
<path d="M117.215 66.0014C117.222 65.4587 117.337 64.9227 117.553 64.4247L119.776 59.298C120.434 57.7817 121.938 56.8088 123.591 56.8306L131.57 56.9359C133.833 56.9658 135.644 58.8249 135.614 61.0883L134.694 130.739C134.664 133.002 132.805 134.813 130.542 134.783L120.407 134.649C118.144 134.62 116.333 132.76 116.363 130.497L117.215 66.0014Z" fill="#F55277"/>
<rect x="122.729" y="55.7422" width="11.6793" height="25.1478" rx="2.73241" transform="rotate(54.2559 122.729 55.7422)" fill="#F55277"/>
<path d="M129.101 55.8644C129.097 55.8106 129.091 55.7574 129.083 55.7051C128.916 54.5845 128.22 53.5378 127.23 52.9856C126.193 52.406 124.907 52.3458 123.781 52.7169C122.627 53.097 121.722 53.8785 120.982 54.8175C120.462 55.4753 119.58 56.3785 120.315 57.2578C120.437 57.4035 120.602 57.5087 120.78 57.5764C121.85 57.9878 122.434 57.1121 123.01 56.3924C123.812 55.3901 125.634 54.4419 126.456 56.0065C126.59 56.2607 126.599 56.5623 126.699 56.8316C126.876 57.3084 127.363 57.6518 127.871 57.66C128.784 57.6762 129.152 56.6479 129.101 55.8644Z" fill="#5F2583"/>
<path d="M129.022 52.9313C129.203 53.6418 129.28 54.3911 129.192 55.1214C129.124 55.6867 128.945 56.5795 128.531 56.9919C127.813 57.7093 126.884 57.053 126.649 56.2331C126.45 55.5461 126.738 54.7353 126.785 54.0402C126.833 53.3457 126.624 52.6572 126.155 52.1215C125.625 51.5158 124.796 51.2076 124.033 50.9841C123.445 50.8114 122.821 50.3758 122.812 49.6917C122.805 49.2507 123.085 48.8202 123.488 48.6445C123.927 48.4549 124.435 48.5605 124.885 48.7145C126.859 49.3869 128.497 50.8782 129.022 52.9313Z" fill="#5F2583"/>
<path d="M126.906 55.5134C126.792 55.5324 126.677 55.5337 126.563 55.5158C126.18 55.4518 125.872 55.1746 125.606 54.8939C125.226 54.4914 124.815 54.0825 124.295 53.8689C123.765 53.6505 123.236 53.7414 122.684 53.7259C122.267 53.7139 121.775 53.8566 121.38 53.6956C121.061 53.5651 120.834 53.2486 120.781 52.9066C120.657 52.121 121.245 51.5776 121.92 51.3503C122.858 51.0337 123.919 51.1374 124.836 51.4298C125.663 51.6938 126.471 52.2206 127.103 52.806C127.412 53.0932 127.784 53.4533 127.834 53.886C127.893 54.4011 127.856 54.9384 127.423 55.2832C127.275 55.4004 127.094 55.4819 126.906 55.5134Z" fill="#5F2583"/>
<path d="M117.962 73.0644C118.795 72.7077 119.653 72.3176 120.371 71.8289C120.743 71.576 121.057 71.3032 121.367 71.0283" stroke="#5F2583" stroke-width="1.09296" stroke-linecap="round" stroke-linejoin="round"/>
<path d="M129.006 128.217C129.006 128.217 122.874 134.349 123.518 137.779C124.162 141.209 127.692 154.935 127.692 154.935L121.998 157.125" stroke="#602B7A" stroke-width="4" stroke-linecap="round" stroke-linejoin="round"/>
<path d="M129.624 62.2067C130.408 62.6133 130.6 63.6275 130.02 64.3178C128.883 65.6719 126.807 67.6739 124.117 68.2293C121.426 68.7847 118.781 67.7584 117.241 66.9588C116.456 66.5522 116.265 65.538 116.844 64.8477C117.982 63.4936 120.057 61.4916 122.748 60.9362C125.438 60.3808 128.083 61.4071 129.624 62.2067Z" fill="white"/>
<path d="M126.601 63.9374C126.271 62.1866 124.583 61.0528 122.832 61.4049C121.08 61.7571 119.927 63.4619 120.257 65.2127C120.587 66.9635 122.274 68.0973 124.026 67.7452C125.778 67.3931 126.931 65.6883 126.601 63.9374Z" fill="#1C90D2"/>
<path d="M124.889 64.2812C124.737 63.4752 123.96 62.9533 123.153 63.1156C122.346 63.2778 121.814 64.0627 121.966 64.8687C122.118 65.6747 122.896 66.1966 123.703 66.0343C124.51 65.8721 125.041 65.0872 124.889 64.2812Z" fill="#602B7A"/>
<path d="M48.1775 121.492C48.1775 121.492 53.5595 127.513 50.8687 132.029C48.1778 136.545 43.8049 142.136 43.8049 142.136L48.1775 143.641" stroke="#602B7A" stroke-width="3.1504" stroke-linecap="round" stroke-linejoin="round"/>
<path d="M66.8257 117.047C66.8257 117.047 74.746 118.624 75.3097 123.85C75.8734 129.077 75.739 136.174 75.739 136.174L80.1384 134.748" stroke="#602B7A" stroke-width="3.1504" stroke-linecap="round" stroke-linejoin="round"/>
<path fill-rule="evenodd" clip-rule="evenodd" d="M52.4473 43.6162L39.0705 45.5659C27.3369 47.2761 19.2113 58.1745 20.9215 69.9081L25.9513 104.417C27.6615 116.15 38.5598 124.276 50.2935 122.566L63.6703 120.616C75.4039 118.906 83.5295 108.007 81.8192 96.2738L76.7895 61.7651C75.0793 50.0315 64.1809 41.9059 52.4473 43.6162ZM54.729 59.2708C57.8168 58.8207 60.6848 60.9591 61.1348 64.0469L66.1646 98.5555C66.6146 101.643 64.4763 104.511 61.3885 104.961L48.0118 106.911C44.924 107.361 42.056 105.223 41.6059 102.135L36.5762 67.6264C36.1261 64.5386 38.2644 61.6706 41.3522 61.2205L54.729 59.2708Z" fill="#602B7A"/>
<path d="M60.7403 111.127C61.3694 111.061 61.9039 111.597 61.6774 112.188C61.0772 113.753 59.6378 114.933 57.8585 115.118C56.0793 115.303 54.4279 114.444 53.5186 113.036C53.1755 112.505 53.5882 111.87 54.2173 111.805L60.7403 111.127Z" fill="#F44C75"/>
<path d="M46.2295 45.538C46.2616 45.562 46.2983 45.5852 46.3325 45.6065C46.9611 45.9919 47.7836 45.7933 48.1663 45.1627L49.9977 42.1648L52.4637 44.7653C52.7543 45.0736 53.1746 45.2246 53.5964 45.1727C54.0181 45.1207 54.3873 44.8713 54.5958 44.5023L56.178 41.6933L57.7288 43.8238C57.956 44.1389 58.3144 44.3395 58.7004 44.3691C59.089 44.4007 59.4718 44.2615 59.7487 43.985L62.4907 41.2622L63.7677 44.525C63.8981 44.8637 64.1639 45.1327 64.4988 45.2699C64.8336 45.4071 65.2101 45.4047 65.5441 45.2583L69.4753 43.5428C70.1527 43.2485 70.4602 42.4619 70.1659 41.7845C69.8696 41.1097 69.085 40.7995 68.4075 41.0938L65.7479 42.2543L64.2382 38.3933C64.0748 37.9759 63.7101 37.6665 63.2719 37.573C62.8318 37.4821 62.3742 37.6156 62.0553 37.9316L58.9738 40.9924L57.1161 38.4416C56.848 38.0752 56.4122 37.8668 55.9583 37.8948C55.5044 37.9228 55.0953 38.1756 54.8741 38.5728L53.159 41.6158L50.7379 39.0612C50.4506 38.7596 50.0423 38.6092 49.6285 38.6504C49.2174 38.6936 48.8463 38.929 48.6283 39.2828L45.888 43.7679C45.5292 44.3664 45.6836 45.131 46.2295 45.538Z" fill="#5F2583"/>
<path d="M72.0001 77.3045L83.8265 74.9919L90.6269 65.1897M90.6269 65.1897L95.6293 59.0705M90.6269 65.1897L88.2067 59.0705M90.6269 65.1897L97.6038 63.1954" stroke="#602B7A" stroke-width="4" stroke-linecap="round" stroke-linejoin="round"/>
<path d="M28.7663 84.9637L10.1396 72.8489M10.1396 72.8489L5.13715 66.7297M10.1396 72.8489L7.67703 60.9556M10.1396 72.8489L3.16269 70.8546" stroke="#602B7A" stroke-width="4" stroke-linecap="round" stroke-linejoin="round"/>
<path d="M39.6716 51.7746C38.8919 52.5772 39.068 53.8721 40.0411 54.4691C41.9491 55.6404 45.2435 57.2144 48.6982 56.8042C52.153 56.394 54.919 54.1021 56.4493 52.5248C57.2289 51.7222 57.0528 50.4273 56.0797 49.8303C54.1717 48.659 50.8773 47.085 47.4226 47.4952C43.9678 47.9054 41.2018 50.1973 39.6716 51.7746Z" fill="white"/>
<path d="M43.9965 52.6447C43.6916 50.4095 45.2648 48.3718 47.5102 48.0933C49.7555 47.8149 51.8229 49.4012 52.1277 51.6364C52.4326 53.8716 50.8594 55.9093 48.6141 56.1877C46.3687 56.4662 44.3013 54.8799 43.9965 52.6447Z" fill="#1C90D2"/>
<path d="M46.188 52.3729C46.0476 51.3439 46.7725 50.4057 47.8071 50.2774C48.8416 50.1492 49.794 50.8793 49.9344 51.9083C50.0747 52.9373 49.3498 53.8755 48.3153 54.0038C47.2807 54.132 46.3283 53.4019 46.188 52.3729Z" fill="#602B7A"/>
<path d="M36 44.5005C35.9998 43.0006 38 39.0005 44.2632 40.9695" stroke="#602B7A" stroke-linecap="round" stroke-linejoin="round"/>
<path d="M131.196 94.1443L143.023 91.8317L149.823 82.0296M149.823 82.0296L154.826 75.9104M149.823 82.0296L147.403 75.9104M149.823 82.0296L156.8 80.0352" stroke="#602B7A" stroke-width="4" stroke-linecap="round" stroke-linejoin="round"/>
<path fill-rule="evenodd" clip-rule="evenodd" d="M149.654 45.6742C160.825 48.5571 172.218 41.8381 175.101 30.667C177.983 19.4958 171.265 8.10279 160.093 5.21991C148.922 2.33703 137.529 9.05601 134.646 20.2272C132.982 26.6763 134.518 33.1994 138.263 38.1163C138.469 38.3865 138.534 38.74 138.427 39.0623L135.254 48.615C134.944 49.5505 136.031 50.3237 136.813 49.7232L144.152 44.0849C144.469 43.8415 144.899 43.812 145.254 43.9956C146.625 44.7048 148.096 45.2723 149.654 45.6742Z" fill="#4BAFE9"/>
<path d="M157.996 31.4793C158.095 31.0944 158.414 30.8092 158.802 30.7214C162.465 29.8914 165.546 27.0914 166.549 23.2044C167.978 17.6659 164.647 12.0173 159.109 10.588C153.57 9.15868 147.921 12.4899 146.492 18.0284C145.489 21.9154 146.831 25.8568 149.634 28.3556C149.931 28.6201 150.072 29.024 149.973 29.4089L149.136 32.6528C148.998 33.1875 149.319 33.7329 149.854 33.8709L155.94 35.4416C156.475 35.5796 157.021 35.2579 157.159 34.7232L157.996 31.4793Z" fill="white"/>
<rect x="148.632" y="34.7832" width="8.2856" height="1.38093" rx="0.690467" transform="rotate(14.4703 148.632 34.7832)" fill="white"/>
<rect x="148.113" y="36.7891" width="8.2856" height="1.38093" rx="0.690467" transform="rotate(14.4703 148.113 36.7891)" fill="white"/>
<rect x="148.934" y="39.1387" width="5.52373" height="1.38093" rx="0.690467" transform="rotate(14.4703 148.934 39.1387)" fill="white"/>
<path d="M156.7 14.6084L154.147 25.4503C154.008 26.0418 154.424 26.6197 155.029 26.6753L155.379 26.7075C155.788 26.7451 156.179 26.5283 156.364 26.1609L161.419 16.1096C161.7 15.5503 161.404 14.873 160.803 14.6995L157.95 13.8767C157.401 13.7182 156.831 14.0518 156.7 14.6084Z" fill="#5F2583"/>
<circle cx="153.899" cy="29.9697" r="1.38093" transform="rotate(23.6855 153.899 29.9697)" fill="#5F2583"/>
</svg>
