<svg width="360" height="3236" viewBox="0 0 360 3236" fill="none" xmlns="http://www.w3.org/2000/svg">
<path d="M490 846C490 939.107 445.926 3089.02 376.5 3190C323.617 3266.92 262.026 3224 188 3224C113.974 3224 39.6349 3266.92 -14.0966 3190C-84.6367 3089.02 -130 939.107 -130 846C-130 681.971 8.79173 549 180 549C351.208 549 490 681.971 490 846Z" fill="#E7F6F7"/>
<g opacity="0.5">
<mask id="mask0" mask-type="alpha" maskUnits="userSpaceOnUse" x="29" y="-20" width="378" height="379">
<circle cx="218.079" cy="169.449" r="140.326" transform="rotate(117.15 218.079 169.449)" fill="#1C90D2"/>
</mask>
<g mask="url(#mask0)">
<rect x="217.107" y="377.844" width="28.2084" height="410.65" transform="rotate(-167.85 217.107 377.844)" fill="#CEECEF"/>
<rect x="190.256" y="350.393" width="28.2084" height="410.65" transform="rotate(-167.85 190.256 350.393)" fill="#CEECEF"/>
<rect x="153.377" y="351.426" width="27.4747" height="410.65" transform="rotate(-167.85 153.377 351.426)" fill="#CEECEF"/>
<rect x="104.34" y="356.607" width="23.1306" height="410.65" transform="rotate(-167.85 104.34 356.607)" fill="#CEECEF"/>
<rect x="63.0869" y="362.041" width="17.9958" height="410.65" transform="rotate(-167.85 63.0869 362.041)" fill="#CEECEF"/>
<rect x="251.844" y="387.469" width="33.7991" height="410.65" transform="rotate(-167.85 251.844 387.469)" fill="#CEECEF"/>
<rect x="312.306" y="304.559" width="40.8935" height="237.57" transform="rotate(-167.85 312.306 304.559)" fill="#CEECEF"/>
<rect x="326.282" y="417.529" width="36.8143" height="410.65" transform="rotate(-167.85 326.282 417.529)" fill="#CEECEF"/>
<circle r="119.409" transform="matrix(0.456324 -0.889814 -0.889814 -0.456324 210.029 187.195)" fill="white"/>
</g>
<mask id="mask1" mask-type="alpha" maskUnits="userSpaceOnUse" x="20" y="176" width="257" height="258">
<circle cx="148.531" cy="305.064" r="95.3642" transform="rotate(117.15 148.531 305.064)" fill="#FAAB45"/>
</mask>
<g mask="url(#mask1)">
<path d="M225.311 226.077L262.634 259.86L220.735 261.946L258.096 295.763L216.16 297.851L253.389 331.548L211.58 333.63L248.817 367.336L207.144 369.41" stroke="#CEECEF" stroke-width="9.81974"/>
<path d="M179.521 209.353L216.844 243.137L174.945 245.222L212.306 279.04L170.37 281.127L207.599 314.825L165.79 316.906L203.027 350.612L161.353 352.687L198.444 386.26L156.766 388.335L194.011 422.047L152.186 424.129L189.281 457.706L147.671 459.777L182.911 491.675" stroke="#CEECEF" stroke-width="9.81974"/>
<path d="M133.731 192.631L171.054 226.414L129.155 228.5L166.516 262.317L124.58 264.405L161.809 298.102L119.999 300.183L157.237 333.889L115.563 335.964L152.654 369.537L110.976 371.612L148.221 405.325L106.396 407.407L143.491 440.983L101.881 443.054L137.121 474.953" stroke="#CEECEF" stroke-width="9.81974"/>
<path d="M87.9411 175.906L125.264 209.689L83.3648 211.775L120.725 245.592L78.7903 247.68L116.018 281.378L74.2095 283.459L111.447 317.165L69.7733 319.239L106.864 352.813L65.186 354.887L102.431 388.6L60.606 390.682L97.7005 424.259L56.091 426.33L91.3313 458.228" stroke="#CEECEF" stroke-width="9.81974"/>
<path d="M70.2279 264.655L28.4189 266.736L65.6566 300.442L23.9828 302.517L61.0738 336.09L19.3954 338.165L56.6402 371.877L14.8154 373.959L51.91 407.536L10.3004 409.607L45.5408 441.505" stroke="#CEECEF" stroke-width="9.81974"/>
<path d="M-3.639 142.461L33.6839 176.244L-8.21529 178.33L29.1454 212.147L-12.7898 214.235L24.4384 247.932L-17.3706 250.013L19.8671 283.72L-21.8067 285.794L15.2843 319.367L-26.3941 321.442L10.8507 355.155L-30.9741 357.237L6.12047 390.813L-35.4891 392.885L-0.248746 424.783" stroke="#CEECEF" stroke-width="9.81974"/>
<circle cx="148.53" cy="305.063" r="71.7801" transform="rotate(117.15 148.53 305.063)" fill="white"/>
</g>
<circle cx="178.312" cy="203.068" r="11.4258" transform="rotate(117.15 178.312 203.068)" fill="#CEECEF"/>
<circle cx="93.7277" cy="411.925" r="68.4241" transform="rotate(117.15 93.7277 411.925)" fill="#CEECEF"/>
<mask id="mask2" mask-type="alpha" maskUnits="userSpaceOnUse" x="1" y="319" width="185" height="186">
<circle cx="93.7287" cy="411.925" r="68.4241" transform="rotate(117.15 93.7287 411.925)" fill="white"/>
</mask>
<g mask="url(#mask2)">
<circle cx="93.7287" cy="411.925" r="65.1508" transform="rotate(117.15 93.7287 411.925)" fill="#CEECEF" stroke="#CEECEF" stroke-width="6.54649"/>
<circle cx="93.7284" cy="411.926" r="54.5296" transform="rotate(117.15 93.7284 411.926)" stroke="#CEECEF" stroke-width="6.54649"/>
<circle cx="93.7287" cy="411.926" r="43.5751" transform="rotate(117.15 93.7287 411.926)" stroke="#CEECEF" stroke-width="6.54649"/>
</g>
<circle cx="49.5955" cy="498.511" r="50.1225" transform="rotate(117.15 49.5955 498.511)" fill="#CEECEF"/>
<circle cx="49.5954" cy="498.511" r="45.2519" transform="rotate(117.15 49.5954 498.511)" fill="#CEECEF"/>
<circle cx="49.5955" cy="498.511" r="23.1611" transform="rotate(117.15 49.5955 498.511)" fill="#CEECEF"/>
<mask id="mask3" mask-type="alpha" maskUnits="userSpaceOnUse" x="-18" y="431" width="136" height="135">
<circle cx="49.5955" cy="498.511" r="50.1225" transform="rotate(117.15 49.5955 498.511)" fill="#F55277"/>
</mask>
<g mask="url(#mask3)">
<path d="M17.6001 425.585C17.6001 425.585 27.3413 437.119 23.6395 452.786C19.1651 471.722 6.73931 469.313 1.87898 486.259C-2.80599 502.594 10.5159 508.771 8.678 524.626C6.96786 539.378 -8.65066 548.915 -8.65066 548.915" stroke="#CEECEF" stroke-width="6.54649"/>
<path d="M29.6401 426.003C29.6401 426.003 39.3813 437.537 35.6796 453.204C31.2051 472.14 18.7794 469.731 13.919 486.677C9.23405 503.012 22.556 509.189 20.718 525.044C19.0079 539.796 3.38938 549.333 3.38938 549.333" stroke="#CEECEF" stroke-width="6.54649"/>
<path d="M41.6792 426.423C41.6792 426.423 51.4204 437.957 47.7186 453.624C43.2442 472.56 30.8184 470.151 25.9581 487.097C21.2731 503.432 34.595 509.609 32.7571 525.464C31.047 540.216 15.4284 549.753 15.4284 549.753" stroke="#CEECEF" stroke-width="6.54649"/>
<path d="M53.7202 426.843C53.7202 426.843 63.4614 438.377 59.7596 454.043C55.2852 472.98 42.8594 470.571 37.9991 487.517C33.3141 503.852 46.636 510.029 44.7981 525.884C43.088 540.636 27.4695 550.173 27.4695 550.173" stroke="#CEECEF" stroke-width="6.54649"/>
<path d="M65.7593 427.261C65.7593 427.261 75.5005 438.795 71.7987 454.461C67.3243 473.398 54.8985 470.989 50.0382 487.935C45.3532 504.27 58.6751 510.447 56.8372 526.302C55.127 541.054 39.5085 550.591 39.5085 550.591" stroke="#CEECEF" stroke-width="6.54649"/>
<path d="M77.7993 427.681C77.7993 427.681 87.5405 439.215 83.8387 454.881C79.3643 473.818 66.9385 471.408 62.0782 488.355C57.3932 504.69 70.7152 510.867 68.8772 526.722C67.1671 541.474 51.5486 551.011 51.5486 551.011" stroke="#CEECEF" stroke-width="6.54649"/>
<path d="M89.8393 428.101C89.8393 428.101 99.5805 439.635 95.8788 455.301C91.4043 474.238 78.9786 471.828 74.1182 488.775C69.4333 505.11 82.7552 511.287 80.9173 527.142C79.2071 541.894 63.5886 551.431 63.5886 551.431" stroke="#CEECEF" stroke-width="6.54649"/>
<path d="M101.878 428.519C101.878 428.519 111.62 440.053 107.918 455.719C103.443 474.656 91.0176 472.246 86.1573 489.193C81.4723 505.528 94.7943 511.705 92.9563 527.559C91.2462 542.312 75.6277 551.849 75.6277 551.849" stroke="#CEECEF" stroke-width="6.54649"/>
<path d="M113.918 428.939C113.918 428.939 123.66 440.473 119.958 456.139C115.483 475.076 103.058 472.666 98.1973 489.613C93.5124 505.948 106.834 512.125 104.996 527.979C103.286 542.732 87.6677 552.269 87.6677 552.269" stroke="#CEECEF" stroke-width="6.54649"/>
</g>
<circle cx="60.8189" cy="562.238" r="5.21781" transform="rotate(117.15 60.8189 562.238)" fill="#CEECEF"/>
<circle cx="271.613" cy="269.629" r="7.07774" transform="rotate(117.15 271.613 269.629)" fill="#CEECEF"/>
<path d="M305.001 10.759C304.86 9.41055 303.653 8.43161 302.305 8.57251C300.956 8.7134 299.977 9.92078 300.118 11.2693L305.001 10.759ZM6.977 584.687L21.099 560.108L-7.2481 560.168L6.977 584.687ZM302.56 11.0141C300.118 11.2693 300.118 11.2692 300.118 11.2694C300.118 11.27 300.118 11.2707 300.118 11.2719C300.119 11.2744 300.119 11.2783 300.12 11.2838C300.121 11.2948 300.122 11.3119 300.125 11.335C300.129 11.3812 300.136 11.4515 300.146 11.5451C300.164 11.7324 300.191 12.0131 300.224 12.3817C300.291 13.119 300.385 14.2078 300.49 15.604C300.701 18.3967 300.958 22.4173 301.145 27.3128C301.518 37.1103 301.604 50.3815 300.464 64.313C299.323 78.2643 296.96 92.7657 292.487 105.074C288.001 117.42 281.517 127.225 272.359 132.286L274.734 136.583C285.386 130.696 292.434 119.599 297.102 106.751C301.784 93.8653 304.198 78.8802 305.358 64.7134C306.518 50.5269 306.429 37.0486 306.051 27.126C305.862 22.1615 305.601 18.0795 305.386 15.2346C305.279 13.812 305.183 12.6982 305.114 11.9376C305.079 11.5573 305.052 11.2652 305.032 11.067C305.022 10.9678 305.015 10.8922 305.01 10.8406C305.007 10.8148 305.005 10.7951 305.004 10.7815C305.003 10.7747 305.002 10.7694 305.002 10.7656C305.002 10.7638 305.002 10.7621 305.002 10.7612C305.001 10.7599 305.001 10.759 302.56 11.0141ZM272.359 132.286C253.209 142.869 233.075 140.845 212.354 141.664C202.121 142.069 191.836 143.201 181.92 147.178C171.956 151.173 162.499 157.983 153.81 169.533L157.734 172.485C165.911 161.615 174.657 155.38 183.747 151.735C192.885 148.071 202.507 146.967 212.548 146.57C232.376 145.787 254.262 147.896 274.734 136.583L272.359 132.286ZM153.81 169.533C136.155 193.003 143.012 216.851 148.033 242.895C153.083 269.089 156.718 298.628 134.901 335.652L139.131 338.144C161.846 299.597 157.992 268.612 152.854 241.965C147.687 215.167 141.656 193.857 157.734 172.485L153.81 169.533ZM134.901 335.652C124.092 353.995 111.233 362.003 97.3357 364.823C83.2382 367.685 67.8428 365.268 51.8321 362.162C36.0072 359.092 19.5349 355.333 4.00653 356.033C-11.7132 356.741 -26.6109 362.011 -39.3092 376.935L-35.5698 380.117C-23.9005 366.402 -10.3739 361.596 4.22766 360.938C19.0205 360.271 34.7665 363.853 50.8971 366.982C66.842 370.075 83.1394 372.715 98.3123 369.635C113.685 366.515 127.675 357.586 139.131 338.144L134.901 335.652ZM-39.3092 376.935C-50.7524 390.384 -54.1683 404.859 -52.6922 419.933C-51.2287 434.877 -44.9628 450.375 -37.1953 466.062C-33.3031 473.922 -29.0002 481.894 -24.6922 489.905C-20.3763 497.93 -16.0518 506.001 -12.0763 514.125C-4.1162 530.391 2.35681 546.696 4.49677 562.917L9.36448 562.275C7.12006 545.262 0.370433 528.389 -7.6662 511.967C-11.689 503.747 -16.0563 495.597 -20.3679 487.579C-24.6872 479.548 -28.9472 471.655 -32.7953 463.883C-40.5084 448.306 -46.433 433.471 -47.8057 419.454C-49.1657 405.566 -46.0633 392.449 -35.5698 380.117L-39.3092 376.935Z" fill="#CEECEF"/>
</g>
<ellipse cx="185.5" cy="1317" rx="313.5" ry="285" stroke="#B9E2E7" stroke-width="2" stroke-linecap="round" stroke-linejoin="round" stroke-dasharray="4.24 4.24"/>
<ellipse cx="185.5" cy="1198.5" rx="313.5" ry="270.5" stroke="#B9E2E7" stroke-width="2" stroke-linecap="round" stroke-linejoin="round" stroke-dasharray="4.24 4.24"/>
<path d="M454 1286.5C454 1414.35 394 1618 196 1618C-68 1618 -83 1414.35 -83 1286.5C-83 1158.65 37.2115 1055 185.5 1055C333.788 1055 454 1158.65 454 1286.5Z" fill="#B9E2E7"/>
</svg>
