<svg width="1915" height="336" viewBox="0 0 1915 336" fill="none" xmlns="http://www.w3.org/2000/svg">
<g style="mix-blend-mode:hard-light" opacity="0.2">
<mask id="mask0" mask-type="alpha" maskUnits="userSpaceOnUse" x="0" y="0" width="1915" height="336">
<g style="mix-blend-mode:hard-light">
<rect x="0.125" width="1914" height="336" fill="#FFDE89"/>
</g>
</mask>
<g mask="url(#mask0)">
<path fill-rule="evenodd" clip-rule="evenodd" d="M120.228 212.383L517.516 -22.0574C477.655 -21.8667 437.159 -16.4197 396.904 -5.222C274.493 28.829 177.634 109.569 120.228 212.383ZM118.281 215.906C87.0392 273.028 67.9062 336.813 63.2314 403.099L202.169 321.112C201.887 322.236 201.611 323.362 201.339 324.489L63.0294 406.105C60.4564 446.401 63.2272 487.596 71.8679 528.758L192.874 457.353C193.156 459.925 193.465 462.499 193.8 465.074L73.4674 536.082C75.1106 543.324 76.9365 550.563 78.948 557.794C85.4594 581.202 93.6781 603.676 103.432 625.118L217.623 557.734C219.157 561.648 220.749 565.525 222.398 569.365L108.762 636.422C122.415 664.376 138.716 690.484 157.263 714.52L268.447 648.91C273.487 655.623 278.73 662.151 284.166 668.488L173.164 733.99C193.625 757.675 216.374 779.069 240.966 797.923L353.222 731.68C372.87 745.729 393.784 757.931 415.67 768.121L300.002 836.377C327.47 851.406 356.479 863.635 386.566 872.803L512.316 798.598C543.127 804.039 574.866 805.793 606.916 803.514L462.078 888.983C499.898 893.78 538.726 893.868 577.764 888.798L888.163 705.631C911.014 674.423 929.858 640.416 944.205 604.479L906.234 626.885C923.44 600.308 937.397 571.679 947.732 541.658L966.722 530.452C973.224 500.023 976.653 468.732 976.758 437.022L967.95 442.22C969.598 418.427 969.057 394.256 966.177 369.975L971.538 366.811C968.786 348.789 964.928 330.738 959.92 312.734C956.497 300.428 952.602 288.38 948.26 276.605L944.143 279.034C941.202 271.143 938.024 263.396 934.621 255.799L938.919 253.263C926.552 224.66 911.479 197.83 894.095 172.996L887.343 176.98C884.772 173.663 882.15 170.394 879.479 167.171L886.788 162.858C867.952 137.467 846.647 114.293 823.326 93.5894L809.794 101.575C807.7 100.042 805.592 98.5298 803.469 97.0393L817.676 88.6558C786.382 61.7785 751.618 39.267 714.43 21.7125L683.101 40.1999C681.986 39.8915 680.87 39.588 679.752 39.2894L702.511 25.8593L694.963 13.0685C640.712 -9.52919 581.89 -21.8119 521.542 -22.0588L118.281 215.906ZM683.101 40.1999L201.339 324.489C191.045 367.196 187.898 412.059 192.874 457.353L803.469 97.0393C766.997 71.4313 726.262 52.1389 683.101 40.1999ZM809.794 101.575L193.8 465.074C196.164 483.231 199.839 501.443 204.889 519.596C208.523 532.658 212.781 545.379 217.623 557.734L879.479 167.171C858.923 142.37 835.472 120.378 809.794 101.575ZM887.343 176.98L222.398 569.365C234.731 598.074 250.264 624.692 268.447 648.91L934.621 255.799C921.854 227.304 905.911 200.927 887.343 176.98ZM944.143 279.034L284.166 668.488C304.664 692.386 327.891 713.568 353.222 731.68L966.177 369.975C963.85 350.364 959.999 330.681 954.542 311.066C951.504 300.145 948.03 289.463 944.143 279.034ZM967.95 442.22L415.67 768.121C446.252 782.359 478.733 792.668 512.316 798.598L947.732 541.658C958.694 509.816 965.582 476.407 967.95 442.22ZM906.234 626.885L606.916 803.514C632.51 801.693 658.303 797.3 683.981 790.157C779.288 763.646 856.393 703.874 906.234 626.885ZM679.752 39.2894L202.169 321.112C235.072 189.781 335.69 79.3816 475.45 40.5044C544.769 21.2221 614.927 21.9791 679.752 39.2894Z" fill="#CEECEF" fill-opacity="0.8"/>
<path fill-rule="evenodd" clip-rule="evenodd" d="M1163.71 62.417L1114.58 14.2157C1099.19 7.9625 1083.27 2.92668 1066.96 -0.807587L1067 3.40566L1067.72 78.9639C1078.04 82.2037 1088.1 86.1486 1097.84 90.7583L1097.35 39.3319L1168.55 109.193L1194.4 134.555L1194.05 98.3433L1193.7 60.9346C1184.06 53.1211 1173.97 45.8984 1163.49 39.3017L1163.71 62.417ZM774.198 370.588C773.619 368.692 773.062 366.783 772.527 364.862C768.284 349.609 765.655 334.288 764.538 319.082L709.12 264.708L691.858 247.772C683.924 292.203 685.591 339.064 698.495 385.455C702.912 401.332 708.484 416.577 715.096 431.124L713.958 311.484L774.198 370.588ZM779.721 217.774C783.957 206.854 789.001 196.274 794.802 186.125L779.275 170.891L779.62 207.102L779.721 217.774ZM812.783 159.163L757.636 105.055C763.968 97.325 770.683 89.887 777.762 82.7736L815.804 120.1L815.145 50.7539C824.647 43.8473 834.596 37.4453 844.964 31.598L845.846 124.367C833.597 134.851 822.532 146.528 812.783 159.163ZM904.951 87.5206L846.868 30.5329C856.077 25.4248 865.612 20.7524 875.453 16.5502L911.604 52.0204L911.146 3.80911C912.286 3.47819 913.429 3.15324 914.575 2.83432C923.4 0.379677 932.241 -1.66834 941.079 -3.32102L941.825 75.1171C939.606 75.666 937.387 76.2486 935.17 76.8654C924.722 79.7717 914.638 83.3429 904.951 87.5206ZM971.499 69.7646L971.169 34.9792L997.018 60.3412L1005.19 68.3633C994.054 68.0166 982.798 68.4698 971.499 69.7646ZM841.908 476.524C851.366 484.967 861.478 492.614 872.127 499.398L872.3 517.601L872.645 553.813L846.796 528.451L775.079 458.085L775.663 519.475C764.708 508.294 754.552 496.235 745.318 483.367L744.736 422.159L744.391 385.948L770.24 411.31L841.957 481.675L841.908 476.524ZM1226.41 252.596C1225.46 248.231 1224.38 243.867 1223.17 239.508C1217.73 219.961 1209.96 201.688 1200.26 184.905L1224.83 209.018L1223.69 88.6927C1234.7 100.322 1244.86 112.86 1254.05 126.234L1255.17 244.944L1255.52 281.156L1229.67 255.794L1226.41 252.596ZM973.65 534.867L999.166 559.903L998.94 536.116C1008.87 536.063 1018.89 535.373 1028.92 534.015L1029.51 595.829L1029.66 611.318C1023.15 611.996 1016.65 612.464 1010.17 612.727L1004 606.679L932.204 536.231L932.868 606.096C922.688 603.91 912.65 601.218 902.79 598.04L902.006 515.526C924.519 525.655 948.689 532.265 973.65 534.867ZM1081.47 520.614L1099.8 538.6L1125.65 563.962L1125.31 527.75L1125.03 498.528C1111.54 507.264 1096.98 514.7 1081.47 520.614ZM1154.54 475.875C1154.73 475.702 1154.92 475.529 1155.11 475.356L1180.38 500.145L1210.04 529.247C1202.73 536.089 1195.07 542.597 1187.07 548.74L1185.22 546.921L1185.25 550.129C1175.77 557.301 1165.82 563.962 1155.44 570.06L1154.87 510.994L1154.54 475.875ZM1177.15 452.375C1196.14 429.664 1210.7 403.508 1220 375.388L1220.79 459.32L1221.14 495.532L1195.29 470.17L1177.15 452.375ZM1228.49 341.267C1230.65 328.552 1231.77 315.58 1231.78 302.469L1285.95 355.619L1284.74 228.157L1284.4 191.946L1290.6 198.033C1293.02 204.864 1295.22 211.826 1297.2 218.915C1314.72 281.922 1311.52 345.799 1291.69 403.275L1290.79 402.395L1228.49 341.267ZM719.716 188.473L711.834 180.739C707.538 190.836 703.771 201.171 700.555 211.701L724.555 235.249L750.404 260.611L750.059 224.399L749.029 116.055C737.746 131.161 727.857 147.255 719.485 164.122L719.716 188.473ZM1011.93 30.3665L973.219 -7.61219C987.427 -8.75729 1001.56 -8.90794 1015.55 -8.11158L1032.94 8.95254L1011.93 30.3665ZM1275.87 432.36L1278.69 435.127C1270.8 451.779 1261.44 467.713 1250.74 482.725L1250.37 443.209L1250.02 406.998L1275.87 432.36ZM1081.12 601.535C1090.68 598.875 1100.01 595.796 1109.1 592.323L1084.58 568.266L1063.57 589.679L1076.83 602.694C1078.26 602.318 1079.69 601.932 1081.12 601.535ZM805.643 546.348C819.091 556.917 833.376 566.353 848.336 574.566L831.361 557.911L805.512 532.549L805.643 546.348Z" fill="#CEECEF" fill-opacity="0.8"/>
<circle cx="144.728" cy="71.2683" r="23.2922" transform="rotate(-15.5449 144.728 71.2683)" fill="#CEECEF" fill-opacity="0.8"/>
<circle cx="1679.67" cy="111.706" r="75.4635" transform="rotate(-15.5449 1679.67 111.706)" fill="#CEECEF" fill-opacity="0.8"/>
<circle cx="1157.69" cy="-1.78717" r="23.0607" transform="rotate(-15.5449 1157.69 -1.78717)" fill="#CEECEF" fill-opacity="0.8"/>
<path fill-rule="evenodd" clip-rule="evenodd" d="M1719.19 253.753C1797.64 231.93 1843.55 150.643 1821.72 72.1927C1799.9 -6.25761 1718.61 -52.1636 1640.16 -30.3411C1561.71 -8.51859 1515.81 72.7686 1537.63 151.219C1559.45 229.669 1640.74 275.575 1719.19 253.753ZM1682.82 206.097C1735.49 203.98 1776.47 159.564 1774.36 106.89C1772.24 54.2164 1727.82 13.2321 1675.15 15.3491C1622.48 17.466 1581.49 61.8825 1583.61 114.556C1585.73 167.23 1630.14 208.214 1682.82 206.097Z" fill="#CEECEF" fill-opacity="0.8"/>
<path fill-rule="evenodd" clip-rule="evenodd" d="M1589.61 137.576C1622.6 256.198 1553.19 379.11 1434.57 412.107C1315.95 445.104 1193.03 375.691 1160.04 257.069C1127.04 138.447 1196.45 15.5347 1315.07 -17.4624C1433.7 -50.4595 1556.61 18.9535 1589.61 137.576ZM1419.93 359.499C1509.5 334.584 1561.91 241.777 1537 152.21C1512.08 62.6426 1419.28 10.2313 1329.71 35.1463C1240.14 60.0612 1187.73 152.867 1212.65 242.435C1237.56 332.002 1330.37 384.414 1419.93 359.499ZM1425.29 378.767C1525.5 350.892 1584.14 247.059 1556.27 146.85C1528.39 46.641 1424.56 -11.9973 1324.35 15.8778C1224.14 43.753 1165.5 147.586 1193.38 247.795C1221.25 348.004 1325.08 406.642 1425.29 378.767ZM1376.75 252.552C1407.36 251.323 1431.17 225.516 1429.94 194.913C1428.71 164.309 1402.9 140.497 1372.3 141.727C1341.69 142.957 1317.88 168.763 1319.11 199.367C1320.34 229.97 1346.15 253.782 1376.75 252.552Z" fill="#CEECEF" fill-opacity="0.8"/>
</g>
</g>
</svg>
