<svg width="201" height="64" viewBox="0 0 201 64" fill="none" xmlns="http://www.w3.org/2000/svg">
<path d="M47.6392 47.7539V62.6278H44.5156V52.8408L40.2319 59.653H39.8452L35.5913 52.8705V62.6278H32.4678V47.7539H35.74L40.0535 54.6257L44.3669 47.7539H47.6392Z" fill="#602B7A"/>
<path d="M63.1308 47.7539H66.3435V62.6278H63.1308V60.486C61.921 62.1717 60.1857 63.0145 57.9249 63.0145C55.8822 63.0145 54.137 62.2609 52.6893 60.7537C51.2416 59.2266 50.5177 57.3724 50.5177 55.1909C50.5177 52.9895 51.2416 51.1352 52.6893 49.628C54.137 48.1208 55.8822 47.3672 57.9249 47.3672C60.1857 47.3672 61.921 48.2001 63.1308 49.866V47.7539ZM55.0691 58.6119C55.9616 59.5043 57.0821 59.9505 58.4306 59.9505C59.7792 59.9505 60.8997 59.5043 61.7921 58.6119C62.6846 57.6996 63.1308 56.5593 63.1308 55.1909C63.1308 53.8225 62.6846 52.692 61.7921 51.7996C60.8997 50.8873 59.7792 50.4312 58.4306 50.4312C57.0821 50.4312 55.9616 50.8873 55.0691 51.7996C54.1767 52.692 53.7305 53.8225 53.7305 55.1909C53.7305 56.5593 54.1767 57.6996 55.0691 58.6119Z" fill="#602B7A"/>
<path d="M81.4519 47.7539V50.8477H76.603V62.6278H73.3903V50.8477H68.5116V47.7539H81.4519Z" fill="#602B7A"/>
<path d="M85.5734 56.5593C85.8114 57.6897 86.3568 58.5623 87.2095 59.1771C88.0623 59.772 89.1035 60.0695 90.333 60.0695C92.0386 60.0695 93.3177 59.4547 94.1705 58.2251L96.8181 59.772C95.3505 61.9337 93.1789 63.0145 90.3033 63.0145C87.8838 63.0145 85.9304 62.2807 84.443 60.8132C82.9556 59.3258 82.2119 57.4517 82.2119 55.1909C82.2119 52.9697 82.9457 51.1154 84.4132 49.628C85.8808 48.1208 87.7648 47.3672 90.0653 47.3672C92.2468 47.3672 94.0317 48.1307 95.4199 49.6578C96.828 51.1848 97.532 53.0391 97.532 55.2206C97.532 55.5577 97.4924 56.004 97.413 56.5593H85.5734ZM85.5437 53.9415H94.2895C94.0714 52.7317 93.5656 51.8194 92.7724 51.2047C91.9989 50.5899 91.0867 50.2825 90.0356 50.2825C88.8457 50.2825 87.8541 50.6097 87.0608 51.2641C86.2675 51.9186 85.7618 52.811 85.5437 53.9415Z" fill="#602B7A"/>
<path d="M115.53 47.7539V62.6278H112.407V52.8408L108.123 59.653H107.736L103.483 52.8705V62.6278H100.359V47.7539H103.631L107.945 54.6257L112.258 47.7539H115.53Z" fill="#602B7A"/>
<path d="M131.022 47.7539H134.235V62.6278H131.022V60.486C129.812 62.1717 128.077 63.0145 125.816 63.0145C123.773 63.0145 122.028 62.2609 120.581 60.7537C119.133 59.2266 118.409 57.3724 118.409 55.1909C118.409 52.9895 119.133 51.1352 120.581 49.628C122.028 48.1208 123.773 47.3672 125.816 47.3672C128.077 47.3672 129.812 48.2001 131.022 49.866V47.7539ZM122.96 58.6119C123.853 59.5043 124.973 59.9505 126.322 59.9505C127.67 59.9505 128.791 59.5043 129.683 58.6119C130.576 57.6996 131.022 56.5593 131.022 55.1909C131.022 53.8225 130.576 52.692 129.683 51.7996C128.791 50.8873 127.67 50.4312 126.322 50.4312C124.973 50.4312 123.853 50.8873 122.96 51.7996C122.068 52.692 121.622 53.8225 121.622 55.1909C121.622 56.5593 122.068 57.6996 122.96 58.6119Z" fill="#602B7A"/>
<path d="M149.343 47.7539V50.8477H144.494V62.6278H141.281V50.8477H136.403V47.7539H149.343Z" fill="#602B7A"/>
<path d="M162.286 47.7539H164.755V62.6278H161.602V53.168L153.986 62.6278H151.517V47.7539H154.67V57.184L162.286 47.7539Z" fill="#602B7A"/>
<path d="M181.631 62.6278H177.794L171.695 55.7561V62.6278H168.483V47.7539H171.695V54.3282L177.466 47.7539H181.393L174.849 55.0421L181.631 62.6278Z" fill="#602B7A"/>
<path d="M194.381 47.7539H197.594V62.6278H194.381V60.486C193.172 62.1717 191.436 63.0145 189.175 63.0145C187.133 63.0145 185.388 62.2609 183.94 60.7537C182.492 59.2266 181.768 57.3724 181.768 55.1909C181.768 52.9895 182.492 51.1352 183.94 49.628C185.388 48.1208 187.133 47.3672 189.175 47.3672C191.436 47.3672 193.172 48.2001 194.381 49.866V47.7539ZM186.32 58.6119C187.212 59.5043 188.333 59.9505 189.681 59.9505C191.03 59.9505 192.15 59.5043 193.043 58.6119C193.935 57.6996 194.381 56.5593 194.381 55.1909C194.381 53.8225 193.935 52.692 193.043 51.7996C192.15 50.8873 191.03 50.4312 189.681 50.4312C188.333 50.4312 187.212 50.8873 186.32 51.7996C185.427 52.692 184.981 53.8225 184.981 55.1909C184.981 56.5593 185.427 57.6996 186.32 58.6119Z" fill="#602B7A"/>
<path d="M20.3828 27.3008L29.9165 36.8497L20.4233 46.358L10.8896 36.8091L20.3828 27.3008Z" fill="#602B7A"/>
<path d="M0.125 0H200.125V36.8727H0.125V0Z" fill="#602B7A"/>
<path d="M44.5367 10.9516V25.9213H41.3358V14.0653H36.3864V19.634C36.3864 22.0092 35.8727 23.6958 34.8452 24.6937C33.8178 25.6917 32.3557 26.1009 30.4589 25.9213V22.8974C31.3677 23.0571 32.0494 22.8674 32.5039 22.3285C32.9583 21.7896 33.1855 20.8415 33.1855 19.4843V10.9516H44.5367Z" fill="#E9FFF2"/>
<path d="M58.1952 10.9516V14.0653H51.4675V25.9213H48.2666V10.9516H58.1952Z" fill="#E9FFF2"/>
<path d="M66.7803 26.3105C64.6069 26.3105 62.7595 25.552 61.2381 24.0351C59.7167 22.5181 58.956 20.6519 58.956 18.4364C58.956 16.2209 59.7167 14.3547 61.2381 12.8378C62.7595 11.3208 64.6069 10.5624 66.7803 10.5624C68.9735 10.5624 70.8209 11.3208 72.3226 12.8378C73.844 14.3547 74.6047 16.2209 74.6047 18.4364C74.6047 20.6519 73.844 22.5181 72.3226 24.0351C70.8209 25.552 68.9735 26.3105 66.7803 26.3105ZM63.4906 21.8196C64.3797 22.7177 65.4763 23.1668 66.7803 23.1668C68.0844 23.1668 69.181 22.7177 70.0701 21.8196C70.9593 20.9214 71.4038 19.7937 71.4038 18.4364C71.4038 17.0792 70.9593 15.9515 70.0701 15.0533C69.181 14.1551 68.0844 13.706 66.7803 13.706C65.4763 13.706 64.3797 14.1551 63.4906 15.0533C62.6015 15.9515 62.1569 17.0792 62.1569 18.4364C62.1569 19.7937 62.6015 20.9214 63.4906 21.8196Z" fill="#E9FFF2"/>
<path d="M85.1786 10.5624C87.2137 10.5624 88.9525 11.3308 90.3949 12.8677C91.8372 14.3846 92.5584 16.2409 92.5584 18.4364C92.5584 20.6519 91.8372 22.5181 90.3949 24.0351C88.9525 25.552 87.2137 26.3105 85.1786 26.3105C82.9262 26.3105 81.1972 25.4722 79.9919 23.7956V30.8455H76.791V10.9516H79.9919V13.1072C81.1972 11.4106 82.9262 10.5624 85.1786 10.5624ZM81.3257 21.8794C82.2148 22.7776 83.3312 23.2267 84.6748 23.2267C86.0183 23.2267 87.1347 22.7776 88.0239 21.8794C88.913 20.9613 89.3576 19.8136 89.3576 18.4364C89.3576 17.0592 88.913 15.9215 88.0239 15.0233C87.1347 14.1052 86.0183 13.6461 84.6748 13.6461C83.3312 13.6461 82.2148 14.1052 81.3257 15.0233C80.4365 15.9215 79.9919 17.0592 79.9919 18.4364C79.9919 19.8136 80.4365 20.9613 81.3257 21.8794Z" fill="#E9FFF2"/>
<path d="M105.481 10.9516H107.94V25.9213H104.799V16.4005L97.2115 25.9213H94.7515V10.9516H97.8931V20.4424L105.481 10.9516Z" fill="#E9FFF2"/>
<path d="M122.976 10.9516V14.0653H118.145V25.9213H114.944V14.0653H110.084V10.9516H122.976Z" fill="#E9FFF2"/>
<path d="M140.257 10.9516V25.9213H137.145V16.0712L132.877 22.9273H132.492L128.254 16.1011V25.9213H125.142V10.9516H128.402L132.699 17.8676L136.997 10.9516H140.257Z" fill="#E9FFF2"/>
<path d="M154.683 10.9516H157.143V25.9213H154.002V16.4005L146.415 25.9213H143.955V10.9516H147.096V20.4424L154.683 10.9516Z" fill="#E9FFF2"/>
<path d="M173.603 25.9213H169.78L163.704 19.0053V25.9213H160.503V10.9516H163.704V17.5682L169.454 10.9516H173.366L166.846 18.2867L173.603 25.9213Z" fill="#E9FFF2"/>
<path d="M185.598 10.9516H188.799V25.9213H185.598V23.7656C184.393 25.4622 182.664 26.3105 180.412 26.3105C178.376 26.3105 176.638 25.552 175.195 24.0351C173.753 22.4982 173.032 20.632 173.032 18.4364C173.032 16.2209 173.753 14.3547 175.195 12.8378C176.638 11.3208 178.376 10.5624 180.412 10.5624C182.664 10.5624 184.393 11.4007 185.598 13.0773V10.9516ZM177.566 21.8794C178.455 22.7776 179.572 23.2267 180.915 23.2267C182.259 23.2267 183.375 22.7776 184.264 21.8794C185.154 20.9613 185.598 19.8136 185.598 18.4364C185.598 17.0592 185.154 15.9215 184.264 15.0233C183.375 14.1052 182.259 13.6461 180.915 13.6461C179.572 13.6461 178.455 14.1052 177.566 15.0233C176.677 15.9215 176.233 17.0592 176.233 18.4364C176.233 19.8136 176.677 20.9613 177.566 21.8794Z" fill="#E9FFF2"/>
<path d="M26.1853 25.9213L24.3725 21.6998H16.2309L14.4488 25.9213H10.7441L18.5317 6.02734H22.0716L29.8603 25.9213H26.1853ZM17.2928 18.4664H23.3105L20.3017 10.1046L17.2928 18.4664Z" fill="#E9FFF2"/>
</svg>
