<svg width="1914" height="1007" viewBox="0 0 1914 1007" fill="none" xmlns="http://www.w3.org/2000/svg">
<g opacity="0.5">
<mask id="mask0" mask-type="alpha" maskUnits="userSpaceOnUse" x="14" y="-44" width="1051" height="1051">
<circle cx="539.828" cy="481.795" r="428.705" transform="rotate(-15 539.828 481.795)" fill="#1C90D2"/>
</mask>
<g mask="url(#mask0)">
<rect x="1013.83" y="56.7461" width="86.1786" height="1254.57" transform="rotate(60 1013.83 56.7461)" fill="#CEECEF"/>
<rect x="1006.71" y="173.846" width="86.1786" height="1254.57" transform="rotate(60 1006.71 173.846)" fill="#CEECEF"/>
<rect x="1084.65" y="255.258" width="83.9371" height="1254.57" transform="rotate(60 1084.65 255.258)" fill="#CEECEF"/>
<rect x="1196.92" y="355.703" width="70.6658" height="1254.57" transform="rotate(60 1196.92 355.703)" fill="#CEECEF"/>
<rect x="1293.8" y="438.004" width="54.9784" height="1254.57" transform="rotate(60 1293.8 438.004)" fill="#CEECEF"/>
<rect x="964.412" y="-41.6621" width="103.259" height="1254.57" transform="rotate(60 964.412 -41.6621)" fill="#CEECEF"/>
<rect x="652.668" y="-8.62891" width="124.932" height="725.792" transform="rotate(60 652.668 -8.62891)" fill="#CEECEF"/>
<rect x="879.89" y="-271.898" width="112.47" height="1254.57" transform="rotate(60 879.89 -271.898)" fill="#CEECEF"/>
<circle r="364.802" transform="matrix(-0.965926 0.258819 0.258819 0.965926 596.527 463.643)" fill="white"/>
</g>
<mask id="mask1" mask-type="alpha" maskUnits="userSpaceOnUse" x="632" y="4" width="715" height="715">
<circle cx="989.578" cy="361.283" r="291.344" transform="rotate(-15 989.578 361.283)" fill="#FAAB45"/>
</mask>
<g mask="url(#mask1)">
<path d="M653.254 349.312V195.514L743.879 286.14V132.186L834.582 222.889V69.4814L925.013 159.912V6.46484L1015.15 96.6026" stroke="#CEECEF" stroke-width="30"/>
<path d="M709.254 487.313V333.515L799.879 424.14V270.186L890.582 360.89V207.482L981.013 297.912V144.465L1071.15 234.603V81.7608L1161.3 171.908V18.4323L1251.76 108.897V-43.9603L1341.76 46.0386V-99.1777" stroke="#CEECEF" stroke-width="30"/>
<path d="M765.254 625.313V471.515L855.879 562.14V408.186L946.582 498.89V345.482L1037.01 435.912V282.465L1127.15 372.603V219.761L1217.3 309.908V156.432L1307.76 246.897V94.0397L1397.76 184.039V38.8223" stroke="#CEECEF" stroke-width="30"/>
<path d="M821.254 763.313V609.515L911.879 700.14V546.186L1002.58 636.89V483.482L1093.01 573.912V420.465L1183.15 510.603V357.761L1273.3 447.908V294.432L1363.76 384.897V232.04L1453.76 322.039V176.822" stroke="#CEECEF" stroke-width="30"/>
<path d="M1058.58 621.482L1149.01 711.912V558.465L1239.15 648.603V495.761L1329.3 585.908V432.432L1419.76 522.897V370.04L1509.76 460.039V314.822" stroke="#CEECEF" stroke-width="30"/>
<path d="M933.254 1039.31V885.515L1023.88 976.14V822.186L1114.58 912.89V759.482L1205.01 849.912V696.465L1295.15 786.603V633.761L1385.3 723.908V570.432L1475.76 660.897V508.04L1565.76 598.039V452.822" stroke="#CEECEF" stroke-width="30"/>
<circle cx="989.578" cy="361.283" r="219.293" transform="rotate(-15 989.578 361.283)" fill="white"/>
</g>
<circle cx="697.5" cy="502.939" r="34.9067" transform="rotate(-15 697.5 502.939)" fill="#CEECEF"/>
<circle cx="191.745" cy="137.166" r="21.84" transform="rotate(-15 191.745 137.166)" fill="#CEECEF"/>
<circle cx="1343.97" cy="266.326" r="209.04" transform="rotate(-15 1343.97 266.326)" fill="#CEECEF"/>
<mask id="mask2" mask-type="alpha" maskUnits="userSpaceOnUse" x="1087" y="10" width="513" height="513">
<circle cx="1343.97" cy="266.326" r="209.04" transform="rotate(-15 1343.97 266.326)" fill="white"/>
</mask>
<g mask="url(#mask2)">
<circle cx="1343.97" cy="266.326" r="199.04" transform="rotate(-15 1343.97 266.326)" fill="#CEECEF" stroke="#CEECEF" stroke-width="20"/>
<circle cx="1343.97" cy="266.326" r="166.592" transform="rotate(-15 1343.97 266.326)" stroke="#CEECEF" stroke-width="20"/>
<circle cx="1343.97" cy="266.326" r="133.125" transform="rotate(-15 1343.97 266.326)" stroke="#CEECEF" stroke-width="20"/>
</g>
<circle cx="1630.57" cy="188.77" r="153.128" transform="rotate(-15 1630.57 188.77)" fill="#CEECEF"/>
<circle cx="1630.57" cy="188.77" r="138.248" transform="rotate(-15 1630.57 188.77)" fill="#CEECEF"/>
<circle cx="1630.57" cy="188.768" r="70.7587" transform="rotate(-15 1630.57 188.768)" fill="#CEECEF"/>
<mask id="mask3" mask-type="alpha" maskUnits="userSpaceOnUse" x="1443" y="1" width="376" height="376">
<circle cx="1630.57" cy="188.77" r="153.128" transform="rotate(-15 1630.57 188.77)" fill="#F55277"/>
</mask>
<g mask="url(#mask3)">
<path d="M1530.99 410.752C1530.99 410.752 1537.14 365.041 1580.21 341.307C1632.28 312.618 1652.3 345.702 1700.64 321.967C1747.25 299.089 1733.93 256.251 1773.61 227.909C1810.53 201.537 1864.15 217.36 1864.15 217.36" stroke="#CEECEF" stroke-width="20"/>
<path d="M1507.25 382.623C1507.25 382.623 1513.41 336.912 1556.48 313.178C1608.54 284.489 1628.56 317.573 1676.91 293.838C1723.51 270.96 1710.19 228.122 1749.87 199.78C1786.79 173.408 1840.41 189.231 1840.41 189.231" stroke="#CEECEF" stroke-width="20"/>
<path d="M1483.52 354.492C1483.52 354.492 1489.67 308.781 1532.74 285.047C1584.81 256.358 1604.83 289.442 1653.17 265.708C1699.78 242.829 1686.46 199.991 1726.14 171.649C1763.06 145.277 1816.68 161.1 1816.68 161.1" stroke="#CEECEF" stroke-width="20"/>
<path d="M1459.78 326.363C1459.78 326.363 1465.94 280.652 1509.01 256.918C1561.07 228.229 1581.09 261.313 1629.44 237.579C1676.04 214.701 1662.72 171.862 1702.4 143.52C1739.32 117.148 1792.94 132.971 1792.94 132.971" stroke="#CEECEF" stroke-width="20"/>
<path d="M1436.05 298.234C1436.05 298.234 1442.2 252.523 1485.28 228.789C1537.34 200.1 1557.36 233.184 1605.71 209.45C1652.31 186.572 1638.99 143.733 1678.67 115.391C1715.59 89.0195 1769.21 104.842 1769.21 104.842" stroke="#CEECEF" stroke-width="20"/>
<path d="M1412.31 270.103C1412.31 270.103 1418.47 224.393 1461.54 200.658C1513.61 171.97 1533.62 205.053 1581.97 181.319C1628.58 158.441 1615.25 115.602 1654.93 87.2602C1691.85 60.8886 1745.48 76.7116 1745.48 76.7116" stroke="#CEECEF" stroke-width="20"/>
<path d="M1388.58 241.974C1388.58 241.974 1394.73 196.264 1437.81 172.529C1489.87 143.841 1509.89 176.924 1558.24 153.19C1604.84 130.312 1591.52 87.4735 1631.2 59.1313C1668.12 32.7597 1721.74 48.5827 1721.74 48.5827" stroke="#CEECEF" stroke-width="20"/>
<path d="M1364.85 213.844C1364.85 213.844 1371 168.133 1414.07 144.398C1466.14 115.71 1486.16 148.794 1534.5 125.059C1581.11 102.181 1567.79 59.3427 1607.46 31.0004C1644.38 4.62884 1698.01 20.4518 1698.01 20.4518" stroke="#CEECEF" stroke-width="20"/>
<path d="M1341.11 185.715C1341.11 185.715 1347.26 140.004 1390.34 116.269C1442.4 87.5809 1462.42 120.665 1510.77 96.9302C1557.37 74.0521 1544.05 31.2138 1583.73 2.87153C1620.65 -23.5001 1674.27 -7.67711 1674.27 -7.67711" stroke="#CEECEF" stroke-width="20"/>
</g>
<circle cx="1751.9" cy="32.6976" r="15.9408" transform="rotate(-15 1751.9 32.6976)" fill="#CEECEF"/>
<circle cx="656.971" cy="155.151" r="21.623" transform="rotate(-15 656.971 155.151)" fill="#CEECEF"/>
<path d="M2.18394 610.257C-0.581513 613.341 -0.323471 618.083 2.76029 620.848C5.84405 623.613 10.5858 623.355 13.3512 620.272L2.18394 610.257ZM1913.13 108.623L1828.51 127.028L1886.76 191.112L1913.13 108.623ZM7.76758 615.264C13.3512 620.272 13.351 620.272 13.3516 620.271C13.3529 620.27 13.3542 620.268 13.3567 620.266C13.3617 620.26 13.3699 620.251 13.3812 620.238C13.4037 620.213 13.4389 620.174 13.4864 620.122C13.5815 620.016 13.7262 619.856 13.9195 619.644C14.306 619.218 14.8868 618.582 15.6531 617.75C17.1858 616.087 19.4601 613.643 22.4065 610.542C28.3 604.339 36.8783 595.513 47.5846 585.054C69.0111 564.122 98.8937 536.719 132.786 510.738C166.726 484.721 204.415 460.342 241.463 445.238C278.623 430.087 314.126 424.673 344.364 435.04L349.229 420.851C314.055 408.792 274.473 415.581 235.8 431.348C197.015 447.161 158.124 472.415 123.66 498.834C89.1477 525.29 58.8027 553.125 37.1027 574.324C26.2456 584.93 17.536 593.891 11.5322 600.21C8.53004 603.37 6.20349 605.87 4.62238 607.586C3.83179 608.443 3.22749 609.105 2.8182 609.556C2.61355 609.781 2.45765 609.953 2.35157 610.071C2.29854 610.13 2.25796 610.175 2.22997 610.206C2.21598 610.221 2.20514 610.233 2.19746 610.242C2.19362 610.246 2.19024 610.25 2.18832 610.252C2.18573 610.255 2.18394 610.257 7.76758 615.264ZM344.364 435.04C407.594 456.717 444.29 506.468 488.628 551.722C510.524 574.071 534.174 595.044 563.511 609.353C592.987 623.73 627.8 631.188 671.776 627.188L670.418 612.249C629.032 616.014 596.98 608.988 570.086 595.871C543.052 582.685 520.828 563.155 499.342 541.225C456.917 497.923 416.824 444.024 349.229 420.851L344.364 435.04ZM671.776 627.188C761.131 619.061 801.089 554.637 849.784 489.869C898.759 424.728 958.215 355.934 1086.8 329.444L1083.77 314.753C949.895 342.333 887.617 414.586 837.794 480.855C787.69 547.498 751.786 604.849 670.418 612.249L671.776 627.188ZM1086.8 329.444C1150.51 316.319 1195.01 329.027 1229.89 354.722C1265.27 380.787 1291.36 420.612 1317.15 463.243C1342.64 505.38 1367.9 550.398 1401.32 584.135C1435.16 618.287 1477.63 641.226 1537.47 639.391L1537.01 624.398C1482.02 626.084 1443.4 605.301 1411.98 573.578C1380.14 541.44 1355.97 498.43 1329.99 455.479C1304.3 413.022 1276.87 370.698 1238.79 342.645C1200.2 314.222 1151.3 300.842 1083.77 314.753L1086.8 329.444ZM1537.47 639.391C1591.39 637.738 1631.18 615.798 1662.3 581.551C1693.15 547.597 1715.4 501.631 1735.01 451.877C1744.83 426.946 1754.07 400.856 1763.38 374.675C1772.71 348.446 1782.12 322.104 1792.37 296.444C1812.89 245.067 1836.56 196.976 1868.91 158.874L1857.47 149.165C1823.54 189.127 1799.16 239.009 1778.44 290.88C1768.07 316.844 1758.57 343.445 1749.25 369.648C1739.91 395.898 1730.77 421.729 1721.05 446.378C1701.58 495.784 1680.13 539.617 1651.2 571.464C1622.53 603.018 1586.46 622.882 1537.01 624.398L1537.47 639.391Z" fill="#CEECEF"/>
</g>
</svg>
