<svg width="674" height="3311" viewBox="0 0 674 3311" fill="none" xmlns="http://www.w3.org/2000/svg">
<path d="M651 921.006C651 1014.11 606.926 3164.02 537.5 3265.01C484.617 3341.93 423.026 3299.01 349 3299.01C274.974 3299.01 200.635 3341.93 146.903 3265.01C76.3633 3164.02 31 1014.11 31 921.006C31 756.977 169.792 624.006 341 624.006C512.208 624.006 651 756.977 651 921.006Z" fill="#E7F6F7"/>
<g opacity="0.5">
<mask id="mask0" mask-type="alpha" maskUnits="userSpaceOnUse" x="240" y="55" width="378" height="379">
<circle cx="429.079" cy="244.449" r="140.326" transform="rotate(117.15 429.079 244.449)" fill="#1C90D2"/>
</mask>
<g mask="url(#mask0)">
<rect x="428.107" y="452.844" width="28.2084" height="410.65" transform="rotate(-167.85 428.107 452.844)" fill="#CEECEF"/>
<rect x="401.256" y="425.393" width="28.2084" height="410.65" transform="rotate(-167.85 401.256 425.393)" fill="#CEECEF"/>
<rect x="364.377" y="426.426" width="27.4747" height="410.65" transform="rotate(-167.85 364.377 426.426)" fill="#CEECEF"/>
<rect x="315.34" y="431.607" width="23.1306" height="410.65" transform="rotate(-167.85 315.34 431.607)" fill="#CEECEF"/>
<rect x="274.087" y="437.041" width="17.9958" height="410.65" transform="rotate(-167.85 274.087 437.041)" fill="#CEECEF"/>
<rect x="462.844" y="462.469" width="33.7991" height="410.65" transform="rotate(-167.85 462.844 462.469)" fill="#CEECEF"/>
<rect x="523.306" y="379.559" width="40.8935" height="237.57" transform="rotate(-167.85 523.306 379.559)" fill="#CEECEF"/>
<rect x="537.282" y="492.529" width="36.8143" height="410.65" transform="rotate(-167.85 537.282 492.529)" fill="#CEECEF"/>
<circle r="119.409" transform="matrix(0.456324 -0.889814 -0.889814 -0.456324 421.029 262.195)" fill="white"/>
</g>
<mask id="mask1" mask-type="alpha" maskUnits="userSpaceOnUse" x="231" y="251" width="257" height="258">
<circle cx="359.531" cy="380.064" r="95.3642" transform="rotate(117.15 359.531 380.064)" fill="#FAAB45"/>
</mask>
<g mask="url(#mask1)">
<path d="M436.311 301.077L473.634 334.86L431.735 336.946L469.096 370.763L427.16 372.851L464.389 406.548L422.58 408.63L459.817 442.336L418.144 444.41" stroke="#CEECEF" stroke-width="9.81974"/>
<path d="M390.521 284.353L427.844 318.137L385.945 320.222L423.306 354.04L381.37 356.127L418.599 389.825L376.79 391.906L414.027 425.612L372.353 427.687L409.444 461.26L367.766 463.335L405.011 497.047L363.186 499.129L400.281 532.706L358.671 534.777L393.911 566.675" stroke="#CEECEF" stroke-width="9.81974"/>
<path d="M344.731 267.631L382.054 301.414L340.155 303.5L377.516 337.317L335.58 339.405L372.809 373.102L330.999 375.183L368.237 408.889L326.563 410.964L363.654 444.537L321.976 446.612L359.221 480.325L317.396 482.407L354.491 515.983L312.881 518.054L348.121 549.953" stroke="#CEECEF" stroke-width="9.81974"/>
<path d="M298.941 250.906L336.264 284.689L294.365 286.775L331.725 320.592L289.79 322.68L327.018 356.378L285.209 358.459L322.447 392.165L280.773 394.239L317.864 427.813L276.186 429.887L313.431 463.6L271.606 465.682L308.701 499.259L267.091 501.33L302.331 533.228" stroke="#CEECEF" stroke-width="9.81974"/>
<path d="M281.228 339.655L239.419 341.736L276.657 375.442L234.983 377.517L272.074 411.09L230.395 413.165L267.64 446.877L225.815 448.959L262.91 482.536L221.3 484.607L256.541 516.505" stroke="#CEECEF" stroke-width="9.81974"/>
<path d="M207.361 217.461L244.684 251.244L202.785 253.33L240.145 287.147L198.21 289.235L235.438 322.932L193.629 325.013L230.867 358.72L189.193 360.794L226.284 394.367L184.606 396.442L221.851 430.155L180.026 432.237L217.12 465.813L175.511 467.885L210.751 499.783" stroke="#CEECEF" stroke-width="9.81974"/>
<circle cx="359.53" cy="380.063" r="71.7801" transform="rotate(117.15 359.53 380.063)" fill="white"/>
</g>
<circle cx="389.312" cy="278.068" r="11.4258" transform="rotate(117.15 389.312 278.068)" fill="#CEECEF"/>
<circle cx="589.17" cy="235.681" r="7.14878" transform="rotate(117.15 589.17 235.681)" fill="#CEECEF"/>
<circle cx="304.728" cy="486.925" r="68.4241" transform="rotate(117.15 304.728 486.925)" fill="#CEECEF"/>
<mask id="mask2" mask-type="alpha" maskUnits="userSpaceOnUse" x="212" y="394" width="185" height="186">
<circle cx="304.729" cy="486.925" r="68.4241" transform="rotate(117.15 304.729 486.925)" fill="white"/>
</mask>
<g mask="url(#mask2)">
<circle cx="304.729" cy="486.925" r="65.1508" transform="rotate(117.15 304.729 486.925)" fill="#CEECEF" stroke="#CEECEF" stroke-width="6.54649"/>
<circle cx="304.728" cy="486.926" r="54.5296" transform="rotate(117.15 304.728 486.926)" stroke="#CEECEF" stroke-width="6.54649"/>
<circle cx="304.729" cy="486.926" r="43.5751" transform="rotate(117.15 304.729 486.926)" stroke="#CEECEF" stroke-width="6.54649"/>
</g>
<circle cx="260.596" cy="573.511" r="50.1225" transform="rotate(117.15 260.596 573.511)" fill="#CEECEF"/>
<circle cx="260.595" cy="573.511" r="45.2519" transform="rotate(117.15 260.595 573.511)" fill="#CEECEF"/>
<circle cx="260.595" cy="573.511" r="23.1611" transform="rotate(117.15 260.595 573.511)" fill="#CEECEF"/>
<mask id="mask3" mask-type="alpha" maskUnits="userSpaceOnUse" x="193" y="506" width="136" height="135">
<circle cx="260.596" cy="573.511" r="50.1225" transform="rotate(117.15 260.596 573.511)" fill="#F55277"/>
</mask>
<g mask="url(#mask3)">
<path d="M228.6 500.585C228.6 500.585 238.341 512.119 234.64 527.786C230.165 546.722 217.739 544.313 212.879 561.259C208.194 577.594 221.516 583.771 219.678 599.626C217.968 614.378 202.349 623.915 202.349 623.915" stroke="#CEECEF" stroke-width="6.54649"/>
<path d="M240.64 501.003C240.64 501.003 250.381 512.537 246.68 528.204C242.205 547.14 229.779 544.731 224.919 561.677C220.234 578.012 233.556 584.189 231.718 600.044C230.008 614.796 214.389 624.333 214.389 624.333" stroke="#CEECEF" stroke-width="6.54649"/>
<path d="M252.679 501.423C252.679 501.423 262.42 512.957 258.719 528.624C254.244 547.56 241.818 545.151 236.958 562.097C232.273 578.432 245.595 584.609 243.757 600.464C242.047 615.216 226.428 624.753 226.428 624.753" stroke="#CEECEF" stroke-width="6.54649"/>
<path d="M264.72 501.843C264.72 501.843 274.461 513.377 270.76 529.043C266.285 547.98 253.859 545.571 248.999 562.517C244.314 578.852 257.636 585.029 255.798 600.884C254.088 615.636 238.469 625.173 238.469 625.173" stroke="#CEECEF" stroke-width="6.54649"/>
<path d="M276.759 502.261C276.759 502.261 286.5 513.795 282.799 529.461C278.324 548.398 265.898 545.989 261.038 562.935C256.353 579.27 269.675 585.447 267.837 601.302C266.127 616.054 250.509 625.591 250.509 625.591" stroke="#CEECEF" stroke-width="6.54649"/>
<path d="M288.799 502.681C288.799 502.681 298.541 514.215 294.839 529.881C290.364 548.818 277.939 546.408 273.078 563.355C268.393 579.69 281.715 585.867 279.877 601.722C278.167 616.474 262.549 626.011 262.549 626.011" stroke="#CEECEF" stroke-width="6.54649"/>
<path d="M300.839 503.101C300.839 503.101 310.581 514.635 306.879 530.301C302.404 549.238 289.979 546.828 285.118 563.775C280.433 580.11 293.755 586.287 291.917 602.142C290.207 616.894 274.589 626.431 274.589 626.431" stroke="#CEECEF" stroke-width="6.54649"/>
<path d="M312.878 503.519C312.878 503.519 322.62 515.053 318.918 530.719C314.443 549.656 302.018 547.246 297.157 564.193C292.472 580.528 305.794 586.705 303.956 602.559C302.246 617.312 286.628 626.849 286.628 626.849" stroke="#CEECEF" stroke-width="6.54649"/>
<path d="M324.918 503.939C324.918 503.939 334.66 515.473 330.958 531.139C326.483 550.076 314.058 547.666 309.197 564.613C304.512 580.948 317.834 587.125 315.996 602.979C314.286 617.732 298.668 627.269 298.668 627.269" stroke="#CEECEF" stroke-width="6.54649"/>
</g>
<circle cx="271.819" cy="637.238" r="5.21781" transform="rotate(117.15 271.819 637.238)" fill="#CEECEF"/>
<circle cx="482.613" cy="344.629" r="7.07774" transform="rotate(117.15 482.613 344.629)" fill="#CEECEF"/>
<path d="M516.001 85.759C515.86 84.4106 514.653 83.4316 513.305 83.5725C511.956 83.7134 510.977 84.9208 511.118 86.2693L516.001 85.759ZM217.977 659.687L232.099 635.108L203.752 635.168L217.977 659.687ZM513.56 86.0141C511.118 86.2693 511.118 86.2692 511.118 86.2694C511.118 86.2701 511.118 86.2707 511.118 86.2719C511.119 86.2744 511.119 86.2783 511.12 86.2838C511.121 86.2948 511.122 86.3119 511.125 86.335C511.129 86.3812 511.136 86.4515 511.146 86.5451C511.164 86.7324 511.191 87.0131 511.224 87.3817C511.291 88.119 511.385 89.2078 511.49 90.604C511.701 93.3967 511.958 97.4173 512.145 102.313C512.518 112.11 512.604 125.381 511.464 139.313C510.323 153.264 507.96 167.766 503.487 180.074C499.001 192.42 492.517 202.225 483.359 207.286L485.734 211.583C496.386 205.696 503.434 194.599 508.102 181.751C512.784 168.865 515.198 153.88 516.358 139.713C517.518 125.527 517.429 112.049 517.051 102.126C516.862 97.1615 516.601 93.0795 516.386 90.2346C516.279 88.812 516.183 87.6982 516.114 86.9376C516.079 86.5573 516.052 86.2652 516.032 86.067C516.022 85.9679 516.015 85.8922 516.01 85.8406C516.007 85.8148 516.005 85.7951 516.004 85.7815C516.003 85.7747 516.002 85.7694 516.002 85.7656C516.002 85.7638 516.002 85.7621 516.002 85.7612C516.001 85.7599 516.001 85.759 513.56 86.0141ZM483.359 207.286C464.209 217.869 444.075 215.845 423.354 216.664C413.121 217.069 402.836 218.201 392.92 222.178C382.956 226.173 373.499 232.983 364.81 244.533L368.734 247.485C376.911 236.615 385.657 230.38 394.747 226.735C403.885 223.071 413.507 221.967 423.548 221.57C443.376 220.787 465.262 222.896 485.734 211.583L483.359 207.286ZM364.81 244.533C347.155 268.003 354.012 291.851 359.033 317.895C364.083 344.089 367.718 373.628 345.901 410.652L350.131 413.144C372.846 374.597 368.992 343.612 363.854 316.965C358.687 290.167 352.656 268.857 368.734 247.485L364.81 244.533ZM345.901 410.652C335.092 428.995 322.233 437.003 308.336 439.823C294.238 442.685 278.843 440.268 262.832 437.162C247.007 434.092 230.535 430.333 215.007 431.033C199.287 431.741 184.389 437.011 171.691 451.935L175.43 455.117C187.1 441.402 200.626 436.596 215.228 435.938C230.021 435.271 245.766 438.853 261.897 441.982C277.842 445.075 294.139 447.715 309.312 444.635C324.685 441.515 338.675 432.586 350.131 413.144L345.901 410.652ZM171.691 451.935C160.248 465.384 156.832 479.859 158.308 494.932C159.771 509.877 166.037 525.375 173.805 541.062C177.697 548.922 182 556.894 186.308 564.905C190.624 572.93 194.948 581.001 198.924 589.125C206.884 605.39 213.357 621.696 215.497 637.917L220.364 637.275C218.12 620.262 211.37 603.389 203.334 586.967C199.311 578.747 194.944 570.597 190.632 562.579C186.313 554.548 182.053 546.655 178.205 538.883C170.492 523.306 164.567 508.471 163.194 494.454C161.834 480.566 164.937 467.449 175.43 455.117L171.691 451.935Z" fill="#CEECEF"/>
</g>
<ellipse cx="337.5" cy="1392.01" rx="313.5" ry="285" stroke="#B9E2E7" stroke-width="2" stroke-linecap="round" stroke-linejoin="round" stroke-dasharray="4.24 4.24"/>
<ellipse cx="337.5" cy="1273.51" rx="313.5" ry="270.5" stroke="#B9E2E7" stroke-width="2" stroke-linecap="round" stroke-linejoin="round" stroke-dasharray="4.24 4.24"/>
<path d="M606 1361.51C606 1489.36 546 1693.01 348 1693.01C84 1693.01 69 1489.36 69 1361.51C69 1233.65 189.212 1130.01 337.5 1130.01C485.788 1130.01 606 1233.65 606 1361.51Z" fill="#B9E2E7"/>
</svg>
