<svg width="161" height="139" viewBox="0 0 161 139" fill="none" xmlns="http://www.w3.org/2000/svg">
<rect x="14.2023" y="35.1836" width="88" height="80" transform="rotate(-9.28325 14.2023 35.1836)" stroke="white" stroke-width="2" stroke-linecap="round" stroke-linejoin="round" stroke-dasharray="8 8"/>
<circle cx="63.5545" cy="35.2067" r="24" transform="rotate(24.3451 63.5545 35.2067)" fill="#602B7A"/>
<path d="M55.2247 27.5371L75.4962 36.7093" stroke="white" stroke-width="3.50845" stroke-linecap="round" stroke-linejoin="round"/>
<path d="M50.9532 34.3633L71.2247 43.5355" stroke="white" stroke-width="3.50845" stroke-linecap="round" stroke-linejoin="round"/>
<rect x="57.142" y="61.9375" width="50.0761" height="50.0761" rx="6" transform="rotate(-31.9304 57.142 61.9375)" fill="#7ECBD2"/>
<path d="M76.2849 66.9609L106.772 74.0384" stroke="#602B7A" stroke-width="3.50845" stroke-linecap="round" stroke-linejoin="round"/>
<path d="M87.9895 85.7422L95.067 55.2553" stroke="#602B7A" stroke-width="3.50845" stroke-linecap="round" stroke-linejoin="round"/>
<path d="M53.293 49.168C56.8709 46.247 62.2691 48.2946 63.0098 52.8536L70.0395 96.1192C70.7802 100.678 66.3079 104.329 61.9893 102.691L21.0054 87.1465C16.6868 85.5085 15.7609 79.8097 19.3387 76.8887L53.293 49.168Z" fill="white"/>
<path d="M37.4696 84.9766L60.3015 66.3364" stroke="#7ECBD2" stroke-width="3.50845" stroke-linecap="round" stroke-linejoin="round"/>
<circle cx="41.9064" cy="68.4995" r="4.06094" transform="rotate(5.7714 41.9064 68.4995)" stroke="#7ECBD2" stroke-width="3.50845" stroke-linecap="round" stroke-linejoin="round"/>
<circle cx="55.1078" cy="83.7905" r="4.06094" transform="rotate(5.7714 55.1078 83.7905)" stroke="#7ECBD2" stroke-width="3.50845" stroke-linecap="round" stroke-linejoin="round"/>
</svg>
