<svg width="145" height="143" viewBox="0 0 145 143" fill="none" xmlns="http://www.w3.org/2000/svg">
<path d="M40 118.295L36.5 138.561L26.2051 138.933" stroke="#602B7A" stroke-width="3.50845" stroke-linecap="round" stroke-linejoin="round"/>
<path d="M72 116.785L78.3038 137.952L86.2995 138.215" stroke="#602B7A" stroke-width="3.50845" stroke-linecap="round" stroke-linejoin="round"/>
<path d="M44 77.0352C42.8333 87.8685 50 128.035 19 121.035" stroke="#7ECBD2" stroke-width="11.9595"/>
<path d="M23.1133 89.4503C26.4307 95.1119 36.223 96.4135 36.223 96.4135M36.223 96.4135L40.4759 101.099M36.223 96.4135L43.2485 96.9671M36.223 96.4135L42.043 91.5705" stroke="#602B7A" stroke-width="3.50845" stroke-linecap="round" stroke-linejoin="round"/>
<path d="M58.5193 27.4463C60.659 26.5775 62.9369 28.3509 62.6194 30.6383L57.2243 69.5105C56.9069 71.7979 54.2322 72.8839 52.4099 71.4652L21.4432 47.3569C19.6209 45.9382 20.0178 43.0789 22.1575 42.2101L58.5193 27.4463Z" fill="#602B7A"/>
<path d="M53.3509 39.1239C54.4844 39.5522 54.9318 40.8929 54.2788 41.9151C52.9988 43.9201 50.5752 46.9455 47.0515 48.1112C43.5278 49.2769 39.7711 48.2983 37.5452 47.4557C36.4117 47.0274 35.9643 45.6866 36.6173 44.6644C37.8973 42.6594 40.3209 39.6341 43.8446 38.4684C47.3683 37.3026 51.125 38.2812 53.3509 39.1239Z" fill="white"/>
<path d="M49.5657 41.9349C48.7959 39.6171 46.3258 38.3403 44.0486 39.0833C41.7714 39.8262 40.5494 42.3075 41.3192 44.6254C42.089 46.9432 44.559 48.22 46.8362 47.477C49.1134 46.7341 50.3355 44.2528 49.5657 41.9349Z" fill="#1C90D2"/>
<path d="M47.3432 42.6604C46.9888 41.5933 45.851 41.0058 44.8018 41.3481C43.7526 41.6904 43.1893 42.8329 43.5436 43.9C43.898 44.967 45.0359 45.5545 46.0851 45.2122C47.1343 44.8699 47.6976 43.7274 47.3432 42.6604Z" fill="#602B7A"/>
<path d="M48.3832 57.0851C45.2452 57.414 43.3158 57.2913 40.5408 55.6848" stroke="#F55277" stroke-width="2.20838" stroke-linecap="round" stroke-linejoin="round"/>
<path d="M88.36 42.0555L87.9244 56.8198L80.334 64.4362M88.36 42.0555L93.0401 38.2435M88.36 42.0555L89.5545 35.3425M88.36 42.0555L84.8816 37.125" stroke="#602B7A" stroke-width="3.50845" stroke-linecap="round" stroke-linejoin="round"/>
<path d="M81.9061 63.8812C63.7459 74.723 58.6907 76.9205 42.405 73.3164C20.6362 68.499 17.3978 82.3105 20.1087 88.0025C22.0176 92.0103 24.9302 93.3554 30.6791 95.0497" stroke="#7ECBD2" stroke-width="11.9595"/>
<path d="M22.0558 41.7446C19.4105 42.9052 17.1399 42.9178 17.1111 42.9163C15.7561 42.914 14.6535 43.9973 14.6465 45.3379C14.6472 46.6483 15.6765 47.7189 16.9789 47.7856L17.0772 47.7906C17.2249 47.7921 20.7965 47.8103 24.7641 45.8679C29.4707 43.5672 36.1239 38.855 39.385 33.1464C41.0155 30.292 42.4061 26.95 42.4627 26.8066C42.9759 25.5651 42.3775 24.1388 41.1163 23.6293C39.8612 23.1201 38.4204 23.7107 37.9069 24.9583C37.9069 24.9583 37.9016 24.9708 37.8933 24.9904C37.791 25.2322 37.1287 26.7987 36.2543 28.5625C33.691 26.3616 28.3744 21.805 27.3488 20.9943C25.9865 19.9238 16.0539 31.8576 16.7564 33.9011C17.2382 35.2907 20.2055 39.3123 22.0558 41.7446Z" fill="white"/>
<path d="M14.1955 16.6571C11.916 18.975 6.5155 26.5713 8.83181 35.8095" stroke="#602B7A" stroke-width="1.87282" stroke-linecap="round" stroke-linejoin="round"/>
<path d="M65 76.7852L73.25 121.785" stroke="#7ECBD2" stroke-width="11.9595"/>
<path d="M114.805 41.0547L129.955 67.3017L138.269 62.2166M125.053 58.8416L130.229 56.1489" stroke="#F55277" stroke-width="4"/>
<circle cx="102.359" cy="33.9201" r="5.78482" transform="rotate(-30 102.359 33.9201)" stroke="#F55277" stroke-width="4"/>
<circle cx="114.514" cy="26.9025" r="5.78482" transform="rotate(-30 114.514 26.9025)" stroke="#F55277" stroke-width="4"/>
<circle cx="112.988" cy="38.2971" r="5.78482" transform="rotate(-30 112.988 38.2971)" stroke="#F55277" stroke-width="4"/>
</svg>
