<svg width="3000" height="4244" viewBox="0 0 3000 4244" fill="none" xmlns="http://www.w3.org/2000/svg">
<g opacity="0.5">
<mask id="mask0" mask-type="alpha" maskUnits="userSpaceOnUse" x="619" y="40" width="858" height="858">
<circle cx="1048.03" cy="468.902" r="428.705" transform="rotate(-13.2435 1048.03 468.902)" fill="#1C90D2"/>
</mask>
<g mask="url(#mask0)">
<rect x="1534.84" y="58.5801" width="86.1786" height="1254.57" transform="rotate(61.7565 1534.84 58.5801)" fill="#CEECEF"/>
<rect x="1524.12" y="175.406" width="86.1786" height="1254.57" transform="rotate(61.7565 1524.12 175.406)" fill="#CEECEF"/>
<rect x="1599.54" y="259.17" width="83.9371" height="1254.57" transform="rotate(61.7565 1599.54 259.17)" fill="#CEECEF"/>
<rect x="1708.68" y="363.008" width="70.6658" height="1254.57" transform="rotate(61.7565 1708.68 363.008)" fill="#CEECEF"/>
<rect x="1802.99" y="448.24" width="54.9784" height="1254.57" transform="rotate(61.7565 1802.99 448.24)" fill="#CEECEF"/>
<rect x="1488.46" y="-41.2969" width="103.259" height="1254.57" transform="rotate(61.7565 1488.46 -41.2969)" fill="#CEECEF"/>
<rect x="1175.85" y="-17.834" width="124.932" height="725.792" transform="rotate(61.7565 1175.85 -17.834)" fill="#CEECEF"/>
<rect x="1411.03" y="-274.016" width="112.47" height="1254.57" transform="rotate(61.7565 1411.03 -274.016)" fill="#CEECEF"/>
<circle r="364.802" transform="matrix(-0.973405 0.22909 0.22909 0.973405 1105.25 452.497)" fill="white"/>
</g>
<mask id="mask1" mask-type="alpha" maskUnits="userSpaceOnUse" x="1209" y="70" width="584" height="584">
<circle cx="1501.26" cy="362.233" r="291.344" transform="rotate(-13.2435 1501.26 362.233)" fill="#FAAB45"/>
</mask>
<g mask="url(#mask1)">
<path d="M1165.46 339.96L1170.17 186.234L1257.98 279.595L1262.7 125.713L1350.58 219.154L1355.28 65.8184L1442.9 158.978L1447.6 5.60336L1534.93 98.4617" stroke="#CEECEF" stroke-width="30"/>
<path d="M1217.2 479.611L1221.92 325.886L1309.72 419.246L1314.44 265.365L1402.32 358.806L1407.03 205.47L1494.64 298.63L1499.34 145.255L1586.68 238.113L1591.36 85.3428L1678.7 178.211L1683.41 24.8073L1771.06 118.002L1775.74 -34.7831L1862.94 57.9321L1867.39 -87.2159" stroke="#CEECEF" stroke-width="30"/>
<path d="M1268.95 619.264L1273.66 465.538L1361.47 558.899L1366.19 405.017L1454.07 498.458L1458.77 345.122L1546.39 438.282L1551.09 284.907L1638.42 377.766L1643.11 224.995L1730.45 317.864L1735.15 164.46L1822.8 257.654L1827.49 104.869L1914.68 197.584L1919.14 52.4364" stroke="#CEECEF" stroke-width="30"/>
<path d="M1320.69 758.914L1325.41 605.189L1413.21 698.549L1417.93 544.668L1505.81 638.108L1510.51 484.773L1598.13 577.932L1602.83 424.558L1690.16 517.416L1694.85 364.646L1782.19 457.514L1786.9 304.11L1874.54 397.305L1879.23 244.52L1966.43 337.235L1970.88 192.087" stroke="#CEECEF" stroke-width="30"/>
<path d="M1562.26 624.426L1649.87 717.585L1654.58 564.211L1741.91 657.069L1746.59 504.298L1833.94 597.167L1838.64 443.763L1926.29 536.958L1930.97 384.173L2018.17 476.888L2022.62 331.74" stroke="#CEECEF" stroke-width="30"/>
<path d="M1424.18 1038.22L1428.89 884.491L1516.7 977.852L1521.42 823.97L1609.3 917.411L1614 764.076L1701.62 857.235L1706.32 703.86L1793.65 796.719L1798.34 643.948L1885.68 736.817L1890.38 583.413L1978.03 676.608L1982.72 523.822L2069.92 616.538L2074.37 471.39" stroke="#CEECEF" stroke-width="30"/>
<circle cx="1501.26" cy="362.233" r="219.293" transform="rotate(-13.2435 1501.26 362.233)" fill="white"/>
</g>
<circle cx="1204.98" cy="494.868" r="34.9067" transform="rotate(-13.2435 1204.98 494.868)" fill="#CEECEF"/>
<circle cx="710.67" cy="113.766" r="21.84" transform="rotate(-13.2435 710.67 113.766)" fill="#CEECEF"/>
<circle cx="1858.4" cy="278.182" r="209.04" transform="rotate(-13.2435 1858.4 278.182)" fill="#CEECEF"/>
<mask id="mask2" mask-type="alpha" maskUnits="userSpaceOnUse" x="1649" y="69" width="419" height="419">
<circle cx="1858.4" cy="278.182" r="209.04" transform="rotate(-13.2435 1858.4 278.182)" fill="white"/>
</mask>
<g mask="url(#mask2)">
<circle cx="1858.4" cy="278.182" r="199.04" transform="rotate(-13.2435 1858.4 278.182)" fill="#CEECEF" stroke="#CEECEF" stroke-width="20"/>
<circle cx="1858.4" cy="278.182" r="166.592" transform="rotate(-13.2435 1858.4 278.182)" stroke="#CEECEF" stroke-width="20"/>
<circle cx="1858.4" cy="278.182" r="133.125" transform="rotate(-13.2435 1858.4 278.182)" stroke="#CEECEF" stroke-width="20"/>
</g>
<circle cx="2147.24" cy="209.448" r="153.128" transform="rotate(-13.2435 2147.24 209.448)" fill="#CEECEF"/>
<circle cx="2147.24" cy="209.447" r="138.248" transform="rotate(-13.2435 2147.24 209.447)" fill="#CEECEF"/>
<circle cx="2147.24" cy="209.448" r="70.7587" transform="rotate(-13.2435 2147.24 209.448)" fill="#CEECEF"/>
<mask id="mask3" mask-type="alpha" maskUnits="userSpaceOnUse" x="1994" y="56" width="307" height="307">
<circle cx="2147.24" cy="209.448" r="153.128" transform="rotate(-13.2435 2147.24 209.448)" fill="#F55277"/>
</mask>
<g mask="url(#mask3)">
<path d="M2040.9 428.274C2040.9 428.274 2048.45 382.773 2092.23 360.37C2145.15 333.291 2164.14 366.973 2213.2 344.732C2260.48 323.293 2248.48 280.066 2289.01 252.953C2326.72 227.726 2379.83 245.185 2379.83 245.185" stroke="#CEECEF" stroke-width="20"/>
<path d="M2018.04 399.43C2018.04 399.43 2025.59 353.929 2069.37 331.526C2122.29 304.447 2141.28 338.129 2190.34 315.888C2237.62 294.449 2225.62 251.222 2266.15 224.11C2303.86 198.882 2356.97 216.341 2356.97 216.341" stroke="#CEECEF" stroke-width="20"/>
<path d="M1995.17 370.586C1995.17 370.586 2002.73 325.086 2046.51 302.683C2099.43 275.604 2118.42 309.285 2167.47 287.044C2214.76 265.605 2202.75 222.379 2243.28 195.266C2281 170.038 2334.11 187.498 2334.11 187.498" stroke="#CEECEF" stroke-width="20"/>
<path d="M1972.31 341.743C1972.31 341.743 1979.87 296.242 2023.65 273.839C2076.57 246.76 2095.56 280.442 2144.61 258.2C2191.9 236.761 2179.89 193.535 2220.42 166.422C2258.13 141.195 2311.25 158.654 2311.25 158.654" stroke="#CEECEF" stroke-width="20"/>
<path d="M1949.45 312.897C1949.45 312.897 1957 267.396 2000.79 244.993C2053.7 217.914 2072.7 251.596 2121.75 229.355C2169.04 207.916 2157.03 164.689 2197.56 137.576C2235.27 112.349 2288.39 129.808 2288.39 129.808" stroke="#CEECEF" stroke-width="20"/>
<path d="M1926.59 284.053C1926.59 284.053 1934.14 238.553 1977.92 216.15C2030.84 189.07 2049.84 222.752 2098.89 200.511C2146.17 179.072 2134.17 135.845 2174.7 108.733C2212.41 83.5052 2265.52 100.964 2265.52 100.964" stroke="#CEECEF" stroke-width="20"/>
<path d="M1903.73 255.209C1903.73 255.209 1911.28 209.709 1955.06 187.306C2007.98 160.227 2026.98 193.908 2076.03 171.667C2123.31 150.228 2111.31 107.002 2151.84 79.889C2189.55 54.6615 2242.66 72.1206 2242.66 72.1206" stroke="#CEECEF" stroke-width="20"/>
<path d="M1880.87 226.366C1880.87 226.366 1888.42 180.865 1932.2 158.462C1985.12 131.383 2004.12 165.065 2053.17 142.823C2100.45 121.384 2088.45 78.1579 2128.98 51.0452C2166.69 25.8177 2219.8 43.2769 2219.8 43.2769" stroke="#CEECEF" stroke-width="20"/>
<path d="M1858.01 197.522C1858.01 197.522 1865.56 152.021 1909.34 129.618C1962.26 102.539 1981.26 136.221 2030.31 113.98C2077.59 92.5407 2065.59 49.3142 2106.12 22.2015C2143.83 -3.02605 2196.94 14.4331 2196.94 14.4331" stroke="#CEECEF" stroke-width="20"/>
</g>
<circle cx="2273.29" cy="57.1677" r="15.9408" transform="rotate(-13.2435 2273.29 57.1677)" fill="#CEECEF"/>
<circle cx="1175.13" cy="146.001" r="21.623" transform="rotate(-13.2435 1175.13 146.001)" fill="#CEECEF"/>
<path d="M506.697 580.825C503.839 583.822 503.951 588.57 506.949 591.428C509.946 594.287 514.694 594.175 517.552 591.177L506.697 580.825ZM2432.12 138.001L2346.98 153.804L2403.24 219.643L2432.12 138.001ZM512.125 586.001C517.552 591.177 517.552 591.177 517.553 591.177C517.554 591.175 517.555 591.174 517.558 591.171C517.563 591.166 517.572 591.157 517.583 591.145C517.607 591.12 517.643 591.082 517.692 591.031C517.79 590.929 517.94 590.773 518.14 590.567C518.539 590.153 519.139 589.535 519.93 588.727C521.513 587.112 523.861 584.739 526.902 581.729C532.982 575.71 541.827 567.151 552.849 557.025C574.907 536.76 605.616 510.285 640.288 485.356C675.009 460.392 713.429 437.179 750.922 423.217C788.529 409.213 824.181 404.89 854.088 416.179L859.385 402.145C824.597 389.014 784.825 394.586 745.688 409.16C706.436 423.777 666.789 447.827 631.531 473.177C596.225 498.563 565.041 525.455 542.701 545.979C531.524 556.247 522.544 564.937 516.349 571.069C513.251 574.135 510.849 576.563 509.216 578.229C508.4 579.063 507.776 579.706 507.353 580.143C507.141 580.362 506.98 580.53 506.87 580.644C506.816 580.701 506.774 580.745 506.745 580.775C506.73 580.79 506.719 580.802 506.711 580.81C506.707 580.814 506.704 580.818 506.702 580.82C506.699 580.823 506.697 580.825 512.125 586.001ZM854.088 416.179C916.623 439.783 951.777 490.636 994.707 537.228C1015.91 560.237 1038.9 581.926 1067.79 597.127C1096.81 612.4 1131.38 620.922 1175.46 618.272L1174.56 603.299C1133.07 605.793 1101.25 597.788 1074.77 583.853C1048.16 569.845 1026.54 549.642 1005.74 527.064C964.66 482.482 926.238 427.379 859.385 402.145L854.088 416.179ZM1175.46 618.272C1265.02 612.888 1306.93 549.719 1357.59 486.474C1408.54 422.864 1470.07 355.926 1599.41 333.39L1596.84 318.612C1462.18 342.076 1397.71 412.386 1345.88 477.097C1293.76 542.172 1256.11 598.396 1174.56 603.299L1175.46 618.272ZM1599.41 333.39C1663.49 322.224 1707.58 336.289 1741.66 363.041C1776.23 390.179 1801.08 430.784 1825.56 474.186C1849.74 517.085 1873.61 562.856 1905.98 597.601C1938.75 632.774 1980.51 657.005 2040.37 657.005L2040.37 642.005C1985.36 642.005 1947.39 620.047 1916.95 587.376C1886.11 554.277 1863.28 510.547 1838.62 466.819C1814.25 423.595 1788.13 380.45 1750.92 351.243C1713.23 321.651 1664.76 306.778 1596.84 318.612L1599.41 333.39ZM2040.37 657.005C2094.32 657.005 2134.76 636.295 2166.91 603.018C2198.79 570.025 2222.44 524.764 2243.56 475.634C2254.15 451.015 2264.18 425.221 2274.29 399.337C2284.42 373.407 2294.63 347.366 2305.66 322.032C2327.75 271.308 2352.88 223.965 2386.38 186.873L2375.25 176.818C2340.11 215.721 2314.21 264.832 2291.91 316.044C2280.75 341.678 2270.43 367.975 2260.31 393.879C2250.18 419.831 2240.25 445.37 2229.78 469.709C2208.81 518.495 2186.02 561.65 2156.12 592.595C2126.5 623.255 2089.84 642.005 2040.37 642.005L2040.37 657.005Z" fill="#CEECEF"/>
</g>
<path d="M3068 2101C3068 2410.8 3302.26 3528.54 3252 3863C3179.6 4344.8 2621.31 4232 1724.12 4232C842.95 4232 73.339 4265 -180.001 4175C-411.231 3779.74 -100 2516.47 -100 2101C-100 1344.92 711.133 732 1500.62 732C2290.12 732 3068 1344.92 3068 2101Z" fill="#E7F6F7"/>
<ellipse cx="1497.62" cy="2136.5" rx="995.5" ry="935.5" fill="#E7F6F7" stroke="#B9E2E7" stroke-width="3" stroke-linecap="round" stroke-linejoin="round" stroke-dasharray="16 16"/>
<ellipse cx="1500.62" cy="2161" rx="830.5" ry="780" fill="#E7F6F7" stroke="#B9E2E7" stroke-width="3" stroke-linecap="round" stroke-linejoin="round" stroke-dasharray="16 16"/>
<ellipse cx="1500.62" cy="2148.5" rx="802.5" ry="732.5" fill="#B9E2E7"/>
</svg>
