<svg width="1871" height="988" viewBox="0 0 1871 988" fill="none" xmlns="http://www.w3.org/2000/svg">
<path fill-rule="evenodd" clip-rule="evenodd" d="M76.1027 289.385L473.391 54.9446C433.53 55.1353 393.034 60.5823 352.779 71.78C230.368 105.831 133.509 186.571 76.1027 289.385ZM74.1558 292.908C42.9142 350.03 23.7812 413.815 19.1064 480.101L158.044 398.114C157.762 399.238 157.486 400.364 157.214 401.491L18.9044 483.107C16.3314 523.403 19.1022 564.598 27.7429 605.76L148.749 534.355C149.031 536.927 149.34 539.501 149.675 542.075L29.3424 613.084C30.9856 620.326 32.8115 627.565 34.823 634.796C41.3344 658.204 49.5531 680.678 59.307 702.12L173.498 634.736C175.032 638.65 176.624 642.527 178.273 646.367L64.6373 713.424C78.2904 741.378 94.5911 767.486 113.138 791.522L224.322 725.912C229.362 732.624 234.605 739.153 240.041 745.49L129.039 810.992C149.5 834.677 172.249 856.071 196.841 874.925L309.097 808.682C328.745 822.731 349.659 834.933 371.545 845.123L255.877 913.379C283.345 928.408 312.354 940.637 342.441 949.805L468.191 875.6C499.002 881.041 530.741 882.795 562.791 880.516L417.953 965.985C455.773 970.782 494.601 970.87 533.639 965.8L844.038 782.633C866.889 751.425 885.733 717.418 900.08 681.481L862.109 703.887C879.315 677.31 893.272 648.681 903.607 618.66L922.597 607.454C929.099 577.025 932.528 545.734 932.633 514.024L923.825 519.222C925.473 495.428 924.932 471.258 922.052 446.976L927.413 443.813C924.661 425.791 920.803 407.74 915.795 389.736C912.372 377.43 908.477 365.382 904.135 353.607L900.018 356.036C897.077 348.145 893.899 340.398 890.496 332.801L894.794 330.265C882.427 301.661 867.354 274.832 849.97 249.998L843.218 253.982C840.647 250.665 838.025 247.396 835.354 244.173L842.663 239.86C823.827 214.469 802.522 191.295 779.201 170.591L765.669 178.577C763.575 177.044 761.467 175.532 759.344 174.041L773.551 165.658C742.257 138.78 707.493 116.269 670.305 98.7145L638.976 117.202C637.861 116.893 636.745 116.59 635.627 116.291L658.386 102.861L650.838 90.0705C596.587 67.4728 537.765 55.19 477.417 54.9432L74.1558 292.908ZM638.976 117.202L157.214 401.491C146.92 444.198 143.773 489.061 148.749 534.355L759.344 174.041C722.872 148.433 682.137 129.141 638.976 117.202ZM765.669 178.577L149.675 542.075C152.039 560.233 155.714 578.444 160.764 596.598C164.398 609.66 168.656 622.381 173.498 634.736L835.354 244.173C814.798 219.372 791.347 197.38 765.669 178.577ZM843.218 253.982L178.273 646.367C190.606 675.076 206.139 701.694 224.322 725.912L890.496 332.801C877.729 304.306 861.786 277.929 843.218 253.982ZM900.018 356.036L240.041 745.49C260.539 769.388 283.766 790.57 309.097 808.682L922.052 446.976C919.725 427.366 915.874 407.683 910.417 388.068C907.379 377.147 903.905 366.465 900.018 356.036ZM923.825 519.222L371.545 845.123C402.127 859.361 434.608 869.67 468.191 875.6L903.607 618.66C914.569 586.817 921.457 553.409 923.825 519.222ZM862.109 703.887L562.791 880.516C588.385 878.695 614.178 874.302 639.856 867.159C735.163 840.648 812.268 780.876 862.109 703.887ZM635.627 116.291L158.044 398.114C190.947 266.783 291.565 156.384 431.325 117.506C500.644 98.2241 570.802 98.981 635.627 116.291Z" fill="#CEECEF" fill-opacity="0.2"/>
<path fill-rule="evenodd" clip-rule="evenodd" d="M1119.59 139.419L1070.46 91.2177C1055.07 84.9645 1039.14 79.9286 1022.84 76.1944L1022.88 80.4076L1023.6 155.966C1033.91 159.206 1043.97 163.151 1053.71 167.76L1053.22 116.334L1124.42 186.195L1150.27 211.557L1149.93 175.345L1149.57 137.937C1139.93 130.123 1129.84 122.9 1119.37 116.304L1119.59 139.419ZM730.073 447.59C729.494 445.694 728.937 443.785 728.402 441.864C724.159 426.611 721.53 411.29 720.413 396.084L664.995 341.71L647.733 324.774C639.799 369.205 641.466 416.066 654.37 462.457C658.787 478.334 664.359 493.579 670.971 508.126L669.833 388.486L730.073 447.59ZM735.596 294.776C739.832 283.856 744.876 273.276 750.677 263.127L735.15 247.893L735.495 284.104L735.596 294.776ZM768.658 236.165L713.511 182.057C719.843 174.327 726.558 166.889 733.637 159.776L771.679 197.102L771.02 127.756C780.522 120.849 790.471 114.447 800.839 108.6L801.721 201.369C789.472 211.853 778.407 223.53 768.658 236.165ZM860.826 164.523L802.743 107.535C811.952 102.427 821.487 97.7543 831.328 93.5522L867.479 129.022L867.021 80.8111C868.161 80.4801 869.304 80.1552 870.45 79.8363C879.275 77.3816 888.116 75.3336 896.954 73.6809L897.7 152.119C895.481 152.668 893.262 153.251 891.045 153.867C880.597 156.774 870.513 160.345 860.826 164.523ZM927.374 146.767L927.044 111.981L952.893 137.343L961.069 145.365C949.929 145.019 938.673 145.472 927.374 146.767ZM797.783 553.526C807.241 561.969 817.353 569.616 828.002 576.4L828.175 594.603L828.52 630.815L802.671 605.453L730.954 535.087L731.538 596.477C720.583 585.296 710.427 573.237 701.193 560.369L700.611 499.161L700.266 462.95L726.115 488.312L797.832 558.677L797.783 553.526ZM1182.29 329.598C1181.33 325.233 1180.25 320.869 1179.04 316.51C1173.6 296.963 1165.84 278.69 1156.13 261.907L1180.71 286.02L1179.56 165.695C1190.57 177.324 1200.74 189.862 1209.92 203.236L1211.05 321.946L1211.39 358.158L1185.55 332.796L1182.29 329.598ZM929.525 611.869L955.041 636.905L954.815 613.118C964.749 613.065 974.76 612.375 984.796 611.017L985.384 672.831L985.532 688.32C979.021 688.998 972.522 689.466 966.043 689.729L959.88 683.681L888.079 613.233L888.743 683.098C878.563 680.912 868.525 678.22 858.665 675.042L857.881 592.528C880.394 602.657 904.564 609.267 929.525 611.869ZM1037.35 597.616L1055.68 615.602L1081.53 640.964L1081.18 604.752L1080.91 575.53C1067.41 584.266 1052.85 591.702 1037.35 597.616ZM1110.42 552.877C1110.61 552.704 1110.8 552.531 1110.99 552.358L1136.25 577.147L1165.92 606.249C1158.61 613.091 1150.94 619.599 1142.95 625.741L1141.09 623.923L1141.12 627.131C1131.64 634.302 1121.69 640.964 1111.31 647.062L1110.75 587.996L1110.42 552.877ZM1133.03 529.377C1152.02 506.666 1166.58 480.51 1175.87 452.39L1176.67 536.322L1177.01 572.534L1151.16 547.172L1133.03 529.377ZM1184.36 418.269C1186.53 405.554 1187.65 392.581 1187.66 379.471L1241.83 432.621L1240.61 305.159L1240.27 268.948L1246.47 275.035C1248.9 281.866 1251.1 288.828 1253.07 295.917C1270.6 358.924 1267.39 422.801 1247.56 480.277L1246.67 479.397L1184.36 418.269ZM675.591 265.475L667.709 257.741C663.413 267.838 659.646 278.173 656.43 288.703L680.43 312.251L706.279 337.612L705.934 301.401L704.904 193.057C693.621 208.162 683.732 224.257 675.36 241.123L675.591 265.475ZM967.803 107.368L929.094 69.3898C943.302 68.2447 957.439 68.094 971.421 68.8904L988.813 85.9545L967.803 107.368ZM1231.75 509.362L1234.57 512.129C1226.67 528.781 1217.32 544.715 1206.62 559.727L1206.24 520.211L1205.9 484L1231.75 509.362ZM1036.99 678.537C1046.55 675.877 1055.89 672.798 1064.97 669.325L1040.45 645.267L1019.44 666.681L1032.71 679.696C1034.14 679.32 1035.56 678.934 1036.99 678.537ZM761.518 623.35C774.966 633.919 789.251 643.355 804.211 651.568L787.236 634.913L761.387 609.551L761.518 623.35Z" fill="#CEECEF" fill-opacity="0.2"/>
<circle cx="614.656" cy="551.573" r="37.2277" transform="rotate(-15.5449 614.656 551.573)" fill="#CEECEF" fill-opacity="0.2"/>
<circle cx="100.603" cy="148.27" r="23.2922" transform="rotate(-15.5449 100.603 148.27)" fill="#CEECEF" fill-opacity="0.2"/>
<circle cx="1635.55" cy="188.708" r="75.4635" transform="rotate(-15.5449 1635.55 188.708)" fill="#CEECEF" fill-opacity="0.2"/>
<circle cx="1814.87" cy="47.0688" r="17.0007" transform="rotate(-15.5449 1814.87 47.0688)" fill="#CEECEF" fill-opacity="0.2"/>
<circle cx="1113.57" cy="75.2148" r="23.0607" transform="rotate(-15.5449 1113.57 75.2148)" fill="#CEECEF" fill-opacity="0.2"/>
<path fill-rule="evenodd" clip-rule="evenodd" d="M1675.06 330.755C1753.51 308.932 1799.42 227.645 1777.6 149.195C1755.78 70.7443 1674.49 24.8384 1596.04 46.6609C1517.59 68.4834 1471.68 149.771 1493.5 228.221C1515.33 306.671 1596.61 352.577 1675.06 330.755ZM1638.69 283.099C1691.37 280.982 1732.35 236.566 1730.23 183.892C1728.12 131.218 1683.7 90.2341 1631.03 92.351C1578.35 94.4679 1537.37 138.884 1539.48 191.558C1541.6 244.232 1586.02 285.216 1638.69 283.099Z" fill="#CEECEF" fill-opacity="0.2"/>
<path fill-rule="evenodd" clip-rule="evenodd" d="M1545.48 214.578C1578.48 333.2 1509.07 456.112 1390.44 489.109C1271.82 522.106 1148.91 452.693 1115.91 334.071C1082.91 215.449 1152.33 92.5367 1270.95 59.5396C1389.57 26.5424 1512.48 95.9555 1545.48 214.578ZM1375.81 436.501C1465.38 411.586 1517.79 318.779 1492.87 229.212C1467.96 139.645 1375.15 87.2333 1285.58 112.148C1196.02 137.063 1143.61 229.869 1168.52 319.437C1193.43 409.004 1286.24 461.416 1375.81 436.501ZM1381.17 455.769C1481.38 427.894 1540.02 324.061 1512.14 223.852C1484.27 123.643 1380.43 65.0047 1280.22 92.8798C1180.01 120.755 1121.38 224.588 1149.25 324.797C1177.13 425.006 1280.96 483.644 1381.17 455.769ZM1332.63 329.554C1363.23 328.325 1387.04 302.518 1385.81 271.915C1384.58 241.311 1358.78 217.499 1328.17 218.729C1297.57 219.959 1273.76 245.765 1274.99 276.369C1276.22 306.972 1302.02 330.784 1332.63 329.554Z" fill="#CEECEF" fill-opacity="0.2"/>
</svg>
