<svg width="145" height="47" viewBox="0 0 145 47" fill="none" xmlns="http://www.w3.org/2000/svg">
<path d="M33.4485 35.6222V46.4057H31.1839V39.3102L28.0782 44.249H27.7979L24.7138 39.3317V46.4057H22.4492V35.6222H24.8216L27.9488 40.6042L31.0761 35.6222H33.4485Z" fill="white"/>
<path d="M44.6799 35.6222H47.0091V46.4057H44.6799V44.8529C43.8028 46.0751 42.5447 46.6861 40.9056 46.6861C39.4247 46.6861 38.1594 46.1398 37.1098 45.047C36.0602 43.9399 35.5354 42.5956 35.5354 41.014C35.5354 39.418 36.0602 38.0736 37.1098 36.9809C38.1594 35.8882 39.4247 35.3418 40.9056 35.3418C42.5447 35.3418 43.8028 35.9457 44.6799 37.1534V35.6222ZM38.8352 43.4942C39.4822 44.1412 40.2946 44.4647 41.2723 44.4647C42.25 44.4647 43.0624 44.1412 43.7094 43.4942C44.3564 42.8328 44.6799 42.006 44.6799 41.014C44.6799 40.0219 44.3564 39.2023 43.7094 38.5553C43.0624 37.8939 42.25 37.5632 41.2723 37.5632C40.2946 37.5632 39.4822 37.8939 38.8352 38.5553C38.1882 39.2023 37.8647 40.0219 37.8647 41.014C37.8647 42.006 38.1882 42.8328 38.8352 43.4942Z" fill="white"/>
<path d="M57.9627 35.6222V37.8652H54.4473V46.4057H52.118V37.8652H48.581V35.6222H57.9627Z" fill="white"/>
<path d="M60.9508 42.006C61.1233 42.8256 61.5187 43.4582 62.137 43.904C62.7552 44.3353 63.5101 44.551 64.4015 44.551C65.6381 44.551 66.5654 44.1053 67.1837 43.2138L69.1032 44.3353C68.0392 45.9025 66.4648 46.6861 64.38 46.6861C62.6258 46.6861 61.2096 46.1541 60.1312 45.0901C59.0529 44.0118 58.5137 42.6531 58.5137 41.014C58.5137 39.4036 59.0457 38.0593 60.1097 36.9809C61.1737 35.8882 62.5396 35.3418 64.2074 35.3418C65.789 35.3418 67.0831 35.8954 68.0895 37.0025C69.1104 38.1096 69.6208 39.4539 69.6208 41.0355C69.6208 41.28 69.592 41.6035 69.5345 42.006H60.9508ZM60.9292 40.1081H67.27C67.1118 39.2311 66.7452 38.5697 66.17 38.124C65.6093 37.6782 64.9479 37.4554 64.1859 37.4554C63.3232 37.4554 62.6043 37.6926 62.0292 38.1671C61.454 38.6416 61.0874 39.2886 60.9292 40.1081Z" fill="white"/>
<path d="M82.6696 35.6222V46.4057H80.405V39.3102L77.2994 44.249H77.019L73.9349 39.3317V46.4057H71.6703V35.6222H74.0427L77.17 40.6042L80.2972 35.6222H82.6696Z" fill="white"/>
<path d="M93.901 35.6222H96.2303V46.4057H93.901V44.8529C93.024 46.0751 91.7659 46.6861 90.1268 46.6861C88.6458 46.6861 87.3806 46.1398 86.331 45.047C85.2814 43.9399 84.7566 42.5956 84.7566 41.014C84.7566 39.418 85.2814 38.0736 86.331 36.9809C87.3806 35.8882 88.6458 35.3418 90.1268 35.3418C91.7659 35.3418 93.024 35.9457 93.901 37.1534V35.6222ZM88.0563 43.4942C88.7033 44.1412 89.5157 44.4647 90.4934 44.4647C91.4711 44.4647 92.2835 44.1412 92.9305 43.4942C93.5775 42.8328 93.901 42.006 93.901 41.014C93.901 40.0219 93.5775 39.2023 92.9305 38.5553C92.2835 37.8939 91.4711 37.5632 90.4934 37.5632C89.5157 37.5632 88.7033 37.8939 88.0563 38.5553C87.4093 39.2023 87.0858 40.0219 87.0858 41.014C87.0858 42.006 87.4093 42.8328 88.0563 43.4942Z" fill="white"/>
<path d="M107.184 35.6222V37.8652H103.668V46.4057H101.339V37.8652H97.8022V35.6222H107.184Z" fill="white"/>
<path d="M116.567 35.6222H118.357V46.4057H116.071V39.5474L110.55 46.4057H108.76V35.6222H111.046V42.459L116.567 35.6222Z" fill="white"/>
<path d="M130.593 46.4057H127.81L123.389 41.4237V46.4057H121.06V35.6222H123.389V40.3885L127.573 35.6222H130.42L125.675 40.9061L130.593 46.4057Z" fill="white"/>
<path d="M139.837 35.6222H142.166V46.4057H139.837V44.8529C138.959 46.0751 137.701 46.6861 136.062 46.6861C134.581 46.6861 133.316 46.1398 132.266 45.047C131.217 43.9399 130.692 42.5956 130.692 41.014C130.692 39.418 131.217 38.0736 132.266 36.9809C133.316 35.8882 134.581 35.3418 136.062 35.3418C137.701 35.3418 138.959 35.9457 139.837 37.1534V35.6222ZM133.992 43.4942C134.639 44.1412 135.451 44.4647 136.429 44.4647C137.407 44.4647 138.219 44.1412 138.866 43.4942C139.513 42.8328 139.837 42.006 139.837 41.014C139.837 40.0219 139.513 39.2023 138.866 38.5553C138.219 37.8939 137.407 37.5632 136.429 37.5632C135.451 37.5632 134.639 37.8939 133.992 38.5553C133.345 39.2023 133.021 40.0219 133.021 41.014C133.021 42.006 133.345 42.8328 133.992 43.4942Z" fill="white"/>
<path d="M14.6782 20.5723L21.5861 27.4911L14.7076 34.3805L7.79973 27.4617L14.6782 20.5723Z" fill="white"/>
<path d="M0 0.791016H144.914V27.5078H0V0.791016Z" fill="white"/>
<path d="M32.1799 8.72615V19.5727H29.8606V10.9822H26.2744V15.0172C26.2744 16.7381 25.9022 17.9602 25.1577 18.6833C24.4133 19.4064 23.3539 19.7029 21.9795 19.5727V17.3817C22.6381 17.4974 23.132 17.36 23.4612 16.9695C23.7905 16.5791 23.9552 15.8921 23.9552 14.9087V8.72615H32.1799Z" fill="#602B7A"/>
<path d="M42.0764 8.72615V10.9822H37.2017V19.5727H34.8825V8.72615H42.0764Z" fill="#602B7A"/>
<path d="M48.2969 19.8547C46.7221 19.8547 45.3836 19.3052 44.2812 18.2061C43.1789 17.1069 42.6277 15.7547 42.6277 14.1494C42.6277 12.5441 43.1789 11.1919 44.2812 10.0928C45.3836 8.9937 46.7221 8.44414 48.2969 8.44414C49.886 8.44414 51.2246 8.9937 52.3127 10.0928C53.415 11.1919 53.9662 12.5441 53.9662 14.1494C53.9662 15.7547 53.415 17.1069 52.3127 18.2061C51.2246 19.3052 49.886 19.8547 48.2969 19.8547ZM45.9133 16.6008C46.5575 17.2516 47.3521 17.577 48.2969 17.577C49.2418 17.577 50.0364 17.2516 50.6806 16.6008C51.3248 15.95 51.647 15.1329 51.647 14.1494C51.647 13.166 51.3248 12.3489 50.6806 11.6981C50.0364 11.0473 49.2418 10.7219 48.2969 10.7219C47.3521 10.7219 46.5575 11.0473 45.9133 11.6981C45.269 12.3489 44.9469 13.166 44.9469 14.1494C44.9469 15.1329 45.269 15.95 45.9133 16.6008Z" fill="#602B7A"/>
<path d="M61.6278 8.44414C63.1023 8.44414 64.3622 9.00093 65.4073 10.1145C66.4524 11.2136 66.9749 12.5586 66.9749 14.1494C66.9749 15.7547 66.4524 17.1069 65.4073 18.2061C64.3622 19.3052 63.1023 19.8547 61.6278 19.8547C59.9957 19.8547 58.7429 19.2473 57.8696 18.0325V23.1407H55.5504V8.72615H57.8696V10.2881C58.7429 9.05878 59.9957 8.44414 61.6278 8.44414ZM58.836 16.6441C59.4803 17.2949 60.2892 17.6203 61.2627 17.6203C62.2362 17.6203 63.0451 17.2949 63.6893 16.6441C64.3336 15.9789 64.6557 15.1473 64.6557 14.1494C64.6557 13.1516 64.3336 12.3272 63.6893 11.6764C63.0451 11.0112 62.2362 10.6785 61.2627 10.6785C60.2892 10.6785 59.4803 11.0112 58.836 11.6764C58.1918 12.3272 57.8696 13.1516 57.8696 14.1494C57.8696 15.1473 58.1918 15.9789 58.836 16.6441Z" fill="#602B7A"/>
<path d="M76.3379 8.72615H78.1203V19.5727H75.844V12.6743L70.3464 19.5727H68.564V8.72615H70.8403V15.6029L76.3379 8.72615Z" fill="#602B7A"/>
<path d="M89.0145 8.72615V10.9822H85.5142V19.5727H83.195V10.9822H79.6732V8.72615H89.0145Z" fill="#602B7A"/>
<path d="M101.536 8.72615V19.5727H99.281V12.4357L96.1887 17.4034H95.9095L92.8387 12.4574V19.5727H90.5838V8.72615H92.946L96.0598 13.7373L99.1736 8.72615H101.536Z" fill="#602B7A"/>
<path d="M111.989 8.72615H113.771V19.5727H111.495V12.6743L105.997 19.5727H104.215V8.72615H106.491V15.6029L111.989 8.72615Z" fill="#602B7A"/>
<path d="M125.697 19.5727H122.927L118.525 14.5616V19.5727H116.206V8.72615H118.525V13.5203L122.691 8.72615H125.526L120.801 14.041L125.697 19.5727Z" fill="#602B7A"/>
<path d="M134.389 8.72615H136.708V19.5727H134.389V18.0108C133.515 19.2401 132.263 19.8547 130.631 19.8547C129.156 19.8547 127.896 19.3052 126.851 18.2061C125.806 17.0925 125.283 15.7403 125.283 14.1494C125.283 12.5441 125.806 11.1919 126.851 10.0928C127.896 8.9937 129.156 8.44414 130.631 8.44414C132.263 8.44414 133.515 9.05155 134.389 10.2664V8.72615ZM128.569 16.6441C129.213 17.2949 130.022 17.6203 130.996 17.6203C131.969 17.6203 132.778 17.2949 133.422 16.6441C134.066 15.9789 134.389 15.1473 134.389 14.1494C134.389 13.1516 134.066 12.3272 133.422 11.6764C132.778 11.0112 131.969 10.6785 130.996 10.6785C130.022 10.6785 129.213 11.0112 128.569 11.6764C127.925 12.3272 127.603 13.1516 127.603 14.1494C127.603 15.1473 127.925 15.9789 128.569 16.6441Z" fill="#602B7A"/>
<path d="M18.883 19.5727L17.5695 16.514H11.6703L10.3791 19.5727H7.69482L13.3375 5.1582H15.9023L21.5458 19.5727H18.883ZM12.4398 14.1711H16.8L14.6199 8.11247L12.4398 14.1711Z" fill="#602B7A"/>
</svg>
