<svg width="960" height="906" viewBox="0 0 960 906" fill="none" xmlns="http://www.w3.org/2000/svg">
<g opacity="0.5">
<mask id="mask0" mask-type="alpha" maskUnits="userSpaceOnUse" x="-274" y="11" width="867" height="866">
<circle cx="159.513" cy="444.085" r="326.587" transform="rotate(-24.5007 159.513 444.085)" fill="#1C90D2"/>
</mask>
<g mask="url(#mask0)">
<rect x="462.209" y="65.1211" width="65.6508" height="955.727" transform="rotate(50.4993 462.209 65.1211)" fill="#CEECEF"/>
<rect x="471.579" y="154" width="65.6508" height="955.727" transform="rotate(50.4993 471.579 154)" fill="#CEECEF"/>
<rect x="540.382" y="205.369" width="63.9432" height="955.727" transform="rotate(50.4993 540.382 205.369)" fill="#CEECEF"/>
<rect x="637.367" y="266.717" width="53.8331" height="955.727" transform="rotate(50.4993 637.367 266.717)" fill="#CEECEF"/>
<rect x="720.507" y="316.373" width="41.8825" height="955.727" transform="rotate(50.4993 720.507 316.373)" fill="#CEECEF"/>
<rect x="412.704" y="-2.60352" width="78.6623" height="955.727" transform="rotate(50.4993 412.704 -2.60352)" fill="#CEECEF"/>
<rect x="182.628" y="61.4141" width="95.1734" height="552.908" transform="rotate(50.4993 182.628 61.4141)" fill="#CEECEF"/>
<rect x="320.247" y="-164.965" width="85.6798" height="955.727" transform="rotate(50.4993 320.247 -164.965)" fill="#CEECEF"/>
<circle r="277.906" transform="matrix(-0.909956 0.414704 0.414704 0.909956 199.83 423.318)" fill="white"/>
</g>
<mask id="mask1" mask-type="alpha" maskUnits="userSpaceOnUse" x="188" y="2" width="589" height="589">
<circle cx="482.28" cy="296.99" r="221.946" transform="rotate(-24.5007 482.28 296.99)" fill="#FAAB45"/>
</mask>
<g mask="url(#mask1)">
<path d="M228.078 330.284L208.739 214.728L288.225 271.424L268.867 155.751L348.422 212.495L329.132 97.2324L408.448 153.806L389.153 38.5141L468.212 94.905" stroke="#CEECEF" stroke-width="22.854"/>
<path d="M287.506 426.929L268.167 311.373L347.653 368.069L328.295 252.396L407.85 309.14L388.56 193.878L467.876 250.452L448.581 135.159L527.64 191.55L508.422 76.7121L587.489 133.109L568.191 17.795L647.537 74.3902L628.316 -40.4589L707.253 15.8452L688.993 -93.2631" stroke="#CEECEF" stroke-width="22.854"/>
<path d="M346.933 523.574L327.595 408.018L407.081 464.713L387.723 349.04L467.278 405.785L447.988 290.522L527.304 347.096L508.009 231.804L587.068 288.195L567.849 173.357L646.917 229.754L627.619 114.439L706.964 171.035L687.744 56.1857L766.681 112.49L748.421 3.38144" stroke="#CEECEF" stroke-width="22.854"/>
<path d="M406.361 620.218L387.022 504.662L466.509 561.358L447.151 445.685L526.706 502.43L507.416 387.167L586.731 443.741L567.437 328.448L646.496 384.839L627.277 270.001L706.345 326.398L687.046 211.084L766.392 267.679L747.171 152.83L826.109 209.134L807.849 100.026" stroke="#CEECEF" stroke-width="22.854"/>
<path d="M566.845 483.813L646.16 540.387L626.866 425.095L705.925 481.486L686.706 366.647L765.774 423.044L746.475 307.73L825.821 364.326L806.6 249.476L885.538 305.78L867.278 196.672" stroke="#CEECEF" stroke-width="22.854"/>
<path d="M525.218 813.509L505.879 697.953L585.365 754.649L566.007 638.976L645.562 695.721L626.272 580.458L705.588 637.032L686.293 521.739L765.352 578.13L746.134 463.292L825.201 519.689L805.903 404.375L885.248 460.97L866.028 346.121L944.965 402.425L926.705 293.317" stroke="#CEECEF" stroke-width="22.854"/>
<circle cx="482.279" cy="296.99" r="167.057" transform="rotate(-24.5007 482.279 296.99)" fill="white"/>
</g>
<circle cx="280.638" cy="440.144" r="26.5919" transform="rotate(-24.5007 280.638 440.144)" fill="#CEECEF"/>
<circle cx="736.611" cy="181.078" r="159.247" transform="rotate(-24.5007 736.611 181.078)" fill="#CEECEF"/>
<mask id="mask2" mask-type="alpha" maskUnits="userSpaceOnUse" x="525" y="-30" width="423" height="423">
<circle cx="736.612" cy="181.078" r="159.247" transform="rotate(-24.5007 736.612 181.078)" fill="white"/>
</mask>
<g mask="url(#mask2)">
<circle cx="736.612" cy="181.078" r="151.629" transform="rotate(-24.5007 736.612 181.078)" fill="#CEECEF" stroke="#CEECEF" stroke-width="15.236"/>
<circle cx="736.612" cy="181.08" r="126.91" transform="rotate(-24.5007 736.612 181.08)" stroke="#CEECEF" stroke-width="15.236"/>
<circle cx="736.612" cy="181.081" r="101.414" transform="rotate(-24.5007 736.612 181.081)" stroke="#CEECEF" stroke-width="15.236"/>
</g>
<circle cx="942.195" cy="86.7706" r="116.653" transform="rotate(-24.5007 942.195 86.7706)" fill="#CEECEF"/>
<circle cx="942.195" cy="86.7699" r="105.317" transform="rotate(-24.5007 942.195 86.7699)" fill="#CEECEF"/>
<circle cx="942.194" cy="86.7702" r="53.9039" transform="rotate(-24.5007 942.194 86.7702)" fill="#CEECEF"/>
<mask id="mask3" mask-type="alpha" maskUnits="userSpaceOnUse" x="787" y="-68" width="310" height="310">
<circle cx="942.195" cy="86.7686" r="116.653" transform="rotate(-24.5007 942.195 86.7686)" fill="#F55277"/>
</mask>
<g mask="url(#mask3)">
<path d="M895.286 266.076C895.286 266.076 894.162 230.958 923.541 207.709C959.052 179.607 978.253 201.947 1011.59 178.035C1043.73 154.986 1028.34 124.474 1054.59 98.1899C1079.01 73.7332 1121.29 78.8792 1121.29 78.8792" stroke="#CEECEF" stroke-width="15.236"/>
<path d="M873.916 247.924C873.916 247.924 872.791 212.805 902.17 189.556C937.681 161.455 956.882 183.795 990.224 159.883C1022.36 136.833 1006.97 106.322 1033.22 80.0375C1057.64 55.5808 1099.92 60.7268 1099.92 60.7268" stroke="#CEECEF" stroke-width="15.236"/>
<path d="M852.546 229.774C852.546 229.774 851.422 194.655 880.801 171.406C916.312 143.304 935.512 165.645 968.854 141.732C1000.99 118.683 985.598 88.1714 1011.85 61.8871C1036.27 37.4304 1078.55 42.5764 1078.55 42.5764" stroke="#CEECEF" stroke-width="15.236"/>
<path d="M831.176 211.623C831.176 211.623 830.052 176.505 859.431 153.256C894.942 125.154 914.143 147.494 947.485 123.582C979.623 100.533 964.228 70.021 990.477 43.7367C1014.9 19.28 1057.18 24.426 1057.18 24.426" stroke="#CEECEF" stroke-width="15.236"/>
<path d="M809.806 193.473C809.806 193.473 808.681 158.354 838.06 135.105C873.572 107.004 892.772 129.344 926.114 105.432C958.253 82.3822 942.857 51.8706 969.106 25.5864C993.53 1.12965 1035.81 6.27564 1035.81 6.27564" stroke="#CEECEF" stroke-width="15.236"/>
<path d="M788.436 175.32C788.436 175.32 787.311 140.202 816.69 116.953C852.201 88.8512 871.402 111.192 904.744 87.2793C936.883 64.2298 921.487 33.7183 947.736 7.43401C972.16 -17.0227 1014.44 -11.8767 1014.44 -11.8767" stroke="#CEECEF" stroke-width="15.236"/>
<path d="M767.066 157.17C767.066 157.17 765.942 122.052 795.321 98.8025C830.832 70.7008 850.032 93.0411 883.374 69.1289C915.513 46.0794 900.118 15.5679 926.367 -10.7164C950.791 -35.1731 993.069 -30.0271 993.069 -30.0271" stroke="#CEECEF" stroke-width="15.236"/>
<path d="M745.696 139.02C745.696 139.02 744.572 103.901 773.951 80.6521C809.462 52.5504 828.663 74.8907 862.005 50.9785C894.143 27.929 878.748 -2.58251 904.997 -28.8668C929.421 -53.3235 971.7 -48.1775 971.7 -48.1775" stroke="#CEECEF" stroke-width="15.236"/>
<path d="M724.327 120.869C724.327 120.869 723.202 85.7508 752.581 62.5018C788.093 34.4 807.293 56.7404 840.635 32.8281C872.774 9.77864 857.378 -20.7329 883.627 -47.0172C908.051 -71.4739 950.33 -66.3279 950.33 -66.3279" stroke="#CEECEF" stroke-width="15.236"/>
</g>
<circle cx="206.456" cy="183.931" r="16.4724" transform="rotate(-24.5007 206.456 183.931)" fill="#CEECEF"/>
<path d="M-228.293 608.212C-229.983 610.877 -229.193 614.407 -226.528 616.097C-223.863 617.787 -220.333 616.997 -218.643 614.332L-228.293 608.212ZM1144.42 -8.97677L1083.15 15.4928L1134.98 56.3177L1144.42 -8.97677ZM-223.468 611.272C-218.643 614.332 -218.643 614.333 -218.643 614.332C-218.642 614.331 -218.641 614.33 -218.64 614.327C-218.637 614.322 -218.632 614.314 -218.625 614.304C-218.611 614.282 -218.589 614.248 -218.56 614.203C-218.502 614.112 -218.413 613.973 -218.295 613.789C-218.058 613.421 -217.702 612.87 -217.23 612.149C-216.288 610.706 -214.887 608.584 -213.063 605.883C-209.415 600.482 -204.079 592.771 -197.35 583.567C-183.883 565.146 -164.877 540.799 -142.679 517.017C-120.449 493.201 -95.1968 470.145 -69.2602 454.138C-43.245 438.082 -17.251 429.55 6.77241 433.536L8.64314 422.264C-19.3009 417.626 -48.1875 427.704 -75.2616 444.413C-102.414 461.171 -128.46 485.036 -151.032 509.22C-173.637 533.437 -192.936 558.167 -206.575 576.823C-213.399 586.157 -218.816 593.985 -222.532 599.488C-224.391 602.239 -225.824 604.41 -226.797 605.898C-227.283 606.642 -227.653 607.216 -227.904 607.606C-228.03 607.8 -228.125 607.95 -228.19 608.051C-228.223 608.102 -228.247 608.141 -228.265 608.168C-228.273 608.181 -228.28 608.192 -228.284 608.199C-228.287 608.203 -228.289 608.206 -228.29 608.208C-228.292 608.21 -228.293 608.212 -223.468 611.272ZM6.77241 433.536C57.0059 441.873 90.8329 474.639 129.836 503.066C149.098 517.104 169.505 529.889 193.346 536.95C217.301 544.046 244.396 545.272 276.934 536.737L274.035 525.684C243.413 533.716 218.447 532.468 196.592 525.994C174.622 519.486 155.468 507.606 136.567 493.831C99.2457 466.631 62.3444 431.175 8.64314 422.264L6.77241 433.536ZM276.934 536.737C343.049 519.395 364.971 465.966 393.413 411.18C422.02 356.078 458.042 296.914 551.324 260.842L547.203 250.184C450.081 287.741 412.373 349.859 383.272 405.915C354.006 462.287 334.241 509.892 274.035 525.684L276.934 536.737ZM551.324 260.842C597.542 242.969 632.575 246.922 662.013 261.842C691.876 276.976 716.486 303.618 741.224 332.406C765.675 360.861 790.311 391.51 819.665 412.655C849.38 434.061 884.181 445.955 928.908 437.052L926.677 425.845C885.575 434.026 853.945 423.267 826.344 403.383C798.381 383.239 774.814 353.963 749.891 324.959C725.255 296.289 699.319 267.938 667.179 251.649C634.615 235.145 596.187 231.242 547.203 250.184L551.324 260.842ZM928.908 437.052C969.214 429.03 996.351 407.542 1015.42 377.898C1034.33 348.508 1045.28 311.173 1053.75 271.325C1058 251.357 1061.65 230.594 1065.36 209.751C1069.07 188.871 1072.83 167.895 1077.31 147.327C1086.26 106.145 1098 67.0361 1117.51 34.3402L1107.7 28.4833C1087.23 62.7751 1075.19 103.32 1066.14 144.898C1061.61 165.711 1057.82 186.892 1054.11 207.752C1050.39 228.648 1046.77 249.206 1042.57 268.948C1034.16 308.517 1023.55 344.149 1005.81 371.715C988.241 399.028 963.639 418.488 926.677 425.845L928.908 437.052Z" fill="#CEECEF"/>
</g>
</svg>
