<svg width="1871" height="989" viewBox="0 0 1871 989" fill="none" xmlns="http://www.w3.org/2000/svg">
<path fill-rule="evenodd" clip-rule="evenodd" d="M76.2277 290.383L473.516 55.9426C433.655 56.1333 393.159 61.5803 352.904 72.778C230.493 106.829 133.634 187.569 76.2277 290.383ZM74.2808 293.906C43.0392 351.028 23.9062 414.813 19.2314 481.099L158.169 399.112C157.887 400.236 157.611 401.362 157.339 402.489L19.0294 484.105C16.4564 524.401 19.2272 565.596 27.8679 606.758L148.874 535.353C149.156 537.925 149.465 540.499 149.8 543.074L29.4674 614.082C31.1106 621.324 32.9365 628.563 34.948 635.794C41.4594 659.202 49.6781 681.676 59.432 703.118L173.623 635.734C175.157 639.648 176.749 643.525 178.398 647.365L64.7623 714.422C78.4154 742.376 94.7161 768.484 113.263 792.52L224.447 726.91C229.487 733.623 234.73 740.151 240.166 746.488L129.164 811.99C149.625 835.675 172.374 857.069 196.966 875.923L309.222 809.68C328.87 823.729 349.784 835.931 371.67 846.121L256.002 914.377C283.47 929.406 312.479 941.635 342.566 950.803L468.316 876.598C499.127 882.039 530.866 883.793 562.916 881.514L418.078 966.983C455.898 971.78 494.726 971.868 533.764 966.798L844.163 783.631C867.014 752.423 885.858 718.416 900.205 682.479L862.234 704.885C879.44 678.308 893.397 649.679 903.732 619.658L922.722 608.452C929.224 578.023 932.653 546.732 932.758 515.022L923.95 520.22C925.598 496.427 925.057 472.256 922.177 447.975L927.538 444.811C924.786 426.789 920.928 408.738 915.92 390.734C912.497 378.428 908.602 366.38 904.26 354.605L900.143 357.034C897.202 349.143 894.024 341.396 890.621 333.799L894.919 331.263C882.552 302.66 867.479 275.83 850.095 250.996L843.343 254.98C840.772 251.663 838.15 248.394 835.479 245.171L842.788 240.858C823.952 215.467 802.647 192.293 779.326 171.589L765.794 179.575C763.7 178.042 761.592 176.53 759.469 175.039L773.676 166.656C742.382 139.778 707.618 117.267 670.43 99.7125L639.101 118.2C637.986 117.892 636.87 117.588 635.752 117.289L658.511 103.859L650.963 91.0685C596.712 68.4708 537.89 56.1881 477.542 55.9412L74.2808 293.906ZM639.101 118.2L157.339 402.489C147.045 445.196 143.898 490.059 148.874 535.353L759.469 175.039C722.997 149.431 682.262 130.139 639.101 118.2ZM765.794 179.575L149.8 543.074C152.164 561.231 155.839 579.443 160.889 597.596C164.523 610.658 168.781 623.379 173.623 635.734L835.479 245.171C814.923 220.37 791.472 198.378 765.794 179.575ZM843.343 254.98L178.398 647.365C190.731 676.074 206.264 702.692 224.447 726.91L890.621 333.799C877.854 305.304 861.911 278.927 843.343 254.98ZM900.143 357.034L240.166 746.488C260.664 770.386 283.891 791.568 309.222 809.68L922.177 447.975C919.85 428.364 915.999 408.681 910.542 389.066C907.504 378.145 904.03 367.463 900.143 357.034ZM923.95 520.22L371.67 846.121C402.252 860.359 434.733 870.668 468.316 876.598L903.732 619.658C914.694 587.816 921.582 554.407 923.95 520.22ZM862.234 704.885L562.916 881.514C588.51 879.693 614.303 875.3 639.981 868.157C735.288 841.646 812.393 781.874 862.234 704.885ZM635.752 117.289L158.169 399.112C191.072 267.781 291.69 157.382 431.45 118.504C500.769 99.2221 570.927 99.9791 635.752 117.289Z" fill="#CEECEF"/>
<path fill-rule="evenodd" clip-rule="evenodd" d="M1119.71 140.417L1070.58 92.2157C1055.19 85.9625 1039.27 80.9267 1022.96 77.1924L1023 81.4057L1023.72 156.964C1034.04 160.204 1044.1 164.149 1053.84 168.758L1053.35 117.332L1124.55 187.193L1150.4 212.555L1150.05 176.343L1149.7 138.935C1140.06 131.121 1129.97 123.898 1119.49 117.302L1119.71 140.417ZM730.198 448.588C729.619 446.692 729.062 444.783 728.527 442.862C724.284 427.609 721.655 412.288 720.538 397.082L665.12 342.708L647.858 325.772C639.924 370.203 641.591 417.064 654.495 463.455C658.912 479.332 664.484 494.577 671.096 509.124L669.958 389.484L730.198 448.588ZM735.721 295.774C739.957 284.854 745.001 274.274 750.802 264.125L735.275 248.891L735.62 285.102L735.721 295.774ZM768.783 237.163L713.636 183.055C719.968 175.325 726.683 167.887 733.762 160.774L771.804 198.1L771.145 128.754C780.647 121.847 790.596 115.445 800.964 109.598L801.846 202.367C789.597 212.851 778.532 224.528 768.783 237.163ZM860.951 165.521L802.868 108.533C812.077 103.425 821.612 98.7524 831.453 94.5502L867.604 130.02L867.146 81.8091C868.286 81.4782 869.429 81.1532 870.575 80.8343C879.4 78.3797 888.241 76.3317 897.079 74.679L897.825 153.117C895.606 153.666 893.387 154.249 891.17 154.865C880.722 157.772 870.638 161.343 860.951 165.521ZM927.499 147.765L927.169 112.979L953.018 138.341L961.194 146.363C950.054 146.017 938.798 146.47 927.499 147.765ZM797.908 554.524C807.366 562.967 817.478 570.614 828.127 577.398L828.3 595.601L828.645 631.813L802.796 606.451L731.079 536.085L731.663 597.475C720.708 586.294 710.552 574.235 701.318 561.367L700.736 500.159L700.391 463.948L726.24 489.31L797.957 559.675L797.908 554.524ZM1182.41 330.596C1181.46 326.231 1180.38 321.867 1179.17 317.508C1173.73 297.961 1165.96 279.688 1156.26 262.905L1180.83 287.018L1179.69 166.693C1190.7 178.322 1200.86 190.86 1210.05 204.234L1211.17 322.944L1211.52 359.156L1185.67 333.794L1182.41 330.596ZM929.65 612.867L955.166 637.903L954.94 614.116C964.874 614.063 974.885 613.373 984.921 612.015L985.509 673.829L985.657 689.318C979.146 689.996 972.647 690.464 966.168 690.727L960.005 684.679L888.204 614.231L888.868 684.096C878.688 681.91 868.65 679.218 858.79 676.04L858.006 593.526C880.519 603.655 904.689 610.265 929.65 612.867ZM1037.47 598.614L1055.8 616.6L1081.65 641.962L1081.31 605.75L1081.03 576.528C1067.54 585.264 1052.98 592.7 1037.47 598.614ZM1110.54 553.875C1110.73 553.702 1110.92 553.529 1111.11 553.356L1136.38 578.145L1166.04 607.247C1158.73 614.089 1151.07 620.597 1143.07 626.74L1141.22 624.921L1141.25 628.129C1131.77 635.301 1121.82 641.962 1111.44 648.06L1110.87 588.994L1110.54 553.875ZM1133.15 530.375C1152.14 507.664 1166.7 481.508 1176 453.388L1176.79 537.32L1177.14 573.532L1151.29 548.17L1133.15 530.375ZM1184.49 419.267C1186.65 406.552 1187.77 393.58 1187.78 380.469L1241.95 433.619L1240.74 306.157L1240.4 269.946L1246.6 276.033C1249.02 282.864 1251.22 289.826 1253.2 296.915C1270.72 359.922 1267.52 423.799 1247.69 481.275L1246.79 480.395L1184.49 419.267ZM675.716 266.473L667.834 258.739C663.538 268.836 659.771 279.171 656.555 289.701L680.555 313.249L706.404 338.611L706.059 302.399L705.029 194.055C693.746 209.161 683.857 225.255 675.485 242.122L675.716 266.473ZM967.928 108.367L929.219 70.3878C943.427 69.2427 957.564 69.0921 971.546 69.8884L988.938 86.9525L967.928 108.367ZM1231.87 510.36L1234.69 513.127C1226.8 529.779 1217.44 545.713 1206.74 560.725L1206.37 521.209L1206.02 484.998L1231.87 510.36ZM1037.12 679.535C1046.68 676.875 1056.01 673.796 1065.1 670.323L1040.58 646.266L1019.57 667.679L1032.83 680.694C1034.26 680.318 1035.69 679.932 1037.12 679.535ZM761.643 624.348C775.091 634.917 789.376 644.353 804.336 652.566L787.361 635.911L761.512 610.549L761.643 624.348Z" fill="#CEECEF"/>
<circle cx="614.781" cy="552.571" r="37.2277" transform="rotate(-15.5449 614.781 552.571)" fill="#CEECEF"/>
<circle cx="100.728" cy="149.268" r="23.2922" transform="rotate(-15.5449 100.728 149.268)" fill="#CEECEF"/>
<circle cx="1635.67" cy="189.706" r="75.4635" transform="rotate(-15.5449 1635.67 189.706)" fill="#CEECEF"/>
<circle cx="1815" cy="48.0669" r="17.0007" transform="rotate(-15.5449 1815 48.0669)" fill="#CEECEF"/>
<circle cx="1113.69" cy="76.2128" r="23.0607" transform="rotate(-15.5449 1113.69 76.2128)" fill="#CEECEF"/>
<path fill-rule="evenodd" clip-rule="evenodd" d="M1675.19 331.753C1753.64 309.93 1799.55 228.643 1777.72 150.193C1755.9 71.7424 1674.61 25.8364 1596.16 47.6589C1517.71 69.4814 1471.81 150.769 1493.63 229.219C1515.45 307.669 1596.74 353.575 1675.19 331.753ZM1638.82 284.097C1691.49 281.98 1732.47 237.564 1730.36 184.89C1728.24 132.216 1683.82 91.2321 1631.15 93.3491C1578.48 95.466 1537.49 139.882 1539.61 192.556C1541.73 245.23 1586.14 286.214 1638.82 284.097Z" fill="#CEECEF"/>
<path fill-rule="evenodd" clip-rule="evenodd" d="M1545.61 215.576C1578.6 334.198 1509.19 457.11 1390.57 490.107C1271.95 523.104 1149.03 453.691 1116.04 335.069C1083.04 216.447 1152.45 93.5347 1271.07 60.5376C1389.7 27.5405 1512.61 96.9535 1545.61 215.576ZM1375.93 437.499C1465.5 412.584 1517.91 319.777 1493 230.21C1468.08 140.643 1375.28 88.2313 1285.71 113.146C1196.14 138.061 1143.73 230.867 1168.65 320.435C1193.56 410.002 1286.37 462.414 1375.93 437.499ZM1381.29 456.767C1481.5 428.892 1540.14 325.059 1512.27 224.85C1484.39 124.641 1380.56 66.0027 1280.35 93.8778C1180.14 121.753 1121.5 225.586 1149.38 325.795C1177.25 426.004 1281.08 484.642 1381.29 456.767ZM1332.75 330.552C1363.36 329.323 1387.17 303.516 1385.94 272.913C1384.71 242.309 1358.9 218.497 1328.3 219.727C1297.69 220.957 1273.88 246.763 1275.11 277.367C1276.34 307.97 1302.15 331.782 1332.75 330.552Z" fill="#CEECEF"/>
</svg>
