<svg width="265" height="66" viewBox="0 0 265 66" fill="none" xmlns="http://www.w3.org/2000/svg">
<g clip-path="url(#clip0)">
<path d="M43.5032 49.0102V60.9316H40.8086V51.4421H35.095V60.9316H32.4004V49.0102H43.5032Z" fill="#602B7A"/>
<path d="M53.6907 48.7002C55.404 48.7002 56.8677 49.3122 58.0819 50.5361C59.2962 51.7441 59.9033 53.2224 59.9033 54.9709C59.9033 56.7353 59.2962 58.2215 58.0819 59.4295C56.8677 60.6375 55.404 61.2416 53.6907 61.2416C51.7945 61.2416 50.3391 60.574 49.3244 59.2388V65.7002H46.6298V49.0102H49.3244V50.7268C50.3391 49.3757 51.7945 48.7002 53.6907 48.7002ZM50.4472 57.7128C51.1957 58.4281 52.1355 58.7858 53.2666 58.7858C54.3976 58.7858 55.3374 58.4281 56.0859 57.7128C56.8344 56.9816 57.2087 56.0677 57.2087 54.9709C57.2087 53.8741 56.8344 52.9681 56.0859 52.2528C55.3374 51.5216 54.3976 51.156 53.2666 51.156C52.1355 51.156 51.1957 51.5216 50.4472 52.2528C49.6987 52.9681 49.3244 53.8741 49.3244 54.9709C49.3244 56.0677 49.6987 56.9816 50.4472 57.7128Z" fill="#602B7A"/>
<path d="M68.2337 61.2416C66.4041 61.2416 64.8488 60.6375 63.5681 59.4295C62.2873 58.2215 61.6469 56.7353 61.6469 54.9709C61.6469 53.2065 62.2873 51.7203 63.5681 50.5123C64.8488 49.3042 66.4041 48.7002 68.2337 48.7002C70.0801 48.7002 71.6353 49.3042 72.8994 50.5123C74.1802 51.7203 74.8206 53.2065 74.8206 54.9709C74.8206 56.7353 74.1802 58.2215 72.8994 59.4295C71.6353 60.6375 70.0801 61.2416 68.2337 61.2416ZM65.4643 57.6651C66.2128 58.3804 67.1359 58.7381 68.2337 58.7381C69.3316 58.7381 70.2547 58.3804 71.0032 57.6651C71.7517 56.9498 72.126 56.0518 72.126 54.9709C72.126 53.89 71.7517 52.9919 71.0032 52.2766C70.2547 51.5613 69.3316 51.2037 68.2337 51.2037C67.1359 51.2037 66.2128 51.5613 65.4643 52.2766C64.7158 52.9919 64.3415 53.89 64.3415 54.9709C64.3415 56.0518 64.7158 56.9498 65.4643 57.6651Z" fill="#602B7A"/>
<path d="M85.6155 49.0102V51.4898H79.9518V60.9316H77.2571V49.0102H85.6155Z" fill="#602B7A"/>
<path d="M94.5028 48.7002C96.2161 48.7002 97.6798 49.3122 98.894 50.5361C100.108 51.7441 100.715 53.2224 100.715 54.9709C100.715 56.7353 100.108 58.2215 98.894 59.4295C97.6798 60.6375 96.2161 61.2416 94.5028 61.2416C92.6066 61.2416 91.1512 60.574 90.1365 59.2388V65.7002H87.4419V49.0102H90.1365V50.7268C91.1512 49.3757 92.6066 48.7002 94.5028 48.7002ZM91.2593 57.7128C92.0078 58.4281 92.9476 58.7858 94.0787 58.7858C95.2097 58.7858 96.1495 58.4281 96.898 57.7128C97.6465 56.9816 98.0208 56.0677 98.0208 54.9709C98.0208 53.8741 97.6465 52.9681 96.898 52.2528C96.1495 51.5216 95.2097 51.156 94.0787 51.156C92.9476 51.156 92.0078 51.5216 91.2593 52.2528C90.5108 52.9681 90.1365 53.8741 90.1365 54.9709C90.1365 56.0677 90.5108 56.9816 91.2593 57.7128Z" fill="#602B7A"/>
<path d="M113.038 49.0102H115.733V60.9316H113.038V59.2149C112.023 60.566 110.568 61.2416 108.672 61.2416C106.958 61.2416 105.495 60.6375 104.28 59.4295C103.066 58.2056 102.459 56.7194 102.459 54.9709C102.459 53.2065 103.066 51.7203 104.28 50.5123C105.495 49.3042 106.958 48.7002 108.672 48.7002C110.568 48.7002 112.023 49.3678 113.038 50.703V49.0102ZM106.276 57.7128C107.025 58.4281 107.965 58.7858 109.096 58.7858C110.227 58.7858 111.167 58.4281 111.915 57.7128C112.664 56.9816 113.038 56.0677 113.038 54.9709C113.038 53.8741 112.664 52.9681 111.915 52.2528C111.167 51.5216 110.227 51.156 109.096 51.156C107.965 51.156 107.025 51.5216 106.276 52.2528C105.528 52.9681 105.154 53.8741 105.154 54.9709C105.154 56.0677 105.528 56.9816 106.276 57.7128Z" fill="#602B7A"/>
<path d="M131.598 49.0102V60.9316H128.978V53.0873L125.385 58.5473H125.061L121.493 53.1111V60.9316H118.873V49.0102H121.618L125.236 54.5179L128.853 49.0102H131.598Z" fill="#602B7A"/>
<path d="M147.435 49.0102V60.9316H144.816V53.0873L141.223 58.5473H140.898L137.331 53.1111V60.9316H134.711V49.0102H137.455L141.073 54.5179L144.691 49.0102H147.435Z" fill="#602B7A"/>
<path d="M159.58 49.0102H161.651V60.9316H159.006V53.3496L152.619 60.9316H150.548V49.0102H153.193V56.5684L159.58 49.0102Z" fill="#602B7A"/>
<path d="M171.839 48.7002C173.552 48.7002 175.016 49.3122 176.23 50.5361C177.444 51.7441 178.051 53.2224 178.051 54.9709C178.051 56.7353 177.444 58.2215 176.23 59.4295C175.016 60.6375 173.552 61.2416 171.839 61.2416C169.942 61.2416 168.487 60.574 167.472 59.2388V65.7002H164.778V49.0102H167.472V50.7268C168.487 49.3757 169.942 48.7002 171.839 48.7002ZM168.595 57.7128C169.344 58.4281 170.283 58.7858 171.415 58.7858C172.546 58.7858 173.485 58.4281 174.234 57.7128C174.982 56.9816 175.357 56.0677 175.357 54.9709C175.357 53.8741 174.982 52.9681 174.234 52.2528C173.485 51.5216 172.546 51.156 171.415 51.156C170.283 51.156 169.344 51.5216 168.595 52.2528C167.847 52.9681 167.472 53.8741 167.472 54.9709C167.472 56.0677 167.847 56.9816 168.595 57.7128Z" fill="#602B7A"/>
<path d="M186.382 61.2416C184.552 61.2416 182.997 60.6375 181.716 59.4295C180.435 58.2215 179.795 56.7353 179.795 54.9709C179.795 53.2065 180.435 51.7203 181.716 50.5123C182.997 49.3042 184.552 48.7002 186.382 48.7002C188.228 48.7002 189.783 49.3042 191.047 50.5123C192.328 51.7203 192.969 53.2065 192.969 54.9709C192.969 56.7353 192.328 58.2215 191.047 59.4295C189.783 60.6375 188.228 61.2416 186.382 61.2416ZM183.612 57.6651C184.361 58.3804 185.284 58.7381 186.382 58.7381C187.48 58.7381 188.403 58.3804 189.151 57.6651C189.9 56.9498 190.274 56.0518 190.274 54.9709C190.274 53.89 189.9 52.9919 189.151 52.2766C188.403 51.5613 187.48 51.2037 186.382 51.2037C185.284 51.2037 184.361 51.5613 183.612 52.2766C182.864 52.9919 182.489 53.89 182.489 54.9709C182.489 56.0518 182.864 56.9498 183.612 57.6651Z" fill="#602B7A"/>
<path d="M204.038 54.804C205.269 55.3444 205.884 56.2584 205.884 57.5459C205.884 58.5473 205.527 59.3659 204.811 60.0017C204.113 60.6217 203.106 60.9316 201.792 60.9316H195.405V49.0102H201.293C202.574 49.0102 203.564 49.3201 204.262 49.94C204.978 50.544 205.335 51.3309 205.335 52.3005C205.335 53.429 204.903 54.2635 204.038 54.804ZM201.094 51.2037H197.975V53.8503H201.094C202.192 53.8503 202.74 53.4052 202.74 52.5151C202.74 51.6408 202.192 51.2037 201.094 51.2037ZM201.543 58.6904C202.674 58.6904 203.239 58.2215 203.239 57.2836C203.239 56.8704 203.09 56.5525 202.79 56.3299C202.491 56.0915 202.075 55.9723 201.543 55.9723H197.975V58.6904H201.543Z" fill="#602B7A"/>
<path d="M217.955 49.0102H220.65V60.9316H217.955V59.2149C216.941 60.566 215.485 61.2416 213.589 61.2416C211.876 61.2416 210.412 60.6375 209.198 59.4295C207.984 58.2056 207.377 56.7194 207.377 54.9709C207.377 53.2065 207.984 51.7203 209.198 50.5123C210.412 49.3042 211.876 48.7002 213.589 48.7002C215.485 48.7002 216.941 49.3678 217.955 50.703V49.0102ZM211.194 57.7128C211.942 58.4281 212.882 58.7858 214.013 58.7858C215.144 58.7858 216.084 58.4281 216.833 57.7128C217.581 56.9816 217.955 56.0677 217.955 54.9709C217.955 53.8741 217.581 52.9681 216.833 52.2528C216.084 51.5216 215.144 51.156 214.013 51.156C212.882 51.156 211.942 51.5216 211.194 52.2528C210.445 52.9681 210.071 53.8741 210.071 54.9709C210.071 56.0677 210.445 56.9816 211.194 57.7128Z" fill="#602B7A"/>
<path d="M232.199 49.0102H234.894V60.9316H232.199V56.1869H226.485V60.9316H223.791V49.0102H226.485V53.7549H232.199V49.0102Z" fill="#602B7A"/>
<path d="M247.052 49.0102H249.123V60.9316H246.478V53.3496L240.091 60.9316H238.02V49.0102H240.665V56.5684L247.052 49.0102Z" fill="#602B7A"/>
<path d="M254.37 56.0677C254.57 56.9737 255.027 57.6731 255.743 58.1658C256.458 58.6427 257.331 58.8811 258.362 58.8811C259.793 58.8811 260.866 58.3884 261.581 57.4029L263.802 58.6427C262.571 60.3753 260.749 61.2416 258.338 61.2416C256.308 61.2416 254.67 60.6534 253.422 59.4772C252.175 58.285 251.551 56.7829 251.551 54.9709C251.551 53.1906 252.166 51.7044 253.397 50.5123C254.628 49.3042 256.208 48.7002 258.138 48.7002C259.968 48.7002 261.465 49.3122 262.629 50.5361C263.81 51.76 264.4 53.2462 264.4 54.9947C264.4 55.2649 264.367 55.6226 264.301 56.0677H254.37ZM254.345 53.9695H261.681C261.498 52.9999 261.074 52.2687 260.408 51.7759C259.76 51.2832 258.995 51.0368 258.113 51.0368C257.115 51.0368 256.283 51.2991 255.618 51.8236C254.953 52.3482 254.528 53.0634 254.345 53.9695Z" fill="#602B7A"/>
<path d="M21.1865 27.9658L30.715 37.5095L21.227 47.0126L11.6985 37.4689L21.1865 27.9658Z" fill="#602B7A"/>
<path d="M0.939453 0.680664H200.83V37.5332H0.939453V0.680664Z" fill="#602B7A"/>
<path d="M45.3268 11.6266V26.5881H42.1277V14.7386H37.181V20.3043C37.181 22.6782 36.6675 24.3639 35.6407 25.3613C34.6138 26.3587 33.1525 26.7677 31.2567 26.5881V23.5659C32.1651 23.7255 32.8464 23.536 33.3006 22.9974C33.7548 22.4588 33.9819 21.5112 33.9819 20.1547V11.6266H45.3268Z" fill="white"/>
<path d="M58.9779 11.6266V14.7386H52.2538V26.5881H49.0547V11.6266H58.9779Z" fill="white"/>
<path d="M67.5583 26.9771C65.3861 26.9771 63.5397 26.2191 62.0191 24.703C60.4986 23.1869 59.7383 21.3217 59.7383 19.1074C59.7383 16.8931 60.4986 15.0279 62.0191 13.5118C63.5397 11.9957 65.3861 11.2376 67.5583 11.2376C69.7503 11.2376 71.5967 11.9957 73.0975 13.5118C74.6181 15.0279 75.3784 16.8931 75.3784 19.1074C75.3784 21.3217 74.6181 23.1869 73.0975 24.703C71.5967 26.2191 69.7503 26.9771 67.5583 26.9771ZM64.2704 22.4887C65.159 23.3864 66.255 23.8352 67.5583 23.8352C68.8617 23.8352 69.9577 23.3864 70.8463 22.4887C71.735 21.591 72.1793 20.4639 72.1793 19.1074C72.1793 17.7509 71.735 16.6238 70.8463 15.7261C69.9577 14.8284 68.8617 14.3795 67.5583 14.3795C66.255 14.3795 65.159 14.8284 64.2704 15.7261C63.3817 16.6238 62.9374 17.7509 62.9374 19.1074C62.9374 20.4639 63.3817 21.591 64.2704 22.4887Z" fill="white"/>
<path d="M85.9466 11.2376C87.9806 11.2376 89.7184 12.0057 91.16 13.5417C92.6015 15.0578 93.3223 16.913 93.3223 19.1074C93.3223 21.3217 92.6015 23.1869 91.16 24.703C89.7184 26.2191 87.9806 26.9771 85.9466 26.9771C83.6953 26.9771 81.9673 26.1393 80.7627 24.4636V31.5097H77.5635V11.6266H80.7627V13.7811C81.9673 12.0854 83.6953 11.2376 85.9466 11.2376ZM82.0957 22.5485C82.9843 23.4462 84.1002 23.8951 85.443 23.8951C86.7858 23.8951 87.9016 23.4462 88.7902 22.5485C89.6789 21.6309 90.1232 20.4838 90.1232 19.1074C90.1232 17.7309 89.6789 16.5938 88.7902 15.6962C87.9016 14.7785 86.7858 14.3197 85.443 14.3197C84.1002 14.3197 82.9843 14.7785 82.0957 15.6962C81.2071 16.5938 80.7627 17.7309 80.7627 19.1074C80.7627 20.4838 81.2071 21.6309 82.0957 22.5485Z" fill="white"/>
<path d="M106.237 11.6266H108.696V26.5881H105.556V17.0726L97.9728 26.5881H95.5142V11.6266H98.6541V21.1122L106.237 11.6266Z" fill="white"/>
<path d="M123.723 11.6266V14.7386H118.895V26.5881H115.696V14.7386H110.838V11.6266H123.723Z" fill="white"/>
<path d="M140.995 11.6266V26.5881H137.885V16.7435L133.619 23.5958H133.234L128.998 16.7734V26.5881H125.888V11.6266H129.146L133.441 18.5388L137.736 11.6266H140.995Z" fill="white"/>
<path d="M155.413 11.6266H157.872V26.5881H154.732V17.0726L147.149 26.5881H144.691V11.6266H147.83V21.1122L155.413 11.6266Z" fill="white"/>
<path d="M174.323 26.5881H170.502L164.429 19.6759V26.5881H161.23V11.6266H164.429V18.2396L170.176 11.6266H174.086L167.569 18.9578L174.323 26.5881Z" fill="white"/>
<path d="M186.311 11.6266H189.51V26.5881H186.311V24.4337C185.107 26.1293 183.379 26.9771 181.127 26.9771C179.093 26.9771 177.356 26.2191 175.914 24.703C174.473 23.1669 173.752 21.3017 173.752 19.1074C173.752 16.8931 174.473 15.0279 175.914 13.5118C177.356 11.9957 179.093 11.2376 181.127 11.2376C183.379 11.2376 185.107 12.0755 186.311 13.7512V11.6266ZM178.284 22.5485C179.172 23.4462 180.288 23.8951 181.631 23.8951C182.974 23.8951 184.09 23.4462 184.978 22.5485C185.867 21.6309 186.311 20.4838 186.311 19.1074C186.311 17.7309 185.867 16.5938 184.978 15.6962C184.09 14.7785 182.974 14.3197 181.631 14.3197C180.288 14.3197 179.172 14.7785 178.284 15.6962C177.395 16.5938 176.951 17.7309 176.951 19.1074C176.951 20.4838 177.395 21.6309 178.284 22.5485Z" fill="white"/>
<path d="M26.9855 26.5881L25.1736 22.369H17.0365L15.2554 26.5881H11.5527L19.3361 6.70508H22.874L30.6585 26.5881H26.9855ZM18.0978 19.1373H24.1122L21.105 10.7801L18.0978 19.1373Z" fill="white"/>
</g>
<defs>
<clipPath id="clip0">
<rect width="263.461" height="65" fill="white" transform="translate(0.939453 0.680664)"/>
</clipPath>
</defs>
</svg>
