<svg width="191" height="48" viewBox="0 0 191 48" fill="none" xmlns="http://www.w3.org/2000/svg">
<path d="M30.8568 35.8279V44.4706H28.9033V37.591H24.7611V44.4706H22.8076V35.8279H30.8568Z" fill="white"/>
<path d="M38.2424 35.6032C39.4844 35.6032 40.5456 36.0469 41.4258 36.9342C42.3061 37.81 42.7463 38.8817 42.7463 40.1492C42.7463 41.4284 42.3061 42.5058 41.4258 43.3816C40.5456 44.2574 39.4844 44.6953 38.2424 44.6953C36.8677 44.6953 35.8125 44.2113 35.077 43.2433V47.9276H33.1234V35.8279H35.077V37.0725C35.8125 36.093 36.8677 35.6032 38.2424 35.6032ZM35.8909 42.137C36.4336 42.6556 37.1149 42.9149 37.9349 42.9149C38.7548 42.9149 39.4362 42.6556 39.9788 42.137C40.5214 41.607 40.7928 40.9444 40.7928 40.1492C40.7928 39.3541 40.5214 38.6973 39.9788 38.1787C39.4362 37.6486 38.7548 37.3836 37.9349 37.3836C37.1149 37.3836 36.4336 37.6486 35.8909 38.1787C35.3483 38.6973 35.077 39.3541 35.077 40.1492C35.077 40.9444 35.3483 41.607 35.8909 42.137Z" fill="white"/>
<path d="M48.7856 44.6953C47.4591 44.6953 46.3316 44.2574 45.4031 43.3816C44.4746 42.5058 44.0103 41.4284 44.0103 40.1492C44.0103 38.8701 44.4746 37.7927 45.4031 36.9169C46.3316 36.0411 47.4591 35.6032 48.7856 35.6032C50.1241 35.6032 51.2516 36.0411 52.168 36.9169C53.0965 37.7927 53.5608 38.8701 53.5608 40.1492C53.5608 41.4284 53.0965 42.5058 52.168 43.3816C51.2516 44.2574 50.1241 44.6953 48.7856 44.6953ZM46.7778 42.1025C47.3204 42.621 47.9897 42.8803 48.7856 42.8803C49.5814 42.8803 50.2507 42.621 50.7933 42.1025C51.336 41.5839 51.6073 40.9328 51.6073 40.1492C51.6073 39.3656 51.336 38.7146 50.7933 38.196C50.2507 37.6774 49.5814 37.4182 48.7856 37.4182C47.9897 37.4182 47.3204 37.6774 46.7778 38.196C46.2351 38.7146 45.9638 39.3656 45.9638 40.1492C45.9638 40.9328 46.2351 41.5839 46.7778 42.1025Z" fill="white"/>
<path d="M61.3867 35.8279V37.6256H57.2807V44.4706H55.3272V35.8279H61.3867Z" fill="white"/>
<path d="M67.8297 35.6032C69.0717 35.6032 70.1329 36.0469 71.0132 36.9342C71.8935 37.81 72.3336 38.8817 72.3336 40.1492C72.3336 41.4284 71.8935 42.5058 71.0132 43.3816C70.1329 44.2574 69.0717 44.6953 67.8297 44.6953C66.455 44.6953 65.3999 44.2113 64.6643 43.2433V47.9276H62.7108V35.8279H64.6643V37.0725C65.3999 36.093 66.455 35.6032 67.8297 35.6032ZM65.4783 42.137C66.0209 42.6556 66.7022 42.9149 67.5222 42.9149C68.3422 42.9149 69.0235 42.6556 69.5662 42.137C70.1088 41.607 70.3801 40.9444 70.3801 40.1492C70.3801 39.3541 70.1088 38.6973 69.5662 38.1787C69.0235 37.6486 68.3422 37.3836 67.5222 37.3836C66.7022 37.3836 66.0209 37.6486 65.4783 38.1787C64.9356 38.6973 64.6643 39.3541 64.6643 40.1492C64.6643 40.9444 64.9356 41.607 65.4783 42.137Z" fill="white"/>
<path d="M81.267 35.8279H83.2205V44.4706H81.267V43.226C80.5314 44.2055 79.4763 44.6953 78.1016 44.6953C76.8595 44.6953 75.7984 44.2574 74.9181 43.3816C74.0378 42.4943 73.5977 41.4168 73.5977 40.1492C73.5977 38.8701 74.0378 37.7927 74.9181 36.9169C75.7984 36.0411 76.8595 35.6032 78.1016 35.6032C79.4763 35.6032 80.5314 36.0872 81.267 37.0552V35.8279ZM76.3651 42.137C76.9078 42.6556 77.5891 42.9149 78.4091 42.9149C79.2291 42.9149 79.9104 42.6556 80.453 42.137C80.9957 41.607 81.267 40.9444 81.267 40.1492C81.267 39.3541 80.9957 38.6973 80.453 38.1787C79.9104 37.6486 79.2291 37.3836 78.4091 37.3836C77.5891 37.3836 76.9078 37.6486 76.3651 38.1787C75.8225 38.6973 75.5512 39.3541 75.5512 40.1492C75.5512 40.9444 75.8225 41.607 76.3651 42.137Z" fill="white"/>
<path d="M94.7224 35.8279V44.4706H92.8231V38.7837L90.2184 42.742H89.9833L87.3967 38.801V44.4706H85.4975V35.8279H87.4871L90.1099 39.8208L92.7327 35.8279H94.7224Z" fill="white"/>
<path d="M106.204 35.8279V44.4706H104.305V38.7837L101.7 42.742H101.465L98.8784 38.801V44.4706H96.9791V35.8279H98.9688L101.592 39.8208L104.214 35.8279H106.204Z" fill="white"/>
<path d="M115.009 35.8279H116.51V44.4706H114.593V38.9738L109.962 44.4706H108.461V35.8279H110.378V41.3074L115.009 35.8279Z" fill="white"/>
<path d="M123.896 35.6032C125.138 35.6032 126.199 36.0469 127.079 36.9342C127.959 37.81 128.399 38.8817 128.399 40.1492C128.399 41.4284 127.959 42.5058 127.079 43.3816C126.199 44.2574 125.138 44.6953 123.896 44.6953C122.521 44.6953 121.466 44.2113 120.73 43.2433V47.9276H118.777V35.8279H120.73V37.0725C121.466 36.093 122.521 35.6032 123.896 35.6032ZM121.544 42.137C122.087 42.6556 122.768 42.9149 123.588 42.9149C124.408 42.9149 125.089 42.6556 125.632 42.137C126.175 41.607 126.446 40.9444 126.446 40.1492C126.446 39.3541 126.175 38.6973 125.632 38.1787C125.089 37.6486 124.408 37.3836 123.588 37.3836C122.768 37.3836 122.087 37.6486 121.544 38.1787C121.001 38.6973 120.73 39.3541 120.73 40.1492C120.73 40.9444 121.001 41.607 121.544 42.137Z" fill="white"/>
<path d="M134.439 44.6953C133.112 44.6953 131.985 44.2574 131.056 43.3816C130.128 42.5058 129.663 41.4284 129.663 40.1492C129.663 38.8701 130.128 37.7927 131.056 36.9169C131.985 36.0411 133.112 35.6032 134.439 35.6032C135.777 35.6032 136.905 36.0411 137.821 36.9169C138.75 37.7927 139.214 38.8701 139.214 40.1492C139.214 41.4284 138.75 42.5058 137.821 43.3816C136.905 44.2574 135.777 44.6953 134.439 44.6953ZM132.431 42.1025C132.974 42.621 133.643 42.8803 134.439 42.8803C135.235 42.8803 135.904 42.621 136.446 42.1025C136.989 41.5839 137.26 40.9328 137.26 40.1492C137.26 39.3656 136.989 38.7146 136.446 38.196C135.904 37.6774 135.235 37.4182 134.439 37.4182C133.643 37.4182 132.974 37.6774 132.431 38.196C131.888 38.7146 131.617 39.3656 131.617 40.1492C131.617 40.9328 131.888 41.5839 132.431 42.1025Z" fill="white"/>
<path d="M147.239 40.0282C148.131 40.42 148.577 41.0826 148.577 42.0161C148.577 42.742 148.318 43.3355 147.8 43.7964C147.293 44.2459 146.564 44.4706 145.611 44.4706H140.98V35.8279H145.249C146.178 35.8279 146.895 36.0526 147.402 36.502C147.92 36.9399 148.179 37.5104 148.179 38.2133C148.179 39.0315 147.866 39.6364 147.239 40.0282ZM145.104 37.4182H142.843V39.3368H145.104C145.9 39.3368 146.298 39.0142 146.298 38.3689C146.298 37.7351 145.9 37.4182 145.104 37.4182ZM145.43 42.8457C146.25 42.8457 146.66 42.5058 146.66 41.8259C146.66 41.5263 146.551 41.2958 146.334 41.1345C146.117 40.9616 145.816 40.8752 145.43 40.8752H142.843V42.8457H145.43Z" fill="white"/>
<path d="M157.329 35.8279H159.282V44.4706H157.329V43.226C156.593 44.2055 155.538 44.6953 154.163 44.6953C152.921 44.6953 151.86 44.2574 150.98 43.3816C150.099 42.4943 149.659 41.4168 149.659 40.1492C149.659 38.8701 150.099 37.7927 150.98 36.9169C151.86 36.0411 152.921 35.6032 154.163 35.6032C155.538 35.6032 156.593 36.0872 157.329 37.0552V35.8279ZM152.427 42.137C152.969 42.6556 153.651 42.9149 154.471 42.9149C155.291 42.9149 155.972 42.6556 156.515 42.137C157.057 41.607 157.329 40.9444 157.329 40.1492C157.329 39.3541 157.057 38.6973 156.515 38.1787C155.972 37.6486 155.291 37.3836 154.471 37.3836C153.651 37.3836 152.969 37.6486 152.427 38.1787C151.884 38.6973 151.613 39.3541 151.613 40.1492C151.613 40.9444 151.884 41.607 152.427 42.137Z" fill="white"/>
<path d="M167.655 35.8279H169.608V44.4706H167.655V41.0308H163.513V44.4706H161.559V35.8279H163.513V39.2677H167.655V35.8279Z" fill="white"/>
<path d="M178.423 35.8279H179.924V44.4706H178.007V38.9738L173.376 44.4706H171.875V35.8279H173.792V41.3074L178.423 35.8279Z" fill="white"/>
<path d="M183.728 40.9444C183.873 41.6012 184.204 42.1082 184.723 42.4655C185.242 42.8112 185.875 42.984 186.622 42.984C187.659 42.984 188.437 42.6268 188.956 41.9123L190.565 42.8112C189.673 44.0672 188.353 44.6953 186.604 44.6953C185.133 44.6953 183.945 44.2689 183.041 43.4162C182.136 42.5519 181.684 41.4629 181.684 40.1492C181.684 38.8586 182.13 37.7812 183.023 36.9169C183.915 36.0411 185.061 35.6032 186.459 35.6032C187.786 35.6032 188.871 36.0469 189.715 36.9342C190.571 37.8215 191 38.8989 191 40.1665C191 40.3624 190.975 40.6217 190.927 40.9444H183.728ZM183.71 39.4233H189.028C188.895 38.7203 188.588 38.1902 188.105 37.833C187.635 37.4758 187.08 37.2972 186.441 37.2972C185.718 37.2972 185.115 37.4873 184.633 37.8676C184.15 38.2479 183.843 38.7664 183.71 39.4233Z" fill="white"/>
<path d="M14.6777 20.5711L21.5856 27.4899L14.7071 34.3794L7.79924 27.4605L14.6777 20.5711Z" fill="white"/>
<path d="M0 0.790344H144.914V27.5071H0V0.790344Z" fill="white"/>
<path d="M32.1794 8.72554V19.5721H29.8601V10.9816H26.2739V15.0166C26.2739 16.7375 25.9017 17.9596 25.1572 18.6827C24.4128 19.4058 23.3534 19.7023 21.979 19.5721V17.3811C22.6376 17.4968 23.1315 17.3594 23.4608 16.9689C23.79 16.5785 23.9547 15.8915 23.9547 14.9081V8.72554H32.1794Z" fill="#602B7A"/>
<path d="M42.0759 8.72554V10.9816H37.2012V19.5721H34.882V8.72554H42.0759Z" fill="#602B7A"/>
<path d="M48.2964 19.8541C46.7217 19.8541 45.3831 19.3046 44.2807 18.2054C43.1784 17.1063 42.6272 15.7541 42.6272 14.1488C42.6272 12.5435 43.1784 11.1913 44.2807 10.0922C45.3831 8.99309 46.7217 8.44353 48.2964 8.44353C49.8856 8.44353 51.2241 8.99309 52.3122 10.0922C53.4145 11.1913 53.9657 12.5435 53.9657 14.1488C53.9657 15.7541 53.4145 17.1063 52.3122 18.2054C51.2241 19.3046 49.8856 19.8541 48.2964 19.8541ZM45.9128 16.6001C46.557 17.2509 47.3516 17.5763 48.2964 17.5763C49.2413 17.5763 50.0359 17.2509 50.6801 16.6001C51.3244 15.9494 51.6465 15.1322 51.6465 14.1488C51.6465 13.1654 51.3244 12.3483 50.6801 11.6975C50.0359 11.0467 49.2413 10.7213 48.2964 10.7213C47.3516 10.7213 46.557 11.0467 45.9128 11.6975C45.2685 12.3483 44.9464 13.1654 44.9464 14.1488C44.9464 15.1322 45.2685 15.9494 45.9128 16.6001Z" fill="#602B7A"/>
<path d="M61.6273 8.44353C63.1018 8.44353 64.3617 9.00032 65.4068 10.1139C66.4519 11.213 66.9745 12.558 66.9745 14.1488C66.9745 15.7541 66.4519 17.1063 65.4068 18.2054C64.3617 19.3046 63.1018 19.8541 61.6273 19.8541C59.9952 19.8541 58.7424 19.2467 57.8691 18.0319V23.1401H55.5499V8.72554H57.8691V10.2874C58.7424 9.05817 59.9952 8.44353 61.6273 8.44353ZM58.8355 16.6435C59.4798 17.2943 60.2887 17.6197 61.2622 17.6197C62.2357 17.6197 63.0446 17.2943 63.6888 16.6435C64.3331 15.9783 64.6552 15.1467 64.6552 14.1488C64.6552 13.1509 64.3331 12.3266 63.6888 11.6758C63.0446 11.0106 62.2357 10.6779 61.2622 10.6779C60.2887 10.6779 59.4798 11.0106 58.8355 11.6758C58.1913 12.3266 57.8691 13.1509 57.8691 14.1488C57.8691 15.1467 58.1913 15.9783 58.8355 16.6435Z" fill="#602B7A"/>
<path d="M76.3374 8.72554H78.1198V19.5721H75.8435V12.6737L70.3459 19.5721H68.5635V8.72554H70.8398V15.6023L76.3374 8.72554Z" fill="#602B7A"/>
<path d="M89.014 8.72554V10.9816H85.5137V19.5721H83.1945V10.9816H79.6727V8.72554H89.014Z" fill="#602B7A"/>
<path d="M101.535 8.72554V19.5721H99.2805V12.4351L96.1882 17.4028H95.909L92.8382 12.4568V19.5721H90.5833V8.72554H92.9455L96.0593 13.7367L99.1731 8.72554H101.535Z" fill="#602B7A"/>
<path d="M111.988 8.72554H113.771V19.5721H111.494V12.6737L105.997 19.5721H104.215V8.72554H106.491V15.6023L111.988 8.72554Z" fill="#602B7A"/>
<path d="M125.697 19.5721H122.927L118.524 14.561V19.5721H116.205V8.72554H118.524V13.5197L122.691 8.72554H125.525L120.801 14.0404L125.697 19.5721Z" fill="#602B7A"/>
<path d="M134.388 8.72554H136.707V19.5721H134.388V18.0102C133.515 19.2395 132.262 19.8541 130.63 19.8541C129.156 19.8541 127.896 19.3046 126.851 18.2054C125.806 17.0919 125.283 15.7397 125.283 14.1488C125.283 12.5435 125.806 11.1913 126.851 10.0922C127.896 8.99309 129.156 8.44353 130.63 8.44353C132.262 8.44353 133.515 9.05094 134.388 10.2658V8.72554ZM128.569 16.6435C129.213 17.2943 130.022 17.6197 130.995 17.6197C131.969 17.6197 132.778 17.2943 133.422 16.6435C134.066 15.9783 134.388 15.1467 134.388 14.1488C134.388 13.1509 134.066 12.3266 133.422 11.6758C132.778 11.0106 131.969 10.6779 130.995 10.6779C130.022 10.6779 129.213 11.0106 128.569 11.6758C127.924 12.3266 127.602 13.1509 127.602 14.1488C127.602 15.1467 127.924 15.9783 128.569 16.6435Z" fill="#602B7A"/>
<path d="M18.8825 19.5721L17.569 16.5134H11.6698L10.3786 19.5721H7.69434L13.337 5.15759H15.9018L21.5453 19.5721H18.8825ZM12.4393 14.1705H16.7995L14.6194 8.11185L12.4393 14.1705Z" fill="#602B7A"/>
</svg>
