<svg width="264" height="66" viewBox="0 0 264 66" fill="none" xmlns="http://www.w3.org/2000/svg">
<path d="M43.1028 49.31V61.2314H40.4082V51.7419H34.6946V61.2314H32V49.31H43.1028Z" fill="#602B7A"/>
<path d="M53.2903 49C55.0036 49 56.4673 49.612 57.6816 50.8359C58.8958 52.0439 59.5029 53.5222 59.5029 55.2707C59.5029 57.0351 58.8958 58.5213 57.6816 59.7293C56.4673 60.9374 55.0036 61.5414 53.2903 61.5414C51.3941 61.5414 49.9387 60.8738 48.924 59.5386V66H46.2294V49.31H48.924V51.0266C49.9387 49.6755 51.3941 49 53.2903 49ZM50.0468 58.0126C50.7953 58.7279 51.7351 59.0856 52.8662 59.0856C53.9972 59.0856 54.937 58.7279 55.6855 58.0126C56.434 57.2814 56.8083 56.3675 56.8083 55.2707C56.8083 54.1739 56.434 53.2679 55.6855 52.5526C54.937 51.8214 53.9972 51.4558 52.8662 51.4558C51.7351 51.4558 50.7953 51.8214 50.0468 52.5526C49.2983 53.2679 48.924 54.1739 48.924 55.2707C48.924 56.3675 49.2983 57.2814 50.0468 58.0126Z" fill="#602B7A"/>
<path d="M67.8334 61.5414C66.0037 61.5414 64.4484 60.9374 63.1677 59.7293C61.8869 58.5213 61.2465 57.0351 61.2465 55.2707C61.2465 53.5063 61.8869 52.0201 63.1677 50.8121C64.4484 49.604 66.0037 49 67.8334 49C69.6797 49 71.2349 49.604 72.499 50.8121C73.7798 52.0201 74.4202 53.5063 74.4202 55.2707C74.4202 57.0351 73.7798 58.5213 72.499 59.7293C71.2349 60.9374 69.6797 61.5414 67.8334 61.5414ZM65.0639 57.9649C65.8124 58.6802 66.7355 59.0379 67.8334 59.0379C68.9312 59.0379 69.8543 58.6802 70.6028 57.9649C71.3513 57.2496 71.7256 56.3516 71.7256 55.2707C71.7256 54.1898 71.3513 53.2917 70.6028 52.5764C69.8543 51.8611 68.9312 51.5035 67.8334 51.5035C66.7355 51.5035 65.8124 51.8611 65.0639 52.5764C64.3154 53.2917 63.9411 54.1898 63.9411 55.2707C63.9411 56.3516 64.3154 57.2496 65.0639 57.9649Z" fill="#602B7A"/>
<path d="M85.2151 49.31V51.7896H79.5514V61.2314H76.8568V49.31H85.2151Z" fill="#602B7A"/>
<path d="M94.1024 49C95.8157 49 97.2794 49.612 98.4936 50.8359C99.7079 52.0439 100.315 53.5222 100.315 55.2707C100.315 57.0351 99.7079 58.5213 98.4936 59.7293C97.2794 60.9374 95.8157 61.5414 94.1024 61.5414C92.2062 61.5414 90.7508 60.8738 89.7361 59.5386V66H87.0415V49.31H89.7361V51.0266C90.7508 49.6755 92.2062 49 94.1024 49ZM90.8589 58.0126C91.6074 58.7279 92.5472 59.0856 93.6783 59.0856C94.8093 59.0856 95.7491 58.7279 96.4976 58.0126C97.2461 57.2814 97.6204 56.3675 97.6204 55.2707C97.6204 54.1739 97.2461 53.2679 96.4976 52.5526C95.7491 51.8214 94.8093 51.4558 93.6783 51.4558C92.5472 51.4558 91.6074 51.8214 90.8589 52.5526C90.1104 53.2679 89.7361 54.1739 89.7361 55.2707C89.7361 56.3675 90.1104 57.2814 90.8589 58.0126Z" fill="#602B7A"/>
<path d="M112.637 49.31H115.332V61.2314H112.637V59.5147C111.623 60.8658 110.167 61.5414 108.271 61.5414C106.558 61.5414 105.094 60.9374 103.88 59.7293C102.666 58.5054 102.059 57.0192 102.059 55.2707C102.059 53.5063 102.666 52.0201 103.88 50.8121C105.094 49.604 106.558 49 108.271 49C110.167 49 111.623 49.6676 112.637 51.0028V49.31ZM105.876 58.0126C106.624 58.7279 107.564 59.0856 108.695 59.0856C109.826 59.0856 110.766 58.7279 111.515 58.0126C112.263 57.2814 112.637 56.3675 112.637 55.2707C112.637 54.1739 112.263 53.2679 111.515 52.5526C110.766 51.8214 109.826 51.4558 108.695 51.4558C107.564 51.4558 106.624 51.8214 105.876 52.5526C105.127 53.2679 104.753 54.1739 104.753 55.2707C104.753 56.3675 105.127 57.2814 105.876 58.0126Z" fill="#602B7A"/>
<path d="M131.198 49.31V61.2314H128.578V53.3871L124.985 58.8471H124.661L121.093 53.4109V61.2314H118.473V49.31H121.217L124.835 54.8177L128.453 49.31H131.198Z" fill="#602B7A"/>
<path d="M147.035 49.31V61.2314H144.415V53.3871L140.822 58.8471H140.498L136.93 53.4109V61.2314H134.31V49.31H137.055L140.673 54.8177L144.291 49.31H147.035Z" fill="#602B7A"/>
<path d="M159.18 49.31H161.251V61.2314H158.606V53.6494L152.219 61.2314H150.148V49.31H152.793V56.8682L159.18 49.31Z" fill="#602B7A"/>
<path d="M171.438 49C173.152 49 174.615 49.612 175.83 50.8359C177.044 52.0439 177.651 53.5222 177.651 55.2707C177.651 57.0351 177.044 58.5213 175.83 59.7293C174.615 60.9374 173.152 61.5414 171.438 61.5414C169.542 61.5414 168.087 60.8738 167.072 59.5386V66H164.377V49.31H167.072V51.0266C168.087 49.6755 169.542 49 171.438 49ZM168.195 58.0126C168.943 58.7279 169.883 59.0856 171.014 59.0856C172.145 59.0856 173.085 58.7279 173.834 58.0126C174.582 57.2814 174.956 56.3675 174.956 55.2707C174.956 54.1739 174.582 53.2679 173.834 52.5526C173.085 51.8214 172.145 51.4558 171.014 51.4558C169.883 51.4558 168.943 51.8214 168.195 52.5526C167.446 53.2679 167.072 54.1739 167.072 55.2707C167.072 56.3675 167.446 57.2814 168.195 58.0126Z" fill="#602B7A"/>
<path d="M185.981 61.5414C184.152 61.5414 182.596 60.9374 181.316 59.7293C180.035 58.5213 179.394 57.0351 179.394 55.2707C179.394 53.5063 180.035 52.0201 181.316 50.8121C182.596 49.604 184.152 49 185.981 49C187.828 49 189.383 49.604 190.647 50.8121C191.928 52.0201 192.568 53.5063 192.568 55.2707C192.568 57.0351 191.928 58.5213 190.647 59.7293C189.383 60.9374 187.828 61.5414 185.981 61.5414ZM183.212 57.9649C183.96 58.6802 184.884 59.0379 185.981 59.0379C187.079 59.0379 188.002 58.6802 188.751 57.9649C189.499 57.2496 189.874 56.3516 189.874 55.2707C189.874 54.1898 189.499 53.2917 188.751 52.5764C188.002 51.8611 187.079 51.5035 185.981 51.5035C184.884 51.5035 183.96 51.8611 183.212 52.5764C182.463 53.2917 182.089 54.1898 182.089 55.2707C182.089 56.3516 182.463 57.2496 183.212 57.9649Z" fill="#602B7A"/>
<path d="M203.637 55.1038C204.868 55.6442 205.484 56.5582 205.484 57.8457C205.484 58.8471 205.126 59.6657 204.411 60.3015C203.712 60.9215 202.706 61.2314 201.392 61.2314H195.005V49.31H200.893C202.174 49.31 203.163 49.6199 203.862 50.2398C204.577 50.8439 204.935 51.6307 204.935 52.6003C204.935 53.7288 204.502 54.5633 203.637 55.1038ZM200.693 51.5035H197.575V54.1501H200.693C201.791 54.1501 202.34 53.705 202.34 52.8149C202.34 51.9406 201.791 51.5035 200.693 51.5035ZM201.142 58.9902C202.274 58.9902 202.839 58.5213 202.839 57.5835C202.839 57.1702 202.689 56.8523 202.39 56.6297C202.091 56.3913 201.675 56.2721 201.142 56.2721H197.575V58.9902H201.142Z" fill="#602B7A"/>
<path d="M217.555 49.31H220.25V61.2314H217.555V59.5147C216.54 60.8658 215.085 61.5414 213.189 61.5414C211.475 61.5414 210.012 60.9374 208.798 59.7293C207.583 58.5054 206.976 57.0192 206.976 55.2707C206.976 53.5063 207.583 52.0201 208.798 50.8121C210.012 49.604 211.475 49 213.189 49C215.085 49 216.54 49.6676 217.555 51.0028V49.31ZM210.794 58.0126C211.542 58.7279 212.482 59.0856 213.613 59.0856C214.744 59.0856 215.684 58.7279 216.432 58.0126C217.181 57.2814 217.555 56.3675 217.555 55.2707C217.555 54.1739 217.181 53.2679 216.432 52.5526C215.684 51.8214 214.744 51.4558 213.613 51.4558C212.482 51.4558 211.542 51.8214 210.794 52.5526C210.045 53.2679 209.671 54.1739 209.671 55.2707C209.671 56.3675 210.045 57.2814 210.794 58.0126Z" fill="#602B7A"/>
<path d="M231.799 49.31H234.493V61.2314H231.799V56.4867H226.085V61.2314H223.39V49.31H226.085V54.0547H231.799V49.31Z" fill="#602B7A"/>
<path d="M246.652 49.31H248.723V61.2314H246.078V53.6494L239.691 61.2314H237.62V49.31H240.265V56.8682L246.652 49.31Z" fill="#602B7A"/>
<path d="M253.97 56.3675C254.17 57.2735 254.627 57.9729 255.342 58.4656C256.058 58.9425 256.931 59.1809 257.962 59.1809C259.393 59.1809 260.465 58.6882 261.181 57.7027L263.401 58.9425C262.17 60.6751 260.349 61.5414 257.937 61.5414C255.908 61.5414 254.269 60.9532 253.022 59.777C251.774 58.5849 251.151 57.0827 251.151 55.2707C251.151 53.4904 251.766 52.0042 252.997 50.8121C254.228 49.604 255.808 49 257.738 49C259.567 49 261.064 49.612 262.229 50.8359C263.41 52.0598 264 53.5461 264 55.2945C264 55.5648 263.967 55.9224 263.9 56.3675H253.97ZM253.945 54.2693H261.28C261.097 53.2997 260.673 52.5685 260.008 52.0757C259.359 51.583 258.594 51.3366 257.713 51.3366C256.715 51.3366 255.883 51.5989 255.218 52.1234C254.552 52.648 254.128 53.3633 253.945 54.2693Z" fill="#602B7A"/>
<path d="M20.7861 28.2651L30.3146 37.8088L20.8266 47.3119L11.2981 37.7683L20.7861 28.2651Z" fill="#602B7A"/>
<path d="M0.539062 0.97998H200.43V37.8325H0.539062V0.97998Z" fill="#602B7A"/>
<path d="M44.9264 11.9256V26.8871H41.7273V15.0376H36.7806V20.6032C36.7806 22.9771 36.2671 24.6628 35.2403 25.6602C34.2134 26.6577 32.7521 27.0666 30.8563 26.8871V23.8649C31.7647 24.0244 32.446 23.8349 32.9002 23.2963C33.3544 22.7577 33.5815 21.8101 33.5815 20.4536V11.9256H44.9264Z" fill="white"/>
<path d="M58.5775 11.9256V15.0376H51.8534V26.8871H48.6543V11.9256H58.5775Z" fill="white"/>
<path d="M67.1579 27.2761C64.9857 27.2761 63.1393 26.518 61.6188 25.0019C60.0982 23.4858 59.3379 21.6206 59.3379 19.4063C59.3379 17.192 60.0982 15.3268 61.6188 13.8107C63.1393 12.2946 64.9857 11.5366 67.1579 11.5366C69.3499 11.5366 71.1963 12.2946 72.6972 13.8107C74.2177 15.3268 74.978 17.192 74.978 19.4063C74.978 21.6206 74.2177 23.4858 72.6972 25.0019C71.1963 26.518 69.3499 27.2761 67.1579 27.2761ZM63.87 22.7876C64.7586 23.6853 65.8546 24.1342 67.1579 24.1342C68.4613 24.1342 69.5573 23.6853 70.4459 22.7876C71.3346 21.8899 71.7789 20.7628 71.7789 19.4063C71.7789 18.0498 71.3346 16.9227 70.4459 16.025C69.5573 15.1273 68.4613 14.6785 67.1579 14.6785C65.8546 14.6785 64.7586 15.1273 63.87 16.025C62.9813 16.9227 62.537 18.0498 62.537 19.4063C62.537 20.7628 62.9813 21.8899 63.87 22.7876Z" fill="white"/>
<path d="M85.5462 11.5366C87.5802 11.5366 89.318 12.3046 90.7596 13.8406C92.2011 15.3567 92.922 17.212 92.922 19.4063C92.922 21.6206 92.2011 23.4858 90.7596 25.0019C89.318 26.518 87.5802 27.2761 85.5462 27.2761C83.2949 27.2761 81.5669 26.4382 80.3623 24.7625V31.8086H77.1631V11.9256H80.3623V14.08C81.5669 12.3844 83.2949 11.5366 85.5462 11.5366ZM81.6953 22.8475C82.584 23.7452 83.6998 24.194 85.0426 24.194C86.3854 24.194 87.5012 23.7452 88.3899 22.8475C89.2785 21.9298 89.7228 20.7828 89.7228 19.4063C89.7228 18.0299 89.2785 16.8928 88.3899 15.9951C87.5012 15.0775 86.3854 14.6186 85.0426 14.6186C83.6998 14.6186 82.584 15.0775 81.6953 15.9951C80.8067 16.8928 80.3623 18.0299 80.3623 19.4063C80.3623 20.7828 80.8067 21.9298 81.6953 22.8475Z" fill="white"/>
<path d="M105.837 11.9256H108.296V26.8871H105.156V17.3716L97.5724 26.8871H95.1138V11.9256H98.2537V21.4112L105.837 11.9256Z" fill="white"/>
<path d="M123.323 11.9256V15.0376H118.495V26.8871H115.295V15.0376H110.438V11.9256H123.323Z" fill="white"/>
<path d="M140.594 11.9256V26.8871H137.484V17.0424L133.219 23.8948H132.834L128.598 17.0723V26.8871H125.488V11.9256H128.746L133.041 18.8378L137.336 11.9256H140.594Z" fill="white"/>
<path d="M155.013 11.9256H157.472V26.8871H154.332V17.3716L146.749 26.8871H144.29V11.9256H147.43V21.4112L155.013 11.9256Z" fill="white"/>
<path d="M173.922 26.8871H170.101L164.029 19.9749V26.8871H160.83V11.9256H164.029V18.5386L169.775 11.9256H173.685L167.169 19.2567L173.922 26.8871Z" fill="white"/>
<path d="M185.911 11.9256H189.11V26.8871H185.911V24.7326C184.706 26.4283 182.978 27.2761 180.727 27.2761C178.693 27.2761 176.955 26.518 175.514 25.0019C174.072 23.4659 173.351 21.6007 173.351 19.4063C173.351 17.192 174.072 15.3268 175.514 13.8107C176.955 12.2946 178.693 11.5366 180.727 11.5366C182.978 11.5366 184.706 12.3744 185.911 14.0501V11.9256ZM177.883 22.8475C178.772 23.7452 179.888 24.194 181.231 24.194C182.573 24.194 183.689 23.7452 184.578 22.8475C185.466 21.9298 185.911 20.7828 185.911 19.4063C185.911 18.0299 185.466 16.8928 184.578 15.9951C183.689 15.0775 182.573 14.6186 181.231 14.6186C179.888 14.6186 178.772 15.0775 177.883 15.9951C176.995 16.8928 176.55 18.0299 176.55 19.4063C176.55 20.7828 176.995 21.9298 177.883 22.8475Z" fill="white"/>
<path d="M26.5851 26.8871L24.7732 22.6679H16.6361L14.855 26.8871H11.1523L18.9357 7.00403H22.4736L30.2581 26.8871H26.5851ZM17.6974 19.4362H23.7119L20.7046 11.0791L17.6974 19.4362Z" fill="white"/>
</svg>
