<svg width="241" height="168" viewBox="0 0 241 168" fill="none" xmlns="http://www.w3.org/2000/svg">
<path d="M93.1082 115.345L34.5483 110.633" stroke="#F34A8E" stroke-width="1.40864" stroke-dasharray="5.63 5.63"/>
<path d="M97.8198 95.1521L7.96097 83.6062" stroke="#F34A8E" stroke-width="1.40864" stroke-dasharray="5.63 5.63"/>
<path d="M98.0797 75.8549L52.7215 59.7652" stroke="#F34A8E" stroke-width="1.40864" stroke-dasharray="5.63 5.63"/>
<path d="M107.044 29.4356L193.522 39.4155C194.973 39.5878 195.986 40.8928 195.855 42.3536L183.819 146.377C183.647 147.828 182.342 148.842 180.881 148.71L94.4038 138.73C92.9525 138.557 91.9393 137.253 92.0712 135.792L104.106 31.7682C104.278 30.317 105.593 29.2634 107.044 29.4356Z" fill="white"/>
<path fill-rule="evenodd" clip-rule="evenodd" d="M187.722 44.4816L111.534 35.6956C110.626 35.5665 109.83 36.231 109.701 37.1383L107.431 56.7173L124.302 46.4266C126.598 45.008 129.997 45.5976 131.794 47.5564L146.067 63.2891C147.455 64.8106 148.906 64.9828 150.696 64.084L163.132 57.8136C164.862 56.986 167.201 57.368 168.557 58.6685L185.819 75.1786L189.164 46.3143C189.253 45.3974 188.638 44.5703 187.722 44.4816ZM155.561 55.2158C158.192 55.8372 160.829 54.208 161.45 51.5767C162.072 48.9455 160.443 46.3087 157.811 45.6873C155.18 45.0659 152.543 46.6952 151.922 49.3264C151.301 51.9576 152.93 54.5944 155.561 55.2158Z" fill="#54C320"/>
<path d="M105.061 77.5207L107.172 59.2184L125.101 48.2777C126.898 47.1675 129.247 47.5091 130.667 49.0805L145.348 65.2506C146.705 66.7221 148.824 67.1372 150.613 66.2384L162.859 60.051C164.549 59.2139 166.565 59.5196 167.921 60.8201L185.549 77.6863L184.439 87.4414C184.31 88.3488 183.523 88.9728 182.606 88.8842L106.418 80.0982C106.389 80.094 106.359 80.0891 106.33 80.0835C105.44 79.9716 104.848 79.1571 104.935 78.256L105.026 77.4698C105.037 77.487 105.049 77.504 105.061 77.5207Z" fill="#54C320"/>
<path d="M109.79 28.4634L195.902 41.2556C197.343 41.4682 198.347 42.8135 198.134 44.2553L182.753 147.829C182.54 149.271 181.195 150.275 179.753 150.062L93.6411 137.27C92.1993 137.057 91.1956 135.712 91.4083 134.27L106.79 30.6962C107.003 29.2545 108.348 28.2508 109.79 28.4634Z" stroke="#602B7A" stroke-width="0.829714" stroke-miterlimit="10"/>
<path d="M105.712 86.8809L181.9 95.6669C182.817 95.7556 183.432 96.5827 183.343 97.4996L182.819 102.065C182.73 102.982 181.903 103.596 180.986 103.508L104.798 94.7215C103.881 94.6329 103.267 93.8057 103.356 92.8888L103.88 88.3236C104.009 87.4163 104.795 86.7922 105.712 86.8809Z" fill="#9D61FF"/>
<path d="M103.402 100.987L179.59 109.773C180.507 109.862 181.121 110.689 181.033 111.606L180.509 116.171C180.42 117.088 179.593 117.702 178.676 117.614L102.488 108.828C101.571 108.739 100.956 107.912 101.045 106.995L101.569 102.43C101.698 101.523 102.485 100.898 103.402 100.987Z" fill="#9D61FF"/>
<path d="M101.091 115.093L177.279 123.879C178.196 123.967 178.811 124.795 178.722 125.712L178.198 130.277C178.109 131.194 177.282 131.808 176.365 131.719L100.177 122.933C99.2603 122.845 98.6458 122.018 98.7344 121.101L99.2584 116.536C99.3875 115.628 100.174 115.004 101.091 115.093Z" fill="#9D61FF"/>
<path d="M111.537 107.221L111.475 106.972C109.983 96.4072 117.317 86.588 127.882 85.0965L216.689 72.3564C227.254 70.8649 237.074 78.1982 238.565 88.7632L238.627 89.0118C240.119 99.5767 232.785 109.396 222.221 110.887L133.413 123.628C122.848 125.119 113.028 117.786 111.537 107.221Z" fill="#602B7A" stroke="#602B7A" stroke-width="0.829714" stroke-miterlimit="10" stroke-linecap="round" stroke-linejoin="round"/>
<path d="M113.649 109.086C112.158 98.5212 119.491 88.702 130.056 87.2105L217.932 74.5947C228.496 73.1032 238.316 80.4365 239.807 91.0014C241.299 101.566 233.965 111.386 223.4 112.877L135.587 125.493C125.022 127.047 115.203 119.713 113.649 109.086Z" fill="white" stroke="#602B7A" stroke-width="1.3462" stroke-miterlimit="10" stroke-linecap="round" stroke-linejoin="round"/>
<path d="M143.418 104.7L143.418 104.7L142.437 97.9457C142.346 97.3166 142.776 96.7305 143.404 96.6293C144.044 96.526 144.646 96.9665 144.741 97.6086L145.715 104.211L143.418 104.7ZM143.418 104.7L143.418 104.703M143.418 104.7L143.418 104.703M143.418 104.703C143.733 106.655 144.431 108.14 145.667 109.05C146.896 109.955 148.439 110.271 150.217 110.017L150.217 110.017L150.222 110.016C152.056 109.7 153.412 108.999 154.319 107.768C155.226 106.536 155.539 104.929 155.223 102.967L154.238 96.1812C154.149 95.5706 153.586 95.1448 152.974 95.2264C152.352 95.3095 151.917 95.8859 152.009 96.5075L152.988 103.147L152.988 103.147M143.418 104.703L152.988 103.147M152.988 103.147L152.989 103.151M152.988 103.147L152.989 103.151M152.989 103.151C153.233 104.614 153.044 105.678 152.523 106.431C151.999 107.187 151.181 107.663 149.977 107.844M152.989 103.151L149.977 107.844M149.977 107.844C148.737 108.025 147.788 107.81 147.095 107.226C146.398 106.638 145.929 105.649 145.715 104.211L149.977 107.844Z" fill="#602B7A" stroke="#602B7A" stroke-width="0.374516" stroke-linecap="round" stroke-linejoin="round"/>
<path d="M168.549 98.8437L168.55 98.8436L168.545 98.8375C167.969 98.1345 167.259 97.5509 166.35 97.226C165.447 96.9038 164.484 96.8403 163.588 96.9684L163.588 96.9683L163.583 96.9691C162.817 97.0968 162.107 97.3534 161.522 97.7437C161.293 97.8964 161.073 98.0697 160.87 98.2639C160.789 98.3425 160.641 98.3758 160.495 98.3411C160.349 98.3064 160.268 98.2215 160.254 98.1323C160.206 97.8173 159.913 97.5995 159.598 97.643L159.094 97.7125C158.488 97.7961 158.067 98.3571 158.156 98.9619L159.939 111.119C160.028 111.727 160.59 112.152 161.2 112.07C161.824 111.987 162.259 111.408 162.163 110.785L161.807 108.452C161.774 108.238 161.909 108.005 162.173 107.83C162.433 107.657 162.76 107.585 163.004 107.65C163.65 107.844 164.36 107.908 165.133 107.78C166.158 107.651 167.061 107.265 167.772 106.683C168.475 106.108 169.059 105.398 169.384 104.488C169.707 103.584 169.769 102.621 169.642 101.544L169.642 101.543C169.513 100.515 169.127 99.6143 168.549 98.8437ZM165.34 99.2514C165.346 99.2539 165.352 99.2561 165.357 99.258C165.877 99.4312 166.344 99.7795 166.696 100.249C167.048 100.719 167.287 101.312 167.407 101.973C167.525 102.621 167.467 103.206 167.233 103.793C166.991 104.336 166.697 104.8 166.236 105.145C165.762 105.501 165.229 105.738 164.634 105.857C164.048 105.974 163.467 105.915 162.945 105.683C162.411 105.446 161.941 105.092 161.589 104.623C161.237 104.154 160.998 103.561 160.878 102.9C160.759 102.247 160.82 101.602 161.051 101.083C161.293 100.538 161.587 100.073 162.049 99.7273C162.514 99.378 163.043 99.1991 163.651 99.0775C164.237 98.9604 164.819 99.0194 165.34 99.2514Z" fill="#602B7A" stroke="#602B7A" stroke-width="0.374516" stroke-linecap="round" stroke-linejoin="round"/>
<path d="M171.558 91.6837C170.934 91.7669 170.499 92.3441 170.591 92.9664L172.429 105.399C172.52 106.009 173.083 106.434 173.694 106.352C174.317 106.269 174.752 105.692 174.66 105.07L172.822 92.6366C172.732 92.0267 172.169 91.6023 171.558 91.6837Z" fill="#602B7A" stroke="#602B7A" stroke-width="0.374516" stroke-linecap="round" stroke-linejoin="round"/>
<path d="M177.385 103.295L177.385 103.295L177.39 103.301C177.969 104.008 178.742 104.589 179.647 104.912C180.545 105.233 181.508 105.361 182.658 105.17C183.685 105.041 184.584 104.655 185.354 104.078C186.129 103.496 186.645 102.784 187.029 101.889C187.419 100.979 187.481 100.011 187.354 98.9953C187.225 97.9672 186.839 97.0667 186.261 96.2961L186.261 96.296L186.256 96.2898C185.677 95.5824 184.904 95.0016 183.999 94.6784C183.095 94.3555 182.07 94.2934 181.055 94.4203C179.965 94.5486 179.064 94.9343 178.293 95.5128C177.525 96.0888 176.941 96.7991 176.615 97.7072C176.227 98.6152 176.166 99.5813 176.293 100.595C176.421 101.624 176.807 102.524 177.385 103.295ZM183.886 102.535L183.886 102.535L183.877 102.543C183.474 102.888 182.886 103.127 182.284 103.247C181.698 103.365 181.116 103.305 180.594 103.073C180.061 102.836 179.59 102.482 179.239 102.014C178.886 101.544 178.647 100.951 178.527 100.29C178.408 99.6371 178.47 98.9925 178.701 98.4732C178.943 97.9285 179.237 97.4636 179.698 97.1175L179.699 97.1179L179.708 97.1099C180.104 96.7705 180.684 96.5912 181.301 96.4677C181.886 96.3506 182.468 96.4097 182.99 96.6417C182.996 96.6441 183.001 96.6463 183.007 96.6482C183.527 96.8215 183.993 97.1698 184.346 97.6394C184.696 98.107 184.935 98.697 185.056 99.3546C185.114 100.012 185.054 100.662 184.88 101.188C184.639 101.729 184.345 102.191 183.886 102.535Z" fill="#602B7A" stroke="#602B7A" stroke-width="0.374516" stroke-linecap="round" stroke-linejoin="round"/>
<path d="M197.731 96.3181L197.731 96.3181L197.73 96.3127C197.478 94.9225 196.965 93.8675 196.032 93.2677C195.114 92.6782 193.95 92.4917 192.504 92.5546C192.497 92.5549 192.49 92.5555 192.484 92.5566C191.658 92.6835 190.834 92.9371 190.135 93.2548C189.666 93.4682 189.223 93.7393 188.845 94.0501C188.446 94.3786 188.448 94.9444 188.738 95.3253C189.117 95.8234 189.828 95.851 190.311 95.5198C190.497 95.392 190.7 95.2677 190.925 95.1426C191.465 94.843 191.999 94.6653 192.593 94.6059C192.6 94.6052 192.607 94.6042 192.614 94.6027C193.449 94.4236 194.134 94.5497 194.575 94.8801L194.575 94.8804L194.583 94.8861C195.088 95.2225 195.378 95.7283 195.497 96.4989L195.497 96.4989L195.497 96.5012C195.514 96.6029 195.444 96.6986 195.342 96.7138L192.795 97.0931L192.795 97.0931L192.791 97.0939C191.341 97.3461 190.366 97.7922 189.707 98.451C189.035 99.1231 188.84 99.9945 188.971 100.908C189.103 101.9 189.636 102.633 190.429 103.095C191.217 103.555 192.256 103.746 193.412 103.554C194.233 103.427 194.884 103.235 195.475 102.841C195.699 102.692 195.896 102.532 196.068 102.361C196.124 102.305 196.231 102.278 196.341 102.305C196.45 102.331 196.501 102.392 196.508 102.448C196.547 102.73 196.807 102.927 197.089 102.886L197.634 102.808C198.217 102.725 198.62 102.183 198.532 101.601L197.731 96.3181ZM191.144 100.611L191.145 100.611L191.143 100.602C191.06 100.131 191.183 99.779 191.487 99.5078C191.805 99.2247 192.337 99.015 193.1 98.8927C193.101 98.8927 193.101 98.8927 193.101 98.8926L194.78 98.6372C195.323 98.5545 195.828 98.9344 195.899 99.479C195.917 99.6177 195.906 99.7541 195.863 99.8777C195.692 100.368 195.465 100.749 195.072 101.044C194.599 101.399 194.066 101.636 193.473 101.755C192.757 101.874 192.303 101.812 191.85 101.585C191.409 101.365 191.199 101.046 191.144 100.611Z" fill="#602B7A" stroke="#602B7A" stroke-width="0.374516" stroke-linecap="round" stroke-linejoin="round"/>
<path d="M208.215 100.914L208.216 100.915L208.226 100.906C208.455 100.729 208.674 100.54 208.877 100.335C208.955 100.256 209.099 100.221 209.243 100.255C209.388 100.289 209.469 100.374 209.483 100.463C209.531 100.778 209.823 100.996 210.139 100.953L210.643 100.883C211.248 100.8 211.669 100.238 211.58 99.6332L209.739 87.1792C209.648 86.566 209.071 86.1477 208.46 86.253C207.871 86.3545 207.47 86.9055 207.555 87.4966L207.95 90.2628C207.981 90.4818 207.842 90.7169 207.575 90.8918C207.311 91.0651 206.98 91.137 206.731 91.0692C206.027 90.877 205.317 90.8117 204.542 90.9402C203.512 91.0696 202.676 91.4571 201.909 92.0322L201.909 92.0321L201.902 92.0371C201.2 92.6118 200.617 93.3213 200.292 94.2299C199.967 95.0749 199.906 96.0394 200.033 97.1135L200.033 97.1135L200.033 97.1149C200.161 98.143 200.547 99.0435 201.125 99.8142L201.125 99.8143L201.13 99.8204C201.705 100.523 202.414 101.106 203.323 101.431C204.167 101.755 205.132 101.817 206.146 101.69L206.146 101.69L206.153 101.689C206.92 101.561 207.63 101.304 208.215 100.914ZM203.438 93.5748L203.439 93.5751L203.448 93.5671C203.844 93.2278 204.362 93.0491 205.03 92.927C205.625 92.8684 206.217 92.9288 206.747 93.1054C207.267 93.2787 207.734 93.627 208.086 94.0967C208.437 94.5642 208.675 95.1542 208.796 95.8118C208.854 96.4688 208.794 97.119 208.62 97.6454C208.379 98.1864 208.085 98.6484 207.626 98.9927C207.152 99.3484 206.618 99.5857 206.024 99.7046C205.438 99.8218 204.856 99.7627 204.334 99.5307C203.801 99.2936 203.33 98.9396 202.979 98.4708C202.628 98.0032 202.389 97.4132 202.269 96.7556C202.208 96.0789 202.214 95.4405 202.441 94.9304C202.683 94.3858 202.977 93.9208 203.438 93.5748Z" fill="#602B7A" stroke="#602B7A" stroke-width="0.374516" stroke-linecap="round" stroke-linejoin="round"/>
<path d="M207.677 124.622C205.875 124.746 204.508 126.176 204.384 127.916C204.384 127.978 204.321 127.978 204.321 127.916L204.073 126.176C203.824 124.374 202.271 123.006 200.468 123.068C198.666 123.193 197.299 124.622 197.175 126.362C197.175 126.424 197.112 126.424 197.112 126.362L196.864 124.622C196.615 122.82 195.124 122.136 193.384 122.447C189.406 123.193 190.463 128.289 190.773 130.277L187.728 110.204C187.728 110.266 187.666 110.266 187.666 110.204C187.107 108.588 186.858 106.413 185.118 106.848C183.378 107.283 180.768 110.266 181.016 112.068L183.751 130.215C183.751 130.277 183.254 126.735 180.644 127.481C178.903 127.978 176.853 130.899 177.101 132.701L178.344 140.78C179.338 147.306 182.073 152.837 185.118 155.633C189.344 159.424 195.807 160.667 200.903 160.357C209.107 159.859 214.949 152.464 213.768 144.509L211.531 129.656C211.531 129.532 211.53 129.407 211.468 129.283L211.282 127.854C211.033 125.927 209.48 124.498 207.677 124.622Z" fill="#602B7A" stroke="#602B7A" stroke-width="1.3462" stroke-miterlimit="10" stroke-linecap="round" stroke-linejoin="round"/>
<path d="M204.197 127.356L204.322 128.164" stroke="#602B7A" stroke-width="1.3462" stroke-miterlimit="10" stroke-linecap="round" stroke-linejoin="round"/>
<path d="M196.988 125.491L197.548 129.158" stroke="#602B7A" stroke-width="1.3462" stroke-miterlimit="10" stroke-linecap="round" stroke-linejoin="round"/>
<path d="M188.847 163.898C188.536 162.034 190.276 159.734 192.141 159.424L209.169 157.311C211.033 157 214.824 158.989 214.824 158.989C215.135 160.853 212.09 163.836 210.225 164.085L192.762 166.695C190.898 167.13 189.095 165.825 188.847 163.898Z" fill="#602B7A" stroke="#602B7A" stroke-width="1.3462" stroke-miterlimit="10" stroke-linecap="round" stroke-linejoin="round"/>
<path d="M209.355 123.068C207.553 123.192 206.186 124.622 206.062 126.362C206.062 126.424 205.999 126.424 205.999 126.362L205.751 124.622C205.502 122.819 203.949 121.452 202.146 121.514C200.344 121.639 198.977 123.068 198.853 124.808C198.853 124.87 198.79 124.87 198.79 124.808L198.542 123.068C198.293 121.266 196.802 120.582 195.062 120.893C191.084 121.639 192.141 126.735 192.451 128.723L189.406 108.65C189.406 108.712 189.344 108.712 189.344 108.65C188.785 107.034 187.045 106.04 185.305 106.475C183.564 106.91 182.446 108.712 182.757 110.514L185.491 128.661C185.491 128.723 183.999 126.362 181.389 127.107C179.649 127.605 178.593 129.345 178.841 131.147L180.084 139.226C181.079 145.751 183.813 151.283 186.858 154.079C191.084 157.87 197.547 159.113 202.644 158.802C210.847 158.305 216.689 150.91 215.446 142.955L213.208 128.102C213.208 127.977 213.208 127.853 213.146 127.729L212.96 126.3C212.711 124.373 211.158 122.944 209.355 123.068Z" fill="white" stroke="#602B7A" stroke-width="1.3462" stroke-miterlimit="10" stroke-linecap="round" stroke-linejoin="round"/>
<path d="M205.875 125.74L205.999 126.611" stroke="#602B7A" stroke-width="1.3462" stroke-miterlimit="10" stroke-linecap="round" stroke-linejoin="round"/>
<path d="M198.666 123.938L199.225 127.604" stroke="#602B7A" stroke-width="1.3462" stroke-miterlimit="10" stroke-linecap="round" stroke-linejoin="round"/>
<path d="M190.524 162.344C190.214 160.48 191.519 158.677 193.445 158.429L210.908 155.819C212.773 155.508 214.575 156.813 214.824 158.74C215.134 160.604 213.829 162.406 211.903 162.655L194.44 165.265C192.575 165.514 190.835 164.271 190.524 162.344Z" fill="white" stroke="#602B7A" stroke-width="1.3462" stroke-miterlimit="10" stroke-linecap="round" stroke-linejoin="round"/>
<path d="M185.242 127.915L187.107 140.096" stroke="#602B7A" stroke-width="1.3462" stroke-miterlimit="10" stroke-linecap="round" stroke-linejoin="round"/>
<path d="M199.66 137.983L201.09 147.429" stroke="#602B7A" stroke-width="1.3462" stroke-miterlimit="10" stroke-linecap="round" stroke-linejoin="round"/>
<path d="M194.75 140.966L198.106 148.299" stroke="#602B7A" stroke-width="1.3462" stroke-miterlimit="10" stroke-linecap="round" stroke-linejoin="round"/>
<path d="M205.004 139.412L203.948 147.429" stroke="#602B7A" stroke-width="1.3462" stroke-miterlimit="10" stroke-linecap="round" stroke-linejoin="round"/>
</svg>
