<svg width="242" height="145" viewBox="0 0 242 145" fill="none" xmlns="http://www.w3.org/2000/svg">
<path d="M93.9329 90.4561L35.373 85.7441" stroke="#F34A8E" stroke-width="1.40864" stroke-dasharray="5.63 5.63"/>
<path d="M98.644 70.2637L8.78516 58.7178" stroke="#F34A8E" stroke-width="1.40864" stroke-dasharray="5.63 5.63"/>
<path d="M98.9031 50.9667L53.5449 34.877" stroke="#F34A8E" stroke-width="1.40864" stroke-dasharray="5.63 5.63"/>
<path d="M107.868 4.54774L194.346 14.5277C195.797 14.6999 196.811 16.0049 196.679 17.4657L184.644 121.489C184.471 122.94 183.166 123.953 181.706 123.821L95.2279 113.842C93.7767 113.669 92.7634 112.364 92.8953 110.904L104.93 6.88044C105.103 5.42914 106.417 4.37554 107.868 4.54774Z" fill="white"/>
<path fill-rule="evenodd" clip-rule="evenodd" d="M188.545 19.5931L112.357 10.8071C111.45 10.6781 110.654 11.3425 110.525 12.2498L108.255 31.8288L125.126 21.5381C127.422 20.1195 130.821 20.7091 132.617 22.668L146.89 38.4006C148.279 39.9221 149.73 40.0943 151.519 39.1955L163.955 32.9251C165.685 32.0975 168.025 32.4796 169.38 33.7801L186.642 50.2901L189.988 21.4258C190.077 20.5089 189.462 19.6818 188.545 19.5931ZM156.385 30.3273C159.016 30.9487 161.653 29.3195 162.274 26.6883C162.896 24.057 161.266 21.4202 158.635 20.7988C156.004 20.1774 153.367 21.8067 152.746 24.4379C152.124 27.0691 153.754 29.7059 156.385 30.3273Z" fill="#54C320"/>
<path d="M105.885 52.6331L107.996 34.3308L125.925 23.39C127.722 22.2798 130.071 22.6214 131.49 24.1928L146.171 40.3629C147.529 41.8345 149.648 42.2496 151.437 41.3507L163.683 35.1633C165.373 34.3262 167.389 34.6319 168.744 35.9324L186.373 52.7986L185.263 62.5538C185.134 63.4611 184.347 64.0852 183.43 63.9965L107.242 55.2105C107.212 55.2063 107.183 55.2014 107.154 55.1958C106.263 55.0839 105.671 54.2694 105.758 53.3683L105.85 52.5821C105.861 52.5993 105.873 52.6163 105.885 52.6331Z" fill="#54C320"/>
<path d="M110.613 3.57529L196.725 16.3675C198.167 16.5802 199.171 17.9255 198.958 19.3672L183.576 122.941C183.364 124.383 182.018 125.387 180.577 125.174L94.4643 112.382C93.0226 112.169 92.0189 110.824 92.2315 109.382L107.614 5.80819C107.826 4.36639 109.172 3.36269 110.613 3.57529Z" stroke="#602B7A" stroke-width="0.829714" stroke-miterlimit="10"/>
<path d="M106.537 61.9927L182.725 70.7788C183.642 70.8674 184.256 71.6946 184.168 72.6114L183.644 77.1768C183.555 78.0938 182.728 78.7078 181.811 78.6198L105.623 69.8334C104.706 69.7447 104.092 68.9176 104.18 68.0007L104.704 63.4355C104.833 62.5282 105.62 61.9041 106.537 61.9927Z" fill="#9D61FF"/>
<path d="M104.225 76.0991L180.414 84.8851C181.33 84.9741 181.945 85.8011 181.856 86.7181L181.332 91.2831C181.244 92.2001 180.416 92.8151 179.5 92.7261L103.311 83.9401C102.395 83.8511 101.78 83.0241 101.869 82.1071L102.393 77.5421C102.522 76.6351 103.309 76.0111 104.225 76.0991Z" fill="#9D61FF"/>
<path d="M101.915 90.2047L178.103 98.9907C179.02 99.0797 179.634 99.9067 179.546 100.824L179.022 105.389C178.933 106.306 178.106 106.92 177.189 106.832L101.001 98.0447C100.084 97.9567 99.4696 97.1297 99.5583 96.2127L100.082 91.6477C100.211 90.7397 100.998 90.1157 101.915 90.2047Z" fill="#9D61FF"/>
<path d="M112.361 82.332L112.299 82.084C110.808 71.5188 118.141 61.6996 128.706 60.2081L217.514 47.468C228.079 45.9765 237.898 53.3098 239.389 63.8747L239.451 64.1233C240.943 74.6883 233.61 84.507 223.045 85.999L134.237 98.739C123.672 100.231 113.853 92.897 112.361 82.332Z" fill="#602B7A" stroke="#602B7A" stroke-width="0.829714" stroke-miterlimit="10" stroke-linecap="round" stroke-linejoin="round"/>
<path d="M114.474 84.198C112.982 73.6328 120.316 63.8136 130.881 62.3221L218.756 49.7063C229.321 48.2147 239.14 55.5481 240.632 66.113C242.123 76.678 234.79 86.497 224.225 87.989L136.412 100.605C125.847 102.158 116.028 94.825 114.474 84.198Z" fill="white" stroke="#602B7A" stroke-width="1.3462" stroke-miterlimit="10" stroke-linecap="round" stroke-linejoin="round"/>
<path d="M144.242 79.8107V79.8137C144.557 81.7657 145.255 83.2507 146.491 84.1607C147.72 85.0657 149.263 85.3817 151.041 85.1277L151.047 85.1267C152.88 84.8107 154.236 84.1097 155.143 82.8787C156.05 81.6477 156.363 80.0397 156.047 78.0777L155.062 71.292C154.974 70.6813 154.41 70.2556 153.799 70.3372C153.176 70.4202 152.741 70.9967 152.833 71.6183L153.813 78.2577V78.2617C154.057 79.7257 153.868 80.7887 153.347 81.5417C152.824 82.2977 152.005 82.7747 150.801 82.9547C149.562 83.1367 148.612 82.9207 147.919 82.3367C147.223 81.7487 146.753 80.7587 146.539 79.3217L145.565 72.7194C145.47 72.0773 144.869 71.6368 144.228 71.7401C143.6 71.8413 143.17 72.4274 143.261 73.0565L144.242 79.8107Z" fill="#602B7A" stroke="#602B7A" stroke-width="0.374516" stroke-linecap="round" stroke-linejoin="round"/>
<path d="M169.373 73.9547V73.9546L169.368 73.9485C168.793 73.2455 168.083 72.6619 167.173 72.337C166.271 72.0149 165.308 71.9514 164.412 72.0794L164.407 72.0801C163.641 72.2078 162.931 72.4644 162.345 72.8548C162.116 73.0075 161.897 73.1808 161.694 73.3749C161.612 73.4535 161.465 73.4869 161.319 73.4522C161.173 73.4174 161.092 73.3325 161.078 73.2433C161.029 72.9283 160.737 72.7105 160.421 72.7541L159.918 72.8236C159.312 72.9071 158.891 73.4682 158.98 74.0729L160.763 86.2297C160.852 86.8387 161.414 87.2627 162.024 87.1817C162.648 87.0977 163.082 86.5187 162.987 85.8967L162.63 83.5637C162.598 83.3487 162.733 83.1157 162.997 82.9407C163.257 82.7677 163.583 82.6957 163.827 82.7617C164.473 82.9547 165.184 83.0187 165.957 82.8907C166.982 82.7617 167.884 82.3767 168.596 81.7937C169.299 81.2187 169.883 80.5087 170.208 79.5987C170.531 78.6947 170.592 77.7317 170.466 76.6557V76.6537C170.337 75.6257 169.951 74.7253 169.373 73.9547ZM166.164 74.3625C166.17 74.3649 166.175 74.3671 166.181 74.369C166.701 74.5423 167.168 74.8906 167.52 75.3607C167.872 75.8297 168.111 76.4227 168.231 77.0837C168.349 77.7317 168.291 78.3167 168.056 78.9037C167.815 79.4467 167.521 79.9107 167.06 80.2567C166.586 80.6117 166.052 80.8497 165.458 80.9677C164.872 81.0857 164.29 81.0267 163.768 80.7947C163.235 80.5567 162.764 80.2027 162.413 79.7347C162.061 79.2647 161.822 78.6717 161.701 78.0107C161.583 77.3577 161.644 76.7137 161.875 76.1937C162.117 75.6497 162.411 75.1847 162.872 74.8383C163.338 74.489 163.867 74.3101 164.475 74.1885C165.06 74.0714 165.642 74.1305 166.164 74.3625Z" fill="#602B7A" stroke="#602B7A" stroke-width="0.374516" stroke-linecap="round" stroke-linejoin="round"/>
<path d="M175.484 80.1809L173.646 67.748C173.556 67.1381 172.993 66.7137 172.382 66.7952C171.758 66.8783 171.323 67.4556 171.415 68.0778L173.253 80.5109C173.343 81.1209 173.907 81.5449 174.518 81.4639C175.141 81.3809 175.576 80.8029 175.484 80.1809Z" fill="#602B7A" stroke="#602B7A" stroke-width="0.374516" stroke-linecap="round" stroke-linejoin="round"/>
<path d="M189.244 68.6582H176.244V80.6582H189.244V68.6582Z" fill="white"/>
<path d="M180.534 79.848C179.664 79.537 178.918 78.978 178.359 78.294C177.799 77.549 177.427 76.679 177.302 75.684C177.178 74.69 177.24 73.7578 177.613 72.8877C177.924 72.0176 178.483 71.334 179.229 70.7747C179.975 70.2154 180.845 69.8425 181.901 69.7182C182.896 69.5939 183.89 69.6561 184.76 69.9668C185.63 70.2775 186.376 70.8369 186.935 71.5205C187.494 72.2662 187.867 73.1363 187.992 74.1306C188.116 75.125 188.054 76.057 187.681 76.927C187.308 77.797 186.811 78.481 186.065 79.04C185.319 79.6 184.449 79.972 183.455 80.097C182.336 80.283 181.404 80.159 180.534 79.848ZM184.822 77.797C185.319 77.424 185.63 76.927 185.879 76.368C186.065 75.809 186.127 75.125 186.065 74.4414C185.941 73.7578 185.692 73.1363 185.319 72.6391C184.946 72.1419 184.449 71.7691 183.89 71.5826C183.331 71.334 182.709 71.2719 182.088 71.3962C181.466 71.5205 180.845 71.7069 180.41 72.0798C179.912 72.4527 179.602 72.9498 179.353 73.5092C179.105 74.0685 179.042 74.7521 179.167 75.436C179.291 76.119 179.54 76.741 179.912 77.238C180.285 77.735 180.783 78.108 181.342 78.357C181.901 78.605 182.523 78.667 183.144 78.543C183.766 78.419 184.387 78.17 184.822 77.797Z" fill="black"/>
<path d="M180.534 79.848C179.664 79.537 178.918 78.978 178.359 78.294C177.799 77.549 177.427 76.679 177.302 75.684C177.178 74.69 177.24 73.7578 177.613 72.8877C177.924 72.0176 178.483 71.334 179.229 70.7747C179.975 70.2154 180.845 69.8425 181.901 69.7182C182.896 69.5939 183.89 69.6561 184.76 69.9668C185.63 70.2775 186.376 70.8369 186.935 71.5205C187.494 72.2662 187.867 73.1363 187.992 74.1306C188.116 75.125 188.054 76.057 187.681 76.927C187.308 77.797 186.811 78.481 186.065 79.04C185.319 79.6 184.449 79.972 183.455 80.097C182.336 80.283 181.404 80.159 180.534 79.848ZM184.822 77.797C185.319 77.424 185.63 76.927 185.879 76.368C186.065 75.809 186.127 75.125 186.065 74.4414C185.941 73.7578 185.692 73.1363 185.319 72.6391C184.946 72.1419 184.449 71.7691 183.89 71.5826C183.331 71.334 182.709 71.2719 182.088 71.3962C181.466 71.5205 180.845 71.7069 180.41 72.0798C179.912 72.4527 179.602 72.9498 179.353 73.5092C179.105 74.0685 179.042 74.7521 179.167 75.436C179.291 76.119 179.54 76.741 179.912 77.238C180.285 77.735 180.783 78.108 181.342 78.357C181.901 78.605 182.523 78.667 183.144 78.543C183.766 78.419 184.387 78.17 184.822 77.797Z" fill="#602B7A"/>
<path d="M178.359 78.2945L178.059 78.5195C178.062 78.5235 178.066 78.5285 178.069 78.5325L178.359 78.2945ZM177.613 72.8882L177.957 73.0357C177.96 73.0286 177.963 73.0214 177.966 73.0142L177.613 72.8882ZM181.901 69.7187L181.945 70.0907L181.948 70.0903L181.901 69.7187ZM186.935 71.521L187.235 71.2963C187.232 71.292 187.228 71.2879 187.225 71.2838L186.935 71.521ZM183.455 80.0975L183.408 79.7255C183.403 79.7265 183.398 79.7265 183.393 79.7275L183.455 80.0975ZM184.822 77.7975L184.597 77.4985C184.591 77.5035 184.585 77.5085 184.578 77.5135L184.822 77.7975ZM185.879 76.3685L186.221 76.5205C186.226 76.5095 186.23 76.4985 186.234 76.4865L185.879 76.3685ZM186.065 74.4419L186.438 74.408C186.437 74.3969 186.436 74.3858 186.434 74.3749L186.065 74.4419ZM183.89 71.5831L183.738 71.9254C183.749 71.9303 183.76 71.9346 183.771 71.9384L183.89 71.5831ZM180.41 72.0803L180.634 72.3799C180.641 72.375 180.647 72.3699 180.653 72.3646L180.41 72.0803ZM180.66 79.4955C179.86 79.2105 179.169 78.6935 178.649 78.0575L178.069 78.5325C178.667 79.2635 179.468 79.8655 180.408 80.2015L180.66 79.4955ZM178.658 78.0705C178.136 77.3745 177.79 76.5655 177.674 75.6385L176.931 75.7315C177.063 76.7935 177.463 77.7245 178.059 78.5195L178.658 78.0705ZM177.674 75.6385C177.555 74.6875 177.618 73.8268 177.957 73.0357L177.269 72.7407C176.862 73.6897 176.801 74.6934 176.931 75.7315L177.674 75.6385ZM177.966 73.0142C178.247 72.2255 178.755 71.5985 179.454 71.0748L179.004 70.4756C178.211 71.0705 177.6 71.8108 177.26 72.7622L177.966 73.0142ZM179.454 71.0748C180.148 70.5542 180.956 70.2071 181.945 70.0907L181.857 69.3468C180.734 69.479 179.801 69.8776 179.004 70.4756L179.454 71.0748ZM181.948 70.0903C182.899 69.9714 183.832 70.0337 184.634 70.32L184.886 69.6146C183.948 69.2795 182.892 69.2175 181.855 69.3471L181.948 70.0903ZM184.634 70.32C185.434 70.6058 186.125 71.1222 186.645 71.7581L187.225 71.2838C186.627 70.5525 185.826 69.9503 184.886 69.6146L184.634 70.32ZM186.635 71.7457C187.157 72.4417 187.504 73.2508 187.62 74.1776L188.363 74.0847C188.23 73.0227 187.831 72.0918 187.235 71.2963L186.635 71.7457ZM187.62 74.1776C187.739 75.1285 187.676 75.9895 187.337 76.7805L188.025 77.0755C188.432 76.1265 188.493 75.1225 188.363 74.0847L187.62 74.1776ZM187.337 76.7805C186.986 77.5995 186.526 78.2265 185.84 78.7415L186.29 79.3405C187.096 78.7355 187.63 77.9965 188.025 77.0755L187.337 76.7805ZM185.84 78.7415C185.144 79.2635 184.335 79.6095 183.408 79.7255L183.501 80.4685C184.563 80.3365 185.494 79.9365 186.29 79.3405L185.84 78.7415ZM183.393 79.7275C182.341 79.9035 181.474 79.7865 180.66 79.4955L180.408 80.2015C181.334 80.5325 182.331 80.6645 183.516 80.4665L183.393 79.7275ZM185.047 78.0975C185.616 77.6705 185.959 77.1095 186.221 76.5205L185.536 76.2165C185.301 76.7465 185.023 77.1795 184.597 77.4985L185.047 78.0975ZM186.234 76.4865C186.44 75.8695 186.504 75.1325 186.438 74.408L185.692 74.4758C185.751 75.1185 185.69 75.7495 185.523 76.2495L186.234 76.4865ZM186.434 74.3749C186.301 73.6459 186.033 72.9673 185.619 72.4149L185.02 72.8643C185.351 73.3062 185.581 73.8706 185.697 74.5089L186.434 74.3749ZM185.619 72.4149C185.205 71.8627 184.647 71.4406 184.008 71.2278L183.771 71.9384C184.252 72.0985 184.688 72.4222 185.02 72.8643L185.619 72.4149ZM184.042 71.2409C183.408 70.9591 182.707 70.8908 182.014 71.0294L182.161 71.7639C182.711 71.654 183.253 71.71 183.738 71.9254L184.042 71.2409ZM182.014 71.0294C181.384 71.1555 180.679 71.356 180.166 71.7959L180.653 72.3646C181.01 72.0588 181.548 71.8865 182.161 71.7639L182.014 71.0294ZM180.185 71.7807C179.616 72.2073 179.273 72.7688 179.011 73.3576L179.695 73.6618C179.931 73.1319 180.209 72.6991 180.634 72.3799L180.185 71.7807ZM179.011 73.3576C178.727 73.9967 178.663 74.7585 178.798 75.5035L179.535 75.3695C179.422 74.7467 179.482 74.1412 179.695 73.6618L179.011 73.3576ZM178.798 75.5035C178.931 76.2325 179.199 76.9105 179.613 77.4635L180.212 77.0135C179.881 76.5715 179.651 76.0075 179.535 75.3695L178.798 75.5035ZM179.613 77.4635C180.028 78.0175 180.579 78.4275 181.19 78.6995L181.494 78.0145C180.986 77.7895 180.542 77.4545 180.212 77.0135L179.613 77.4635ZM181.19 78.6995C181.824 78.9815 182.524 79.0495 183.218 78.9105L183.071 78.1765C182.521 78.2865 181.979 78.2305 181.494 78.0145L181.19 78.6995ZM183.218 78.9105C183.877 78.7785 184.566 78.5105 185.066 78.0825L184.578 77.5135C184.208 77.8305 183.654 78.0595 183.071 78.1765L183.218 78.9105Z" fill="#602B7A"/>
<path d="M198.555 71.4295H198.556L198.555 71.424C198.302 70.0339 197.789 68.9789 196.856 68.3791C195.939 67.7896 194.775 67.6031 193.328 67.6659C193.321 67.6662 193.315 67.6669 193.308 67.6679C192.483 67.7949 191.658 68.0485 190.96 68.3661C190.49 68.5796 190.047 68.8506 189.67 69.1615C189.271 69.49 189.272 70.0558 189.562 70.4367C189.942 70.9348 190.652 70.9624 191.135 70.6311C191.321 70.5034 191.524 70.379 191.749 70.254C192.289 69.9543 192.824 69.7767 193.417 69.7173C193.424 69.7166 193.431 69.7155 193.438 69.7141C194.274 69.535 194.959 69.6611 195.399 69.9915V69.9917L195.408 69.9975C195.912 70.3339 196.202 70.8397 196.321 71.6103L196.506 71.5818L196.321 71.6126C196.338 71.7142 196.268 71.81 196.167 71.8252L193.62 72.2045L193.615 72.2052C192.165 72.4575 191.191 72.9035 190.532 73.5624C189.86 74.2345 189.665 75.1058 189.795 76.0198C189.928 77.0118 190.461 77.7448 191.253 78.2068C192.041 78.6668 193.081 78.8578 194.236 78.6648C195.057 78.5388 195.708 78.3458 196.299 77.9528C196.523 77.8028 196.72 77.6428 196.892 77.4728C196.949 77.4168 197.055 77.3898 197.165 77.4158C197.274 77.4418 197.325 77.5038 197.333 77.5598C197.371 77.8418 197.631 78.0378 197.913 77.9978L198.458 77.9198C199.041 77.8368 199.444 77.2938 199.356 76.7118L198.555 71.4295ZM191.969 75.7228L191.967 75.7128C191.884 75.2428 192.007 74.8904 192.311 74.6192C192.629 74.3361 193.161 74.1263 193.925 74.0041V74.004L195.604 73.7485C196.147 73.6659 196.652 74.0457 196.723 74.5903C196.741 74.7291 196.731 74.8655 196.687 74.989C196.516 75.4788 196.289 75.8608 195.896 76.1548C195.423 76.5108 194.89 76.7478 194.297 76.8668C193.581 76.9858 193.127 76.9228 192.674 76.6968C192.233 76.4758 192.023 76.1578 191.969 75.7228Z" fill="#602B7A" stroke="#602B7A" stroke-width="0.374516" stroke-linecap="round" stroke-linejoin="round"/>
<path d="M209.04 76.0263L209.051 76.0183C209.279 75.8403 209.499 75.6513 209.702 75.4463C209.78 75.3673 209.923 75.3333 210.068 75.3673C210.212 75.4013 210.294 75.4853 210.307 75.5753C210.356 75.8903 210.648 76.1083 210.964 76.0643L211.467 75.9953C212.073 75.9113 212.494 75.3503 212.405 74.7451L210.564 62.291C210.473 61.6778 209.895 61.2596 209.284 61.3649C208.696 61.4663 208.295 62.0174 208.379 62.6085L208.775 65.3747C208.806 65.5937 208.667 65.8288 208.4 66.0036C208.136 66.1769 207.805 66.2488 207.556 66.181C206.852 65.9889 206.142 65.9235 205.367 66.0521C204.337 66.1815 203.5 66.5689 202.733 67.1441V67.144L202.727 67.149C202.025 67.7237 201.441 68.4331 201.116 69.3418C200.792 70.1868 200.731 71.1512 200.857 72.2254L200.858 72.2267C200.986 73.2549 201.372 74.1554 201.95 74.926V74.9261L201.955 74.9323C202.53 75.6343 203.239 76.2183 204.148 76.5433C204.992 76.8673 205.957 76.9283 206.971 76.8013V76.8023L206.978 76.8003C207.745 76.6733 208.454 76.4163 209.04 76.0263ZM204.263 68.6866V68.687L204.273 68.679C204.669 68.3397 205.186 68.161 205.855 68.0388C206.45 67.9803 207.042 68.0407 207.572 68.2173C208.092 68.3906 208.558 68.7389 208.911 69.2085C209.261 69.6761 209.5 70.2661 209.62 70.9237C209.679 71.5807 209.619 72.2309 209.445 72.7573C209.203 73.2983 208.91 73.7603 208.451 74.1045C207.976 74.4603 207.443 74.6976 206.849 74.8165C206.263 74.9336 205.681 74.8745 205.159 74.6426C204.626 74.4054 204.155 74.0515 203.803 73.5827C203.453 73.1151 203.214 72.5251 203.094 71.8675C203.033 71.1908 203.039 70.5524 203.265 70.0423C203.507 69.4977 203.802 69.0327 204.263 68.6866Z" fill="#602B7A" stroke="#602B7A" stroke-width="0.374516" stroke-linecap="round" stroke-linejoin="round"/>
<path d="M208.501 99.7347C206.699 99.8587 205.332 101.288 205.207 103.028C205.207 103.091 205.145 103.091 205.145 103.028L204.897 101.288C204.648 99.4857 203.094 98.1187 201.292 98.1807C199.49 98.3047 198.123 99.7347 197.998 101.475C197.998 101.537 197.936 101.537 197.936 101.475L197.688 99.7347C197.439 97.9317 195.947 97.2487 194.207 97.5597C190.23 98.3047 191.286 103.401 191.597 105.39L188.552 85.3167C188.552 85.3787 188.49 85.3787 188.49 85.3167C187.931 83.7007 187.682 81.5257 185.942 81.9607C184.202 82.3957 181.592 85.3787 181.84 87.1807L184.575 105.328C184.575 105.39 184.077 101.848 181.467 102.593C179.727 103.091 177.676 106.011 177.925 107.814L179.168 115.893C180.162 122.418 182.897 127.949 185.942 130.746C190.168 134.537 196.631 135.78 201.727 135.469C209.931 134.972 215.772 127.576 214.592 119.622L212.354 104.769C212.354 104.644 212.354 104.52 212.292 104.396L212.106 102.966C211.857 101.04 210.303 99.6097 208.501 99.7347Z" fill="#602B7A" stroke="#602B7A" stroke-width="1.3462" stroke-miterlimit="10" stroke-linecap="round" stroke-linejoin="round"/>
<path d="M205.021 102.469L205.145 103.277" stroke="#602B7A" stroke-width="1.3462" stroke-miterlimit="10" stroke-linecap="round" stroke-linejoin="round"/>
<path d="M197.812 100.604L198.371 104.27" stroke="#602B7A" stroke-width="1.3462" stroke-miterlimit="10" stroke-linecap="round" stroke-linejoin="round"/>
<path d="M189.671 139.011C189.36 137.147 191.1 134.847 192.965 134.537L209.993 132.424C211.857 132.113 215.648 134.102 215.648 134.102C215.959 135.966 212.914 138.949 211.049 139.198L193.586 141.808C191.722 142.243 189.92 140.938 189.671 139.011Z" fill="#602B7A" stroke="#602B7A" stroke-width="1.3462" stroke-miterlimit="10" stroke-linecap="round" stroke-linejoin="round"/>
<path d="M210.179 98.1797C208.377 98.3037 207.01 99.7337 206.885 101.474C206.885 101.536 206.823 101.536 206.823 101.474L206.575 99.7337C206.326 97.9307 204.772 96.5637 202.97 96.6257C201.168 96.7507 199.801 98.1797 199.676 99.9197C199.676 99.9817 199.614 99.9817 199.614 99.9197L199.366 98.1797C199.117 96.3777 197.625 95.6937 195.885 96.0047C191.908 96.7507 192.964 101.847 193.275 103.835L190.23 83.7617C190.23 83.8237 190.168 83.8237 190.168 83.7617C189.608 82.1457 187.868 81.1517 186.128 81.5867C184.388 82.0217 183.27 83.8237 183.58 85.6257L186.315 103.773C186.315 103.835 184.823 101.474 182.213 102.219C180.473 102.717 179.416 104.457 179.665 106.259L180.908 114.338C181.902 120.864 184.637 126.395 187.682 129.191C191.908 132.982 198.371 134.225 203.467 133.914C211.671 133.417 217.512 126.022 216.269 118.067L214.032 103.214C214.032 103.09 214.032 102.965 213.97 102.841L213.784 101.412C213.535 99.4847 211.981 98.0557 210.179 98.1797Z" fill="white" stroke="#602B7A" stroke-width="1.3462" stroke-miterlimit="10" stroke-linecap="round" stroke-linejoin="round"/>
<path d="M206.698 100.853L206.823 101.723" stroke="#602B7A" stroke-width="1.3462" stroke-miterlimit="10" stroke-linecap="round" stroke-linejoin="round"/>
<path d="M199.489 99.0498L200.049 102.716" stroke="#602B7A" stroke-width="1.3462" stroke-miterlimit="10" stroke-linecap="round" stroke-linejoin="round"/>
<path d="M191.348 137.456C191.038 135.592 192.343 133.789 194.269 133.541L211.733 130.931C213.597 130.62 215.399 131.925 215.648 133.851C215.959 135.716 214.654 137.518 212.727 137.767L195.264 140.377C193.399 140.625 191.659 139.382 191.348 137.456Z" fill="white" stroke="#602B7A" stroke-width="1.3462" stroke-miterlimit="10" stroke-linecap="round" stroke-linejoin="round"/>
<path d="M186.066 103.027L187.931 115.208" stroke="#602B7A" stroke-width="1.3462" stroke-miterlimit="10" stroke-linecap="round" stroke-linejoin="round"/>
<path d="M200.484 113.096L201.914 122.542" stroke="#602B7A" stroke-width="1.3462" stroke-miterlimit="10" stroke-linecap="round" stroke-linejoin="round"/>
<path d="M195.574 116.078L198.93 123.411" stroke="#602B7A" stroke-width="1.3462" stroke-miterlimit="10" stroke-linecap="round" stroke-linejoin="round"/>
<path d="M205.828 114.525L204.771 122.542" stroke="#602B7A" stroke-width="1.3462" stroke-miterlimit="10" stroke-linecap="round" stroke-linejoin="round"/>
</svg>
