<svg width="174" height="127" viewBox="0 0 174 127" fill="none" xmlns="http://www.w3.org/2000/svg">
<path d="M65.2539 9.49536L121.61 17.0095V92.1517L65.2539 84.6375V9.49536Z" fill="#602B7A"/>
<path d="M65.2539 9.49536C65.2539 9.49536 61.4645 9.59208 57.7235 12.1698C53.9826 14.7476 53.9826 17.0097 53.9826 17.0097V92.1518L65.2539 84.6376V9.49536Z" fill="#602B7A"/>
<path d="M58.2098 18.4185C58.2098 18.4185 59.3898 15.6219 61.4973 14.1918C63.6048 12.7617 67.1329 12.3132 67.1329 12.3132L118.793 19.4008V90.2734L67.7247 83.5132L54.9219 88.3949L58.2098 18.4185Z" fill="white"/>
<path d="M118.793 19.4568L108.226 26.5304V97.2666L118.793 90.193V19.4568Z" fill="#FFBE5C"/>
<path d="M53.9824 17.0095L110.339 24.5237V99.6658L53.9824 92.1516V17.0095Z" fill="#602B7A"/>
<path d="M58.4863 19.2251L113.629 33.0729L105.12 107.732L49.977 93.8838L58.4863 19.2251Z" fill="#FF4C8D"/>
<path d="M58.4863 19.2251C58.4863 19.2251 54.7103 18.8921 50.7015 21.0296C46.6927 23.1672 46.4366 25.4147 46.4366 25.4147L37.9272 100.073L49.977 93.884L58.4863 19.2251Z" fill="#FF4C8D"/>
<path d="M50.4768 27.2931C50.4768 27.2931 51.9659 24.648 54.2217 23.4658C56.4776 22.2836 60.0339 22.2376 60.0339 22.2376L110.559 35.1296L102.533 105.546L52.5589 93.0466L39.2856 96.447L50.4768 27.2931Z" fill="white"/>
<path d="M110.552 35.1855L99.2519 41.017L91.2415 111.298L102.541 105.467L110.552 35.1855Z" fill="#FFBE5C"/>
<path d="M46.4365 25.4148L101.58 39.2627L93.0703 113.921L37.9272 100.074L46.4365 25.4148Z" fill="#FF4C8D"/>
<path d="M157.303 17.2092C157.303 17.2092 107.991 70.5473 62.4358 66.7907C16.8809 63.0342 -11.0215 37.8731 6.07922 17.2092C23.1799 -3.45473 54.4524 17.2091 54.4524 17.2091" stroke="#602B7A" stroke-width="2" stroke-linecap="round" stroke-linejoin="round" stroke-dasharray="8 8"/>
<path d="M167.501 3.81825L156.949 8.03918C156.493 8.22192 156.405 8.83026 156.792 9.13431L165.723 16.1624C166.109 16.4664 166.68 16.2383 166.75 15.7516L168.371 4.50255C168.441 4.01623 167.958 3.63598 167.501 3.81825Z" fill="#602B7A"/>
<path d="M32.3789 33.917L88.7355 41.4312V116.573L32.3789 109.059V33.917Z" fill="#33DFC0"/>
<path d="M32.3789 33.917C32.3789 33.917 28.5895 34.0137 24.8485 36.5915C21.1076 39.1692 21.1076 41.4313 21.1076 41.4313V116.573L32.3789 109.059V33.917Z" fill="#33DFC0"/>
<path d="M25.3348 42.8402C25.3348 42.8402 26.5148 40.0435 28.6223 38.6134C30.7298 37.1833 34.2579 36.7349 34.2579 36.7349L85.9177 43.8224V114.695L34.8497 107.935L22.0469 112.817L25.3348 42.8402Z" fill="white"/>
<path d="M85.918 43.8784L75.3512 50.952V121.688L85.918 114.615V43.8784Z" fill="#FFBE5C"/>
<path d="M21.1074 41.4312L77.464 48.9454V124.087L21.1074 116.573V41.4312Z" fill="#33DFC0"/>
<path d="M51.5 89.4998C51.5 89.4998 69.9505 117.042 107.522 124.087C150.806 132.202 163.878 102.014 142.744 79.0014C136.128 71.7972 120.671 59.2766 120.671 59.2766" stroke="#602B7A" stroke-width="2" stroke-linecap="round" stroke-linejoin="round" stroke-dasharray="8 8"/>
</svg>
