<svg width="188" height="336" viewBox="0 0 188 336" fill="none" xmlns="http://www.w3.org/2000/svg">
<path d="M15.8838 213.718C15.8838 213.718 23.3809 224.044 20.9852 236.104C19.0178 246.008 9.94635 248.353 12.6355 261.153C15.8838 276.616 39.4276 273.481 39.4276 273.481" stroke="#602B7A" stroke-width="2.62703" stroke-linecap="round" stroke-linejoin="round"/>
<rect x="-0.487193" y="0.790759" width="12.9118" height="20.9522" rx="6.45592" transform="matrix(-0.972928 0.231109 0.231112 0.972927 17.4791 195.092)" fill="#602B7A" stroke="#602B7A" stroke-width="1.31351"/>
<rect x="-0.487193" y="0.790759" width="12.9118" height="20.9522" rx="6.45592" transform="matrix(-0.972928 0.231109 0.231112 0.972927 16.7345 194.633)" fill="white" stroke="#602B7A" stroke-width="1.31351"/>
<rect width="1.85548" height="4.32945" rx="0.92774" transform="matrix(-0.972928 0.231109 0.231112 0.972927 13.5161 208.249)" fill="#602B7A"/>
<path d="M21.136 210.889C20.1669 210.377 17.9279 209.426 16.7244 209.712C15.5209 209.998 10.406 211.213 7.99901 211.784" stroke="#602B7A" stroke-width="0.656757" stroke-linecap="round" stroke-linejoin="round"/>
<path d="M16.8639 216.989C15.9713 216.354 14.1146 214.782 13.8287 213.578C13.5428 212.375 13.6143 212.676 13.0425 210.269" stroke="#602B7A" stroke-width="0.656757" stroke-linecap="round" stroke-linejoin="round"/>
<path d="M138.499 231.156C128.603 250.02 152.724 263.627 136.644 280.945C125.202 293.267 108.193 280.945 108.193 280.945" stroke="#602B7A" stroke-width="2.62703" stroke-linecap="round" stroke-linejoin="round"/>
<path d="M182.704 222.916L116.792 193.942C115.758 193.487 114.522 194.018 114.029 195.122L102.725 220.459C102.231 221.566 102.67 222.829 103.701 223.282L169.616 252.257C170.651 252.712 171.886 252.181 172.379 251.077L183.683 225.74C184.172 224.635 183.738 223.37 182.704 222.916Z" fill="#602B7A" stroke="#602B7A" stroke-width="1.31351" stroke-miterlimit="10" stroke-linecap="round" stroke-linejoin="round"/>
<path d="M182.086 221.678L116.175 192.705C115.14 192.25 113.905 192.781 113.412 193.884L102.108 219.221C101.614 220.328 102.053 221.591 103.084 222.044L168.999 251.02C170.033 251.474 171.269 250.944 171.762 249.84L183.066 224.503C183.555 223.398 183.121 222.133 182.086 221.678Z" fill="white" stroke="#602B7A" stroke-width="1.31351" stroke-miterlimit="10" stroke-linecap="round" stroke-linejoin="round"/>
<path d="M112.901 214.005L112.046 213.64C111.016 213.201 109.777 213.735 109.278 214.831C108.78 215.928 109.211 217.173 110.241 217.612L111.096 217.977C112.126 218.416 113.366 217.882 113.864 216.786C114.362 215.689 113.931 214.444 112.901 214.005Z" fill="white" stroke="#602B7A" stroke-width="1.31351" stroke-miterlimit="10" stroke-linecap="round" stroke-linejoin="round"/>
<path d="M116.071 207.161L115.216 206.796C114.186 206.357 112.946 206.891 112.448 207.987C111.95 209.083 112.381 210.329 113.411 210.768L114.266 211.132C115.296 211.571 116.536 211.038 117.034 209.942C117.532 208.845 117.101 207.6 116.071 207.161Z" fill="white" stroke="#602B7A" stroke-width="1.31351" stroke-miterlimit="10" stroke-linecap="round" stroke-linejoin="round"/>
<path d="M119.242 200.317L118.387 199.952C117.357 199.513 116.117 200.047 115.618 201.143C115.12 202.24 115.551 203.485 116.581 203.924L117.436 204.289C118.466 204.728 119.706 204.194 120.204 203.098C120.703 202.001 120.272 200.756 119.242 200.317Z" fill="white" stroke="#602B7A" stroke-width="1.31351" stroke-miterlimit="10" stroke-linecap="round" stroke-linejoin="round"/>
<path d="M120.855 217.692L120 217.327C118.97 216.889 117.73 217.422 117.232 218.518C116.733 219.615 117.165 220.861 118.195 221.3L119.05 221.664C120.08 222.103 121.319 221.57 121.818 220.473C122.313 219.375 121.885 218.131 120.855 217.692Z" fill="white" stroke="#602B7A" stroke-width="1.31351" stroke-miterlimit="10" stroke-linecap="round" stroke-linejoin="round"/>
<path d="M124.027 210.846L123.172 210.482C122.142 210.043 120.902 210.576 120.404 211.673C119.905 212.769 120.337 214.015 121.366 214.454L122.221 214.818C123.251 215.257 124.491 214.724 124.99 213.627C125.485 212.53 125.057 211.285 124.027 210.846Z" fill="white" stroke="#602B7A" stroke-width="1.31351" stroke-miterlimit="10" stroke-linecap="round" stroke-linejoin="round"/>
<path d="M151.05 214.73L126.366 203.687C125.326 203.222 124.08 203.799 123.582 204.97L123.58 204.974C123.081 206.149 123.521 207.476 124.558 207.94L149.242 218.983C150.283 219.448 151.529 218.871 152.027 217.7L152.028 217.696C152.526 216.525 152.091 215.196 151.05 214.73Z" fill="white" stroke="#602B7A" stroke-width="1.31351" stroke-miterlimit="10" stroke-linecap="round" stroke-linejoin="round"/>
<path d="M128.809 221.376L127.954 221.012C126.924 220.573 125.684 221.106 125.185 222.203C124.687 223.299 125.118 224.545 126.148 224.984L127.003 225.348C128.033 225.787 129.273 225.254 129.771 224.157C130.27 223.061 129.839 221.815 128.809 221.376Z" fill="white" stroke="#602B7A" stroke-width="1.31351" stroke-miterlimit="10" stroke-linecap="round" stroke-linejoin="round"/>
<path d="M131.98 214.531L131.125 214.167C130.095 213.728 128.855 214.261 128.357 215.357C127.858 216.454 128.29 217.7 129.32 218.139L130.175 218.503C131.204 218.942 132.444 218.409 132.943 217.312C133.441 216.216 133.01 214.97 131.98 214.531Z" fill="white" stroke="#602B7A" stroke-width="1.31351" stroke-miterlimit="10" stroke-linecap="round" stroke-linejoin="round"/>
<path d="M136.765 225.062L135.91 224.698C134.88 224.259 133.64 224.792 133.142 225.889C132.644 226.985 133.075 228.231 134.105 228.67L134.96 229.034C135.99 229.473 137.229 228.94 137.728 227.843C138.226 226.747 137.795 225.501 136.765 225.062Z" fill="white" stroke="#602B7A" stroke-width="1.31351" stroke-miterlimit="10" stroke-linecap="round" stroke-linejoin="round"/>
<path d="M139.936 218.217L139.081 217.852C138.051 217.413 136.811 217.947 136.313 219.043C135.814 220.14 136.246 221.385 137.276 221.824L138.131 222.189C139.161 222.628 140.401 222.094 140.899 220.998C141.397 219.901 140.966 218.656 139.936 218.217Z" fill="white" stroke="#602B7A" stroke-width="1.31351" stroke-miterlimit="10" stroke-linecap="round" stroke-linejoin="round"/>
<path d="M144.72 228.749L143.865 228.384C142.835 227.945 141.595 228.479 141.097 229.575C140.598 230.672 141.029 231.917 142.059 232.356L142.914 232.721C143.944 233.16 145.184 232.626 145.683 231.53C146.178 230.432 145.75 229.188 144.72 228.749Z" fill="white" stroke="#602B7A" stroke-width="1.31351" stroke-miterlimit="10" stroke-linecap="round" stroke-linejoin="round"/>
<path d="M147.891 221.903L147.036 221.539C146.006 221.1 144.766 221.633 144.268 222.729C143.77 223.826 144.201 225.071 145.231 225.51L146.086 225.875C147.116 226.314 148.356 225.78 148.854 224.684C149.349 223.586 148.921 222.342 147.891 221.903Z" fill="white" stroke="#602B7A" stroke-width="1.31351" stroke-miterlimit="10" stroke-linecap="round" stroke-linejoin="round"/>
<path d="M152.672 232.433L151.817 232.068C150.787 231.629 149.548 232.163 149.049 233.259C148.551 234.356 148.982 235.601 150.012 236.04L150.867 236.405C151.897 236.844 153.137 236.31 153.635 235.214C154.133 234.117 153.702 232.872 152.672 232.433Z" fill="white" stroke="#602B7A" stroke-width="1.31351" stroke-miterlimit="10" stroke-linecap="round" stroke-linejoin="round"/>
<path d="M155.844 225.587L154.989 225.223C153.959 224.784 152.719 225.317 152.221 226.413C151.722 227.51 152.153 228.756 153.183 229.195L154.038 229.559C155.068 229.998 156.308 229.464 156.807 228.368C157.305 227.272 156.874 226.026 155.844 225.587Z" fill="white" stroke="#602B7A" stroke-width="1.31351" stroke-miterlimit="10" stroke-linecap="round" stroke-linejoin="round"/>
<path d="M159.015 218.742L158.16 218.378C157.13 217.939 155.89 218.473 155.391 219.569C154.893 220.665 155.324 221.911 156.354 222.35L157.209 222.714C158.239 223.153 159.479 222.62 159.978 221.524C160.476 220.427 160.045 219.181 159.015 218.742Z" fill="white" stroke="#602B7A" stroke-width="1.31351" stroke-miterlimit="10" stroke-linecap="round" stroke-linejoin="round"/>
<path d="M168.565 239.619L159.797 235.783C158.76 235.329 157.512 235.885 157.012 237.024C156.512 238.164 156.948 239.456 157.985 239.91L166.753 243.746C167.79 244.2 169.037 243.644 169.537 242.504C170.034 241.364 169.602 240.072 168.565 239.619Z" fill="white" stroke="#602B7A" stroke-width="1.31351" stroke-miterlimit="10" stroke-linecap="round" stroke-linejoin="round"/>
<path d="M163.8 229.272L162.944 228.908C161.915 228.469 160.675 229.002 160.176 230.099C159.678 231.195 160.109 232.441 161.139 232.88L161.994 233.244C163.024 233.683 164.264 233.15 164.762 232.053C165.261 230.957 164.829 229.711 163.8 229.272Z" fill="white" stroke="#602B7A" stroke-width="1.31351" stroke-miterlimit="10" stroke-linecap="round" stroke-linejoin="round"/>
<path d="M166.97 222.428L166.115 222.064C165.085 221.625 163.845 222.158 163.347 223.255C162.849 224.351 163.28 225.597 164.31 226.036L165.165 226.4C166.195 226.839 167.435 226.306 167.933 225.209C168.431 224.113 168 222.867 166.97 222.428Z" fill="white" stroke="#602B7A" stroke-width="1.31351" stroke-miterlimit="10" stroke-linecap="round" stroke-linejoin="round"/>
<path d="M171.756 232.958L170.901 232.594C169.871 232.155 168.631 232.688 168.133 233.785C167.634 234.881 168.066 236.127 169.095 236.566L169.95 236.93C170.98 237.369 172.22 236.836 172.719 235.739C173.214 234.642 172.786 233.397 171.756 232.958Z" fill="white" stroke="#602B7A" stroke-width="1.31351" stroke-miterlimit="10" stroke-linecap="round" stroke-linejoin="round"/>
<path d="M174.927 226.114L174.072 225.75C173.042 225.311 171.802 225.844 171.304 226.941C170.805 228.037 171.236 229.283 172.266 229.722L173.121 230.086C174.151 230.525 175.391 229.992 175.89 228.895C176.385 227.797 175.957 226.553 174.927 226.114Z" fill="white" stroke="#602B7A" stroke-width="1.31351" stroke-miterlimit="10" stroke-linecap="round" stroke-linejoin="round"/>
<path d="M55.9295 300.737C55.9295 300.737 53.1463 308.468 53.1463 312.797C53.1463 319.116 56.7362 327.583 59.022 331.661L50.5268 333.826" stroke="#602B7A" stroke-width="2.62703" stroke-linecap="round" stroke-linejoin="round"/>
<path d="M74.6177 302.592C74.1731 305.297 72.921 313.65 74.6177 317.822C77.0684 323.848 80.7362 324.391 84.5275 327.187L84.5852 333.944" stroke="#602B7A" stroke-width="2.62703" stroke-linecap="round" stroke-linejoin="round"/>
<path d="M30.5714 301.664L103.848 305.917C105.274 306.007 106.6 304.69 106.857 303.017L115.508 244.407C115.887 241.947 112.831 238.578 110.665 237.651L35.4405 239.969L24.0769 297.335C24.0769 297.335 26.8604 301.355 30.5714 301.664Z" fill="#602B7A" stroke="#602B7A" stroke-width="0.809567" stroke-miterlimit="10" stroke-linecap="round" stroke-linejoin="round"/>
<path d="M25.6855 298.019L100.629 302.156C102.055 302.246 103.382 300.928 103.639 299.256L112.289 240.646C112.547 238.974 111.601 237.534 110.175 237.445L35.2313 233.308C33.8052 233.218 32.479 234.535 32.2217 236.208L23.5711 294.818C23.3138 296.49 24.2594 297.929 25.6855 298.019Z" fill="white" stroke="#602B7A" stroke-width="1.31351" stroke-miterlimit="10" stroke-linecap="round" stroke-linejoin="round"/>
<rect width="6.18493" height="2.47397" rx="1.23699" transform="matrix(-0.997719 -0.0675006 -0.0675006 0.997719 32.4268 293.731)" fill="#602B7A"/>
<path d="M27.4789 291.768L101.038 295.849C101.539 295.877 101.991 295.411 102.087 294.827L109.825 240.926C109.921 240.342 109.566 239.841 109.103 239.81L35.5436 235.729C35.043 235.701 34.5908 236.167 34.4949 236.751L26.7565 290.652C26.6644 291.274 27.0162 291.737 27.4789 291.768Z" fill="#602B7A" stroke="#602B7A" stroke-width="0.809567" stroke-miterlimit="10" stroke-linecap="round" stroke-linejoin="round"/>
<ellipse rx="1.72066" ry="1.72066" transform="matrix(0.999118 -0.0420034 0.0420082 0.999117 105.975 242.244)" fill="#FF3F61"/>
<ellipse rx="1.72066" ry="1.72066" transform="matrix(0.999118 -0.0420034 0.0420082 0.999117 99.7968 241.898)" fill="white"/>
<ellipse rx="1.72066" ry="1.72066" transform="matrix(0.999118 -0.0420034 0.0420082 0.999117 93.6215 241.554)" fill="#25A7F0"/>
<path d="M29.4022 290.039L99.28 293.853C99.7556 293.878 100.185 293.438 100.277 292.887L107.059 246.186C107.151 245.635 106.813 245.162 106.374 245.132L36.4959 241.319C36.0203 241.293 35.5905 241.733 35.499 242.285L28.7165 288.985C28.6286 289.572 28.9626 290.01 29.4022 290.039Z" fill="#B05CC1" stroke="#602B7A" stroke-width="0.809567" stroke-miterlimit="10" stroke-linecap="round" stroke-linejoin="round"/>
<path d="M73.7282 258.124C72.7766 258.69 72.5483 259.89 73.2335 260.723C75.0064 262.827 78.7466 266.474 83.657 267.277C88.567 268.04 93.3699 265.769 95.8283 264.313C96.7799 263.747 97.0082 262.547 96.3231 261.714C94.5501 259.61 90.8099 255.963 85.8995 255.16C80.9891 254.357 76.1866 256.668 73.7282 258.124Z" fill="white"/>
<path d="M80.3576 264.304C78.6932 261.918 79.3342 258.596 81.7894 256.885C84.2446 255.174 87.5841 255.721 89.2485 258.107C90.9129 260.493 90.2719 263.815 87.8167 265.527C85.3616 267.238 82.022 266.691 80.3576 264.304Z" fill="#25A7F0"/>
<path d="M85.06 258.068C86.7798 258.299 87.994 259.885 87.7659 261.602C87.5378 263.32 85.9523 264.531 84.2325 264.3C82.5126 264.069 81.2985 262.483 81.5266 260.765C81.7547 259.048 83.3402 257.837 85.06 258.068ZM83.3931 261.117L84.7911 262.545C84.8979 262.661 85.0885 262.605 85.107 262.466L85.42 260.109C85.4386 259.969 85.2692 259.865 85.136 259.949L83.4249 260.878C83.337 260.927 83.3211 261.047 83.3931 261.117Z" fill="#602B7A"/>
<path d="M39.3741 257.252C38.4963 257.916 38.4062 259.156 39.179 259.938C41.1724 261.909 45.288 265.262 50.2396 265.617C55.1863 265.932 59.6832 263.175 61.9516 261.467C62.8294 260.803 62.9195 259.563 62.1468 258.781C60.1533 256.811 56.0377 253.458 51.0861 253.102C46.1345 252.747 41.6426 255.544 39.3741 257.252Z" fill="white"/>
<path d="M46.6315 262.85C44.7042 260.628 44.9573 257.257 47.1968 255.321C49.4364 253.385 52.8143 253.617 54.7417 255.839C56.669 258.061 56.4159 261.432 54.1764 263.367C51.9368 265.303 48.5589 265.071 46.6315 262.85Z" fill="#25A7F0"/>
<path d="M50.5716 256.223C52.3286 256.288 53.7389 257.738 53.7144 259.455C53.69 261.172 52.2399 262.517 50.4829 262.452C48.7258 262.387 47.3156 260.937 47.34 259.22C47.3645 257.503 48.8145 256.158 50.5716 256.223ZM49.2591 259.391L50.8353 260.667C50.9565 260.772 51.1415 260.699 51.1435 260.559L51.1771 258.203C51.1791 258.063 50.9963 257.977 50.8723 258.072L49.2625 259.151C49.1799 259.208 49.1782 259.328 49.2591 259.391Z" fill="#602B7A"/>
<path d="M59.7989 272.487C59.7989 272.487 61.0051 276.456 66.2913 276.73C71.5775 277.004 73.247 273.879 73.247 273.879" stroke="white" stroke-width="2.62703" stroke-linecap="round" stroke-linejoin="round"/>
</svg>
