<svg width="40" height="40" viewBox="0 0 40 40" fill="none" xmlns="http://www.w3.org/2000/svg">
<circle cx="20" cy="20" r="20" fill="white"/>
<path d="M19.2929 7.70711L11.7071 15.2929C11.0771 15.9229 11.5233 17 12.4142 17H27.5858C28.4767 17 28.9229 15.9229 28.2929 15.2929L20.7071 7.70711C20.3166 7.31658 19.6834 7.31658 19.2929 7.70711Z" fill="#491A60"/>
<rect x="14" y="16" width="12" height="17" rx="1" fill="#491A60"/>
<rect x="27" y="25" width="5" height="8" rx="1" fill="#491A60"/>
<rect x="8" y="25" width="5" height="8" rx="1" fill="#491A60"/>
<path d="M17 25.7273C17 25.7273 17 23 20 23C23 23 23 25.7273 23 25.7273V33H17L17 25.7273Z" fill="white"/>
</svg>
