<svg width="41" height="40" viewBox="0 0 41 40" fill="none" xmlns="http://www.w3.org/2000/svg">
<circle cx="20.125" cy="20" r="20" fill="#602B7A"/>
<path d="M19.4179 7.70711L11.8321 15.2929C11.2021 15.9229 11.6483 17 12.5392 17H27.7108C28.6017 17 29.0479 15.9229 28.4179 15.2929L20.8321 7.70711C20.4416 7.31658 19.8084 7.31658 19.4179 7.70711Z" fill="white"/>
<rect x="14.125" y="16" width="12" height="17" rx="1" fill="white"/>
<rect x="27.125" y="25" width="5" height="8" rx="1" fill="white"/>
<rect x="8.125" y="25" width="5" height="8" rx="1" fill="white"/>
<path d="M17.125 25.7273C17.125 25.7273 17.125 23 20.125 23C23.125 23 23.125 25.7273 23.125 25.7273V33H17.125L17.125 25.7273Z" fill="#602B7A"/>
</svg>
