<svg width="26" height="21" viewBox="0 0 26 21" fill="none" xmlns="http://www.w3.org/2000/svg">
<path d="M24.2401 0.306024L1.84669 8.66276C0.620164 9.01096 0.657332 10.2022 1.56794 10.4954L7.18023 12.218L9.33595 18.7055C9.59612 19.4202 9.81913 19.6768 10.2651 19.6951C10.7297 19.6951 10.9156 19.5302 11.3988 19.1087C11.9748 18.5772 12.8297 17.7525 14.2049 16.433L20.0402 20.6847C21.1181 21.2711 21.8986 20.9596 22.1587 19.6951L25.8197 1.84542C26.1914 0.306028 25.2622 -0.15213 24.2401 0.306024ZM8.05367 11.8149L20.8021 3.93461C21.434 3.51311 21.6198 3.98959 21.3411 4.30113L10.7483 13.6841L10.2094 18.3756L8.05367 11.8149Z" fill="white"/>
</svg>
