<svg width="31" height="26" viewBox="0 0 31 26" fill="none" xmlns="http://www.w3.org/2000/svg">
<path d="M28.1729 0.866472L1.89791 10.7609C0.458779 11.1731 0.502389 12.5835 1.57083 12.9307L8.15593 14.9703L10.6853 22.6514C10.9906 23.4977 11.2522 23.8014 11.7755 23.8231C12.3207 23.8231 12.5387 23.6279 13.1057 23.1288C13.7816 22.4996 14.7846 21.5231 16.3982 19.9608L23.245 24.9948C24.5096 25.6892 25.4254 25.3203 25.7307 23.8231L30.0263 2.68912C30.4624 0.866478 29.3721 0.324019 28.1729 0.866472ZM9.18076 14.4929L24.139 5.16272C24.8803 4.66366 25.0984 5.22781 24.7713 5.59668L12.3425 16.7061L11.7101 22.2609L9.18076 14.4929Z" fill="#602B7A"/>
</svg>
