<svg width="360" height="354" viewBox="0 0 360 354" fill="none" xmlns="http://www.w3.org/2000/svg">
<path d="M93.0848 236.872C93.0848 236.872 68.6185 250.419 50.2522 244.717C32.7574 239.285 29.5164 215.58 29.5164 215.58M29.5164 215.58L17.0721 211.534M29.5164 215.58L21.8984 203.088M29.5164 215.58L32.7574 203.088" stroke="#602B7A" stroke-width="5.43967" stroke-linecap="round" stroke-linejoin="round"/>
<path d="M270.512 238.477C270.512 238.477 292.834 238.477 311.742 227.823C327.616 218.879 332.478 198.687 332.478 198.687M332.478 198.687L344.922 194.641M332.478 198.687L340.096 186.195M332.478 198.687L329.237 186.195" stroke="#602B7A" stroke-width="5.43967" stroke-linecap="round" stroke-linejoin="round"/>
<path fill-rule="evenodd" clip-rule="evenodd" d="M179.343 148.137C180.759 146.72 183.056 146.72 184.472 148.137L331.363 295.028C333.648 297.312 332.03 301.219 328.799 301.219H35.0162C31.7854 301.219 30.1674 297.312 32.452 295.028L179.343 148.137ZM147.172 216.571C146.463 216.048 146.508 215.098 147.131 214.475L180.625 180.981C181.334 180.273 182.482 180.273 183.19 180.981L216.684 214.475C217.307 215.098 217.352 216.048 216.643 216.571C213.934 218.564 205.42 222.792 181.908 222.792C158.395 222.792 149.881 218.564 147.172 216.571ZM127.506 235.889C126.828 235.631 126.072 235.793 125.557 236.304L87.6379 273.988C86.4901 275.129 87.2979 277.087 88.916 277.087H274.899C276.517 277.087 277.325 275.129 276.177 273.988L238.258 236.304C237.743 235.793 236.987 235.631 236.309 235.889C230.842 237.968 205.903 246.923 181.908 246.923C157.912 246.923 132.973 237.968 127.506 235.889Z" fill="#602B7A"/>
<line y1="-0.502636" x2="9.81583" y2="-0.502636" transform="matrix(0.730241 0.692265 -0.677938 0.726505 166.825 159.971)" stroke="#F8F7F1" stroke-width="1.00527"/>
<line y1="-0.502636" x2="9.81575" y2="-0.502636" transform="matrix(0.730238 0.692268 -0.677935 0.726508 154.405 172.545)" stroke="#F8F7F1" stroke-width="1.00527"/>
<line y1="-0.502636" x2="9.81583" y2="-0.502636" transform="matrix(0.730241 0.692265 -0.677938 0.726505 141.987 185.115)" stroke="#F8F7F1" stroke-width="1.00527"/>
<line y1="-0.502636" x2="9.8158" y2="-0.502636" transform="matrix(0.730238 0.692268 -0.677935 0.726508 129.742 197.045)" stroke="#F8F7F1" stroke-width="1.00527"/>
<line y1="-0.502636" x2="9.81579" y2="-0.502636" transform="matrix(0.730239 0.692266 -0.677936 0.726507 118.144 209.146)" stroke="#F8F7F1" stroke-width="1.00527"/>
<line y1="-0.502636" x2="9.81581" y2="-0.502636" transform="matrix(0.730237 0.692269 -0.677934 0.726509 105.08 221.545)" stroke="#F8F7F1" stroke-width="1.00527"/>
<line y1="-0.502636" x2="9.81581" y2="-0.502636" transform="matrix(0.730237 0.692269 -0.677934 0.726509 92.835 233.477)" stroke="#F8F7F1" stroke-width="1.00527"/>
<line y1="-0.502636" x2="9.81579" y2="-0.502636" transform="matrix(0.730239 0.692266 -0.677936 0.726507 80.5913 245.4)" stroke="#F8F7F1" stroke-width="1.00527"/>
<line y1="-0.502636" x2="9.81579" y2="-0.502636" transform="matrix(0.730239 0.692266 -0.677936 0.726507 68.1714 257.977)" stroke="#F8F7F1" stroke-width="1.00527"/>
<line y1="-0.502636" x2="9.81579" y2="-0.502636" transform="matrix(0.730239 0.692266 -0.677936 0.726507 56.5723 270.082)" stroke="#F8F7F1" stroke-width="1.00527"/>
<line y1="-0.502636" x2="9.81579" y2="-0.502636" transform="matrix(0.730239 0.692266 -0.677936 0.726507 42.5117 283.592)" stroke="#F8F7F1" stroke-width="1.00527"/>
<line y1="-0.502636" x2="5.3582" y2="-0.502636" transform="matrix(0.712772 0.710672 -0.696234 0.708561 161.025 166.021)" stroke="#F8F7F1" stroke-width="1.00527"/>
<line y1="-0.502636" x2="5.3582" y2="-0.502636" transform="matrix(0.712772 0.710672 -0.696234 0.708561 174.066 152.811)" stroke="#F8F7F1" stroke-width="1.00527"/>
<line y1="-0.502636" x2="5.35823" y2="-0.502636" transform="matrix(0.712778 0.710666 -0.696239 0.708556 148.606 178.592)" stroke="#F8F7F1" stroke-width="1.00527"/>
<line y1="-0.502636" x2="5.35823" y2="-0.502636" transform="matrix(0.712778 0.710666 -0.696239 0.708556 136.187 191.168)" stroke="#F8F7F1" stroke-width="1.00527"/>
<line y1="-0.502636" x2="5.35823" y2="-0.502636" transform="matrix(0.712778 0.710666 -0.696239 0.708556 123.942 203.098)" stroke="#F8F7F1" stroke-width="1.00527"/>
<line y1="-0.502636" x2="5.35821" y2="-0.502636" transform="matrix(0.712783 0.710661 -0.696244 0.708551 111.699 215.023)" stroke="#F8F7F1" stroke-width="1.00527"/>
<line y1="-0.502636" x2="5.35819" y2="-0.502636" transform="matrix(0.712775 0.710669 -0.696237 0.708558 99.2769 227.598)" stroke="#F8F7F1" stroke-width="1.00527"/>
<line y1="-0.502636" x2="5.35823" y2="-0.502636" transform="matrix(0.712778 0.710666 -0.696239 0.708556 87.0356 239.523)" stroke="#F8F7F1" stroke-width="1.00527"/>
<line y1="-0.502636" x2="5.35823" y2="-0.502636" transform="matrix(0.712778 0.710666 -0.696239 0.708556 75.4365 251.629)" stroke="#F8F7F1" stroke-width="1.00527"/>
<line y1="-0.502636" x2="5.35823" y2="-0.502636" transform="matrix(0.712778 0.710666 -0.696239 0.708556 63.1919 263.559)" stroke="#F8F7F1" stroke-width="1.00527"/>
<line y1="-0.502636" x2="5.35823" y2="-0.502636" transform="matrix(0.712778 0.710666 -0.696239 0.708556 49.9521 276.605)" stroke="#F8F7F1" stroke-width="1.00527"/>
<line y1="-0.502636" x2="9.81583" y2="-0.502636" transform="matrix(-0.730241 0.692265 0.677938 0.726505 196.88 159.965)" stroke="#F8F7F1" stroke-width="1.00527"/>
<line y1="-0.502636" x2="9.81575" y2="-0.502636" transform="matrix(-0.730238 0.692268 0.677935 0.726508 209.299 172.539)" stroke="#F8F7F1" stroke-width="1.00527"/>
<line y1="-0.502636" x2="9.81583" y2="-0.502636" transform="matrix(-0.730241 0.692265 0.677938 0.726505 221.717 185.109)" stroke="#F8F7F1" stroke-width="1.00527"/>
<line y1="-0.502636" x2="9.8158" y2="-0.502636" transform="matrix(-0.730238 0.692268 0.677935 0.726508 233.961 197.039)" stroke="#F8F7F1" stroke-width="1.00527"/>
<line y1="-0.502636" x2="9.81579" y2="-0.502636" transform="matrix(-0.730239 0.692266 0.677936 0.726507 245.56 209.141)" stroke="#F8F7F1" stroke-width="1.00527"/>
<line y1="-0.502636" x2="9.81581" y2="-0.502636" transform="matrix(-0.730237 0.692269 0.677934 0.726509 258.624 221.539)" stroke="#F8F7F1" stroke-width="1.00527"/>
<line y1="-0.502636" x2="9.81581" y2="-0.502636" transform="matrix(-0.730237 0.692269 0.677934 0.726509 270.87 233.471)" stroke="#F8F7F1" stroke-width="1.00527"/>
<line y1="-0.502636" x2="9.81579" y2="-0.502636" transform="matrix(-0.730239 0.692266 0.677936 0.726507 283.112 245.395)" stroke="#F8F7F1" stroke-width="1.00527"/>
<line y1="-0.502636" x2="9.81579" y2="-0.502636" transform="matrix(-0.730239 0.692266 0.677936 0.726507 295.532 257.971)" stroke="#F8F7F1" stroke-width="1.00527"/>
<line y1="-0.502636" x2="9.81579" y2="-0.502636" transform="matrix(-0.730239 0.692266 0.677936 0.726507 307.131 270.076)" stroke="#F8F7F1" stroke-width="1.00527"/>
<line y1="-0.502636" x2="9.81579" y2="-0.502636" transform="matrix(-0.730239 0.692266 0.677936 0.726507 321.192 283.586)" stroke="#F8F7F1" stroke-width="1.00527"/>
<line y1="-0.502636" x2="5.3582" y2="-0.502636" transform="matrix(-0.712772 0.710672 0.696234 0.708561 202.679 166.016)" stroke="#F8F7F1" stroke-width="1.00527"/>
<line y1="-0.502636" x2="5.3582" y2="-0.502636" transform="matrix(-0.712772 0.710672 0.696234 0.708561 188.745 152.812)" stroke="#F8F7F1" stroke-width="1.00527"/>
<line y1="-0.502636" x2="5.35823" y2="-0.502636" transform="matrix(-0.712778 0.710666 0.696239 0.708556 215.097 178.586)" stroke="#F8F7F1" stroke-width="1.00527"/>
<line y1="-0.502636" x2="5.35823" y2="-0.502636" transform="matrix(-0.712778 0.710666 0.696239 0.708556 227.517 191.162)" stroke="#F8F7F1" stroke-width="1.00527"/>
<line y1="-0.502636" x2="5.35823" y2="-0.502636" transform="matrix(-0.712778 0.710666 0.696239 0.708556 239.761 203.092)" stroke="#F8F7F1" stroke-width="1.00527"/>
<line y1="-0.502636" x2="5.35821" y2="-0.502636" transform="matrix(-0.712783 0.710661 0.696244 0.708551 252.005 215.018)" stroke="#F8F7F1" stroke-width="1.00527"/>
<line y1="-0.502636" x2="5.35819" y2="-0.502636" transform="matrix(-0.712775 0.710669 0.696237 0.708558 264.426 227.592)" stroke="#F8F7F1" stroke-width="1.00527"/>
<line y1="-0.502636" x2="5.35823" y2="-0.502636" transform="matrix(-0.712778 0.710666 0.696239 0.708556 276.667 239.52)" stroke="#F8F7F1" stroke-width="1.00527"/>
<line y1="-0.502636" x2="5.35823" y2="-0.502636" transform="matrix(-0.712778 0.710666 0.696239 0.708556 288.267 251.623)" stroke="#F8F7F1" stroke-width="1.00527"/>
<line y1="-0.502636" x2="5.35823" y2="-0.502636" transform="matrix(-0.712778 0.710666 0.696239 0.708556 300.511 263.553)" stroke="#F8F7F1" stroke-width="1.00527"/>
<line y1="-0.502636" x2="5.35823" y2="-0.502636" transform="matrix(-0.712778 0.710666 0.696239 0.708556 313.751 276.6)" stroke="#F8F7F1" stroke-width="1.00527"/>
<path d="M163.75 283.234C163.75 283.234 159.848 300.73 157.719 315.811C155.935 328.445 159.848 350.658 159.848 350.658L143.721 350.658" stroke="#602B7A" stroke-width="5.43967" stroke-linecap="round" stroke-linejoin="round"/>
<path d="M202.221 283.234C202.221 283.234 206.123 300.73 208.253 315.811C210.037 328.445 206.123 350.658 206.123 350.658L222.251 350.658" stroke="#602B7A" stroke-width="5.43967" stroke-linecap="round" stroke-linejoin="round"/>
<path d="M78.2332 180.749C50.9931 180.847 37.14 167.087 37.059 139.855C36.9719 112.635 50.7393 98.7744 77.9823 98.6855C112.875 98.5654 149.358 123.91 168.402 139.411C149.449 155.047 113.117 180.632 78.2332 180.749Z" fill="#602B7A"/>
<path d="M193.603 139.336C212.547 123.703 248.879 98.1179 283.772 97.9979C311.012 97.8999 324.865 111.661 324.946 138.892C325.036 166.121 311.266 179.973 284.023 180.062C249.136 180.17 212.647 154.837 193.603 139.336Z" fill="#602B7A"/>
<path d="M116.105 134.655C118.438 136.42 118.497 139.837 116.219 141.766C111.753 145.55 103.863 150.926 94.7719 151.237C85.6805 151.547 77.6223 146.722 73.0414 143.253C70.7079 141.488 70.6492 138.071 72.9271 136.142C77.3936 132.358 85.283 126.982 94.3744 126.672C103.466 126.361 111.524 131.186 116.105 134.655Z" fill="white"/>
<path d="M105.273 138.618C105.174 132.72 100.299 128.078 94.3857 128.25C88.4721 128.421 83.7587 133.341 83.8579 139.239C83.9572 145.137 88.8315 149.779 94.7451 149.607C100.659 149.436 105.372 144.516 105.273 138.618Z" fill="#1C90D2"/>
<path d="M99.5004 138.786C99.4547 136.071 97.2089 133.934 94.4843 134.013C91.7596 134.092 89.5879 136.357 89.6336 139.072C89.6793 141.787 91.9251 143.924 94.6497 143.845C97.3744 143.766 99.5461 141.501 99.5004 138.786Z" fill="#602B7A"/>
<path d="M288.4 136.195C290.599 138.119 290.41 141.53 287.999 143.294C283.272 146.756 275.017 151.564 265.931 151.236C256.845 150.909 249.162 145.531 244.847 141.75C242.649 139.826 242.838 136.415 245.249 134.65C249.976 131.189 258.231 126.381 267.316 126.709C276.402 127.036 284.085 132.414 288.4 136.195Z" fill="white"/>
<path d="M277.327 139.381C277.659 133.494 273.134 128.526 267.22 128.286C261.306 128.046 256.242 132.623 255.91 138.51C255.577 144.397 260.102 149.365 266.016 149.605C271.93 149.846 276.994 145.268 277.327 139.381Z" fill="#1C90D2"/>
<path d="M271.554 139.148C271.707 136.438 269.622 134.151 266.897 134.04C264.172 133.93 261.839 136.037 261.686 138.747C261.533 141.457 263.618 143.744 266.343 143.855C269.068 143.966 271.401 141.858 271.554 139.148Z" fill="#602B7A"/>
<path d="M321.319 87.7171C310.167 78.5908 295.229 73.847 278.126 74.0073C237.104 74.3713 197.839 103.654 179.881 119.171C161.658 103.977 121.885 75.4101 80.8667 75.7831C63.7603 75.9344 48.9058 80.9445 37.9123 90.2666C28.5981 98.1677 17.5526 113.199 17.7838 139.961C18.0149 166.724 29.3232 181.552 38.7731 189.281C49.9249 198.407 64.8633 203.151 81.9668 202.991C122.988 202.627 162.253 173.344 180.211 157.827C198.435 173.021 238.207 201.588 279.226 201.215C296.332 201.064 311.187 196.054 322.18 186.732C331.494 178.831 342.543 163.809 342.309 137.037C342.08 110.283 330.769 95.4458 321.319 87.7171ZM84.3285 170.064C63.9433 170.246 53.5164 160.005 53.3404 139.628C53.1644 119.251 63.4126 108.826 83.7978 108.644C109.91 108.407 137.328 127.222 151.647 138.749C137.522 150.529 110.441 169.827 84.3285 170.064ZM276.301 168.342C250.188 168.579 222.771 149.764 208.452 138.237C222.567 126.46 249.648 107.162 275.761 106.925C296.146 106.743 306.573 116.984 306.749 137.361C306.934 157.735 296.686 168.161 276.301 168.342Z" fill="#F55277"/>
<path d="M57.0288 68.5566C57.0288 68.5566 67.2846 62.5238 75.7305 60.714C84.1764 58.9042 95.6387 60.714 95.6387 60.714" stroke="#602B7A" stroke-width="5.43967" stroke-miterlimit="10" stroke-linecap="round" stroke-linejoin="round"/>
<path d="M270.59 89.3086C270.59 89.3086 282.504 85.5135 293.514 89.3086C304.525 93.1037 309.517 101.799 309.517 101.799" stroke="#602B7A" stroke-width="5.43967" stroke-miterlimit="10" stroke-linecap="round" stroke-linejoin="round"/>
<path d="M200.609 207.109C200.609 207.109 193.37 212.612 181.907 212.612C170.445 212.612 164.412 207.112 164.412 207.112" stroke="#F55277" stroke-width="5.43967" stroke-miterlimit="10" stroke-linecap="round" stroke-linejoin="round"/>
</svg>
