<svg width="25" height="26" viewBox="0 0 25 26" fill="none" xmlns="http://www.w3.org/2000/svg">
<path fill-rule="evenodd" clip-rule="evenodd" d="M12.7208 0.359366C6.00409 0.359366 0.538351 5.80587 0.538351 12.5418C0.538351 14.8513 1.17346 16.9875 2.2897 18.8351L0.0957055 25.3594L6.83166 23.2039C8.583 24.1662 10.5845 24.7243 12.7208 24.7243C19.4375 24.7243 24.9032 19.2778 24.9032 12.5418C24.9032 5.80587 19.4568 0.359366 12.7208 0.359366ZM12.7208 22.665C10.6615 22.665 8.73696 22.0491 7.13958 20.9906L3.25198 22.2416L4.52219 18.4695C3.30972 16.7951 2.59763 14.7358 2.59763 12.5226C2.59763 6.94137 7.13958 2.38015 12.74 2.38015C18.3213 2.38015 22.8825 6.92212 22.8825 12.5226C22.8632 18.123 18.3213 22.665 12.7208 22.665ZM18.4367 15.294C18.1288 15.1207 16.6277 14.3124 16.3582 14.1969C16.0695 14.0815 15.8771 14.0237 15.6461 14.3317C15.4344 14.6396 14.7993 15.3132 14.6261 15.5056C14.4337 15.6981 14.2605 15.7173 13.9525 15.5634C13.6446 15.3902 12.6631 15.0245 11.5083 13.9275C10.623 13.0614 10.0264 12.0222 9.85321 11.7143C9.68 11.3871 9.85321 11.2331 10.0072 11.0792C10.1611 10.9444 10.3344 10.7327 10.4883 10.5595C10.6423 10.3863 10.7 10.2516 10.8155 10.0591C10.931 9.84744 10.8732 9.67424 10.8155 9.52028C10.7385 9.36631 10.1804 7.80741 9.94944 7.1723C9.71849 6.5372 9.44905 6.63344 9.27584 6.63344C9.10263 6.63344 8.89093 6.59494 8.67923 6.59494C8.46753 6.59494 8.14035 6.65268 7.83242 6.96061C7.54374 7.26854 6.69694 7.98063 6.6392 9.52028C6.58146 11.0407 7.63997 12.5611 7.79394 12.7728C7.9479 12.9845 9.81472 16.2947 12.9325 17.6611C16.0503 19.0276 16.0695 18.6042 16.6277 18.5849C17.205 18.5464 18.4945 17.8921 18.7832 17.18C19.0718 16.4679 19.0911 15.8328 19.0141 15.7173C18.9371 15.5441 18.7447 15.4672 18.4367 15.294Z" fill="white"/>
</svg>
