<svg width="29" height="29" viewBox="0 0 29 29" fill="none" xmlns="http://www.w3.org/2000/svg">
<path fill-rule="evenodd" clip-rule="evenodd" d="M14.3554 -1.05921e-05C6.78466 -1.05921e-05 0.623932 6.13904 0.623932 13.7315C0.623932 16.3346 1.33979 18.7425 2.59797 20.825L0.125003 28.1788L7.71745 25.7493C9.69149 26.8339 11.9475 27.463 14.3554 27.463C21.9262 27.463 28.0869 21.3239 28.0869 13.7315C28.0869 6.13904 21.9479 -1.05921e-05 14.3554 -1.05921e-05ZM14.3554 25.1418C12.0343 25.1418 9.86503 24.4477 8.06453 23.2546L3.68261 24.6646L5.11433 20.4129C3.74769 18.5256 2.94506 16.2045 2.94506 13.7098C2.94506 7.41891 8.06453 2.27772 14.3771 2.27772C20.668 2.27772 25.8092 7.39722 25.8092 13.7098C25.7875 20.0224 20.668 25.1418 14.3554 25.1418ZM20.7982 16.8336C20.4511 16.6383 18.759 15.7272 18.4553 15.5971C18.13 15.4669 17.913 15.4018 17.6527 15.7489C17.4141 16.096 16.6982 16.8552 16.503 17.0722C16.2861 17.2891 16.0908 17.3108 15.7438 17.1372C15.3967 16.942 14.2903 16.5298 12.9888 15.2934C11.9909 14.3172 11.3184 13.1458 11.1232 12.7987C10.928 12.4299 11.1232 12.2564 11.2967 12.0828C11.4703 11.931 11.6655 11.6924 11.8391 11.4971C12.0126 11.3019 12.0777 11.15 12.2078 10.9331C12.338 10.6945 12.2729 10.4993 12.2078 10.3257C12.1211 10.1522 11.492 8.39507 11.2317 7.67921C10.9714 6.96335 10.6677 7.07183 10.4724 7.07183C10.2772 7.07183 10.0386 7.02843 9.79995 7.02843C9.56133 7.02843 9.19255 7.09352 8.84547 7.4406C8.52008 7.78768 7.5656 8.59032 7.50052 10.3257C7.43545 12.0395 8.62855 13.7532 8.80209 13.9918C8.97563 14.2304 11.0798 17.9616 14.594 19.5017C18.1083 21.0419 18.13 20.5647 18.759 20.543C19.4098 20.4996 20.8632 19.7621 21.1886 18.9594C21.514 18.1568 21.5357 17.4409 21.4489 17.3108C21.3622 17.1155 21.1452 17.0288 20.7982 16.8336Z" fill="#602B7A"/>
</svg>
